  0
SECTION
  2
HEADER
  9
$ACADVER
  1
AC1014
  9
$ACADMAINTVER
 70
     0
  9
$DWGCODEPAGE
  3
ANSI_1250
  9
$INSBASE
 10
0.0
 20
0.0
 30
0.0
  9
$EXTMIN
 10
0.0
 20
0.0
 30
0.0
  9
$EXTMAX
 10
297.0
 20
210.0
 30
0.0
  9
$LIMMIN
 10
0.0
 20
0.0
  9
$LIMMAX
 10
297.0
 20
210.0
  9
$ORTHOMODE
 70
     0
  9
$REGENMODE
 70
     1
  9
$FILLMODE
 70
     1
  9
$QTEXTMODE
 70
     0
  9
$MIRRTEXT
 70
     0
  9
$DRAGMODE
 70
     2
  9
$LTSCALE
 40
1.0
  9
$OSMODE
 70
     0
  9
$ATTMODE
 70
     1
  9
$TEXTSIZE
 40
2.5
  9
$TRACEWID
 40
1.0
  9
$TEXTSTYLE
  7
STANDARD
  9
$CLAYER
  8
0
  9
$CELTYPE
  6
BYLAYER
  9
$CECOLOR
 62
   256
  9
$CELTSCALE
 40
1.0
  9
$DELOBJ
 70
     1
  9
$DISPSILH
 70
     0
  9
$DIMSCALE
 40
1.0
  9
$DIMASZ
 40
2.5
  9
$DIMEXO
 40
0.625
  9
$DIMDLI
 40
3.75
  9
$DIMRND
 40
0.0
  9
$DIMDLE
 40
0.0
  9
$DIMEXE
 40
1.25
  9
$DIMTP
 40
0.0
  9
$DIMTM
 40
0.0
  9
$DIMTXT
 40
2.5
  9
$DIMCEN
 40
2.5
  9
$DIMTSZ
 40
0.0
  9
$DIMTOL
 70
     0
  9
$DIMLIM
 70
     0
  9
$DIMTIH
 70
     0
  9
$DIMTOH
 70
     0
  9
$DIMSE1
 70
     0
  9
$DIMSE2
 70
     0
  9
$DIMTAD
 70
     1
  9
$DIMZIN
 70
     8
  9
$DIMBLK
  1

  9
$DIMASO
 70
     1
  9
$DIMSHO
 70
     1
  9
$DIMPOST
  1

  9
$DIMAPOST
  1

  9
$DIMALT
 70
     0
  9
$DIMALTD
 70
     3
  9
$DIMALTF
 40
0.03937008
  9
$DIMLFAC
 40
1.0
  9
$DIMTOFL
 70
     1
  9
$DIMTVP
 40
0.0
  9
$DIMTIX
 70
     0
  9
$DIMSOXD
 70
     0
  9
$DIMSAH
 70
     0
  9
$DIMBLK1
  1

  9
$DIMBLK2
  1

  9
$DIMSTYLE
  2
STANDARD
  9
$DIMCLRD
 70
     0
  9
$DIMCLRE
 70
     0
  9
$DIMCLRT
 70
     0
  9
$DIMTFAC
 40
1.0
  9
$DIMGAP
 40
0.625
  9
$DIMJUST
 70
     0
  9
$DIMSD1
 70
     0
  9
$DIMSD2
 70
     0
  9
$DIMTOLJ
 70
     0
  9
$DIMTZIN
 70
     8
  9
$DIMALTZ
 70
     0
  9
$DIMALTTZ
 70
     0
  9
$DIMFIT
 70
     3
  9
$DIMUPT
 70
     0
  9
$DIMUNIT
 70
     2
  9
$DIMDEC
 70
     2
  9
$DIMTDEC
 70
     2
  9
$DIMALTU
 70
     2
  9
$DIMALTTD
 70
     3
  9
$DIMTXSTY
  7
STANDARD
  9
$DIMAUNIT
 70
     0
  9
$LUNITS
 70
     2
  9
$LUPREC
 70
     4
  9
$SKETCHINC
 40
1.0
  9
$FILLETRAD
 40
10.0
  9
$AUNITS
 70
     0
  9
$AUPREC
 70
     0
  9
$MENU
  1
.
  9
$ELEVATION
 40
0.0
  9
$PELEVATION
 40
0.0
  9
$THICKNESS
 40
0.0
  9
$LIMCHECK
 70
     0
  9
$CHAMFERA
 40
10.0
  9
$CHAMFERB
 40
10.0
  9
$CHAMFERC
 40
20.0
  9
$CHAMFERD
 40
0.0
  9
$SKPOLY
 70
     0
  9
$TDCREATE
 40
0.0
  9
$TDUPDATE
 40
0.0
  9
$TDINDWG
 40
0.0
  9
$TDUSRTIMER
 40
0.0
  9
$USRTIMER
 70
     0
  9
$ANGBASE
 50
0.0
  9
$ANGDIR
 70
     0
  9
$PDMODE
 70
     0
  9
$PDSIZE
 40
0.0
  9
$PLINEWID
 40
0.0
  9
$COORDS
 70
     1
  9
$SPLFRAME
 70
     0
  9
$SPLINETYPE
 70
     6
  9
$SPLINESEGS
 70
     8
  9
$ATTDIA
 70
     0
  9
$ATTREQ
 70
     1
  9
$HANDLING
 70
     1
  9
$HANDSEED
  5
476
  9
$SURFTAB1
 70
     6
  9
$SURFTAB2
 70
     6
  9
$SURFTYPE
 70
     6
  9
$SURFU
 70
     6
  9
$SURFV
 70
     6
  9
$UCSNAME
  2

  9
$UCSORG
 10
0.0
 20
0.0
 30
0.0
  9
$UCSXDIR
 10
1.0
 20
0.0
 30
0.0
  9
$UCSYDIR
 10
0.0
 20
1.0
 30
0.0
  9
$PUCSNAME
  2

  9
$PUCSORG
 10
0.0
 20
0.0
 30
0.0
  9
$PUCSXDIR
 10
1.0
 20
0.0
 30
0.0
  9
$PUCSYDIR
 10
0.0
 20
1.0
 30
0.0
  9
$USERI1
 70
     0
  9
$USERI2
 70
     0
  9
$USERI3
 70
     0
  9
$USERI4
 70
     0
  9
$USERI5
 70
     0
  9
$USERR1
 40
0.0
  9
$USERR2
 40
0.0
  9
$USERR3
 40
0.0
  9
$USERR4
 40
0.0
  9
$USERR5
 40
0.0
  9
$WORLDVIEW
 70
     1
  9
$SHADEDGE
 70
     3
  9
$SHADEDIF
 70
    70
  9
$TILEMODE
 70
     1
  9
$MAXACTVP
 70
    64
  9
$PINSBASE
 10
0.0
 20
0.0
 30
0.0
  9
$PLIMCHECK
 70
     0
  9
$PEXTMIN
 10
1000000.0
 20
1000000.0
 30
1000000.0
  9
$PEXTMAX
 10
-1000000.0
 20
-1000000.0
 30
-1000000.0
  9
$PLIMMIN
 10
0.0
 20
0.0
  9
$PLIMMAX
 10
297.0
 20
210.0
  9
$UNITMODE
 70
     0
  9
$VISRETAIN
 70
     1
  9
$PLINEGEN
 70
     0
  9
$PSLTSCALE
 70
     1
  9
$TREEDEPTH
 70
  3020
  9
$PICKSTYLE
 70
     1
  9
$CMLSTYLE
  2
STANDARD
  9
$CMLJUST
 70
     0
  9
$CMLSCALE
 40
20.0
  9
$PROXYGRAPHICS
 70
     1
  9
$MEASUREMENT
 70
     1
  0
ENDSEC
  0
SECTION
  2
CLASSES
  0
CLASS
  1
ACDBDICTIONARYWDFLT
  2
AcDbDictionaryWithDefault
  3
AutoCAD 2000
 90
     0
280
     0
281
     0
  0
CLASS
  1
ACDBPLACEHOLDER
  2
AcDbPlaceHolder
  3
AutoCAD 2000
 90
     0
280
     0
281
     0
  0
CLASS
  1
DICTIONARYVAR
  2
AcDbDictionaryVar
  3
AutoCAD 2000
 90
     0
280
     0
281
     0
  0
CLASS
  1
XRECORD
  2
AcDbXrecord
  3
AutoCAD 2000
 90
     0
280
     0
281
     0
  0
CLASS
  1
LAYOUT
  2
AcDbLayout
  3
AutoCAD 2000
 90
     0
280
     0
281
     0
  0
CLASS
  1
LWPOLYLINE
  2
AcDbPolyline
  3
AutoCAD 2000
 90
     0
280
     0
281
     1
  0
CLASS
  1
HATCH
  2
AcDbHatch
  3
AutoCAD 2000
 90
     0
280
     0
281
     1
  0
ENDSEC
  0
SECTION
  2
TABLES
  0
TABLE
  2
VPORT
  5
1
330
0
100
AcDbSymbolTable
 70
     1
  0
VPORT
  5
2
330
1
100
AcDbSymbolTableRecord
100
AcDbViewportTableRecord
  2
*ACTIVE
 70
     0
 10
0.0
 20
0.0
 11
1.0
 21
1.0
 12
148.5
 22
105.0
 13
0.0
 23
0.0
 14
10.0
 24
10.0
 15
10.0
 25
10.0
 16
0.0
 26
0.0
 36
1.0
 17
0.0
 27
0.0
 37
0.0
 40
210.0
 41
1.41428571
 42
50.0
 43
0.0
 44
0.0
 50
0.0
 51
0.0
 71
    16
 72
  1000
 73
     1
 74
     1
 75
     0
 76
     0
 77
     0
 78
     0
  0
ENDTAB
  0
TABLE
  2
LTYPE
  5
3
330
0
100
AcDbSymbolTable
 70
     7
  0
LTYPE
  5
4
330
3
100
AcDbSymbolTableRecord
100
AcDbLinetypeTableRecord
  2
BYBLOCK
 70
     0
  3

 72
    65
 73
     0
 40
0.0
  0
LTYPE
  5
5
330
3
100
AcDbSymbolTableRecord
100
AcDbLinetypeTableRecord
  2
BYLAYER
 70
     0
  3

 72
    65
 73
     0
 40
0.0
  0
LTYPE
  5
6
330
3
100
AcDbSymbolTableRecord
100
AcDbLinetypeTableRecord
  2
CONTINUOUS
 70
     0
  3
Solid line
 72
    65
 73
     0
 40
0.0
  0
LTYPE
  5
23
330
3
100
AcDbSymbolTableRecord
100
AcDbLinetypeTableRecord
  2
DASH
 70
     0
  3
Dash __ __ __ __ __ __ __ __ __ __ __ __ __ 
 72
    65
 73
     2
 40
5.0
 49
4.0
 74
     0
 49
-1.0
 74
     0
  0
LTYPE
  5
24
330
3
100
AcDbSymbolTableRecord
100
AcDbLinetypeTableRecord
  2
DOT
 70
     0
  3
Dot . . . . . . . . . . . . . . . . . . . . 
 72
    65
 73
     2
 40
1.25
 49
0.25
 74
     0
 49
-1.0
 74
     0
  0
LTYPE
  5
25
330
3
100
AcDbSymbolTableRecord
100
AcDbLinetypeTableRecord
  2
DASHDOT
 70
     0
  3
Dash, dot __ . __ . __ . __ . __ . __ . __ .
 72
    65
 73
     4
 40
6.25
 49
4.0
 74
     0
 49
-1.0
 74
     0
 49
0.25
 74
     0
 49
-1.0
 74
     0
  0
LTYPE
  5
26
330
3
100
AcDbSymbolTableRecord
100
AcDbLinetypeTableRecord
  2
DASHDOTDOT
 70
     0
  3
Dash, double dot __ . . __ . . __ . . __ . .
 72
    65
 73
     6
 40
7.5
 49
4.0
 74
     0
 49
-1.0
 74
     0
 49
0.25
 74
     0
 49
-1.0
 74
     0
 49
0.25
 74
     0
 49
-1.0
 74
     0
  0
ENDTAB
  0
TABLE
  2
LAYER
  5
7
330
0
100
AcDbSymbolTable
 70
     4
  0
LAYER
  5
8
330
7
100
AcDbSymbolTableRecord
100
AcDbLayerTableRecord
  2
0
 70
     0
 62
     7
  6
CONTINUOUS
  0
LAYER
  5
20
330
7
100
AcDbSymbolTableRecord
100
AcDbLayerTableRecord
  2
1-texts
 70
     0
 62
     2
  6
CONTINUOUS
  0
LAYER
  5
21
330
7
100
AcDbSymbolTableRecord
100
AcDbLayerTableRecord
  2
2-order-items
 70
     0
 62
     4
  6
CONTINUOUS
  0
LAYER
  5
22
330
7
100
AcDbSymbolTableRecord
100
AcDbLayerTableRecord
  2
3-links
 70
     0
 62
     7
  6
CONTINUOUS
  0
ENDTAB
  0
TABLE
  2
STYLE
  5
9
330
0
100
AcDbSymbolTable
 70
     1
  0
STYLE
  5
A
330
9
100
AcDbSymbolTableRecord
100
AcDbTextStyleTableRecord
  2
STANDARD
 70
     0
 40
0.0
 41
1.0
 50
0.0
 71
     0
 42
2.5
  3
txt
  4

  0
ENDTAB
  0
TABLE
  2
VIEW
  5
B
330
0
100
AcDbSymbolTable
 70
     0
  0
ENDTAB
  0
TABLE
  2
UCS
  5
C
330
0
100
AcDbSymbolTable
 70
     0
  0
ENDTAB
  0
TABLE
  2
APPID
  5
D
330
0
100
AcDbSymbolTable
 70
     1
  0
APPID
  5
E
330
D
100
AcDbSymbolTableRecord
100
AcDbRegAppTableRecord
  2
ACAD
 70
     0
  0
ENDTAB
  0
TABLE
  2
DIMSTYLE
  5
F
330
0
100
AcDbSymbolTable
 70
     1
  0
DIMSTYLE
105
10
330
F
100
AcDbSymbolTableRecord
100
AcDbDimStyleTableRecord
  2
STANDARD
 70
     0
  3

  4

  5

  6

  7

 40
1.0
 41
0.18
 42
0.0625
 43
0.38
 44
0.18
 45
0.0
 46
0.0
 47
0.0
 48
0.0
140
0.18
141
0.09
142
0.0
143
25.4
144
1.0
145
0.0
146
1.0
147
0.09
 71
     0
 72
     0
 73
     1
 74
     1
 75
     0
 76
     0
 77
     0
 78
     0
170
     0
171
     2
172
     0
173
     0
174
     0
175
     0
176
     0
177
     0
178
     0
270
     2
271
     4
272
     4
273
     2
274
     2
340
A
275
     0
280
     0
281
     0
282
     0
283
     1
284
     0
285
     0
286
     0
287
     3
288
     0
  0
ENDTAB
  0
TABLE
  2
BLOCK_RECORD
  5
11
330
0
100
AcDbSymbolTable
 70
     2
  0
BLOCK_RECORD
  5
12
330
11
100
AcDbSymbolTableRecord
100
AcDbBlockTableRecord
  2
*MODEL_SPACE
  0
BLOCK_RECORD
  5
13
330
11
100
AcDbSymbolTableRecord
100
AcDbBlockTableRecord
  2
*PAPER_SPACE
  0
ENDTAB
  0
ENDSEC
  0
SECTION
  2
BLOCKS
  0
BLOCK
  5
14
330
12
100
AcDbEntity
  8
0
100
AcDbBlockBegin
  2
*MODEL_SPACE
 70
     0
 10
0.0
 20
0.0
 30
0.0
  3
*MODEL_SPACE
  0
ENDBLK
  5
15
330
12
100
AcDbEntity
  8
0
100
AcDbBlockEnd
  0
BLOCK
  5
16
330
13
100
AcDbEntity
 67
     1
  8
0
100
AcDbBlockBegin
  2
*PAPER_SPACE
 70
     0
 10
0.0
 20
0.0
 30
0.0
  3
*PAPER_SPACE
  0
ENDBLK
  5
17
330
13
100
AcDbEntity
  8
0
100
AcDbBlockEnd
  0
ENDSEC
  0
SECTION
  2
ENTITIES
  0
LWPOLYLINE
  5
27
330
12
100
AcDbEntity
  8
0
100
AcDbPolyline
 90
     2
 10
61.08
 20
176.0
 10
61.08
 20
172.0
  0
LWPOLYLINE
  5
28
330
12
100
AcDbEntity
  8
0
100
AcDbPolyline
 90
     2
 10
77.08
 20
176.0
 10
77.08
 20
172.0
  0
LWPOLYLINE
  5
29
330
12
100
AcDbEntity
  8
0
100
AcDbPolyline
 90
     2
 10
60.08
 20
184.0
 10
60.08
 20
176.0
  0
LWPOLYLINE
  5
2A
330
12
100
AcDbEntity
  8
0
100
AcDbPolyline
 90
     2
 10
60.08
 20
184.0
 10
78.08
 20
184.0
  0
LWPOLYLINE
  5
2B
330
12
100
AcDbEntity
  8
0
100
AcDbPolyline
 90
     2
 10
78.08
 20
184.0
 10
78.08
 20
181.0
  0
LWPOLYLINE
  5
2C
330
12
100
AcDbEntity
  8
0
100
AcDbPolyline
 90
     2
 10
78.08
 20
179.0
 10
78.08
 20
176.0
  0
LWPOLYLINE
  5
2D
330
12
100
AcDbEntity
  8
0
100
AcDbPolyline
 90
     2
 10
60.08
 20
176.0
 10
78.08
 20
176.0
  0
LWPOLYLINE
  5
2E
330
12
100
AcDbEntity
  8
0
100
AcDbPolyline
 90
     2
 10
84.08
 20
181.0
 10
84.08
 20
179.0
  0
LWPOLYLINE
  5
2F
330
12
100
AcDbEntity
  8
0
100
AcDbPolyline
 90
     2
 10
84.08
 20
181.0
 10
66.08
 20
181.0
  0
LWPOLYLINE
  5
30
330
12
100
AcDbEntity
  8
0
100
AcDbPolyline
 90
     2
 10
84.08
 20
179.0
 10
66.08
 20
179.0
  0
LWPOLYLINE
  5
31
330
12
100
AcDbEntity
  8
0
100
AcDbPolyline
 90
     2
 10
62.08
 20
176.0
 10
66.08
 20
176.0
  0
LWPOLYLINE
  5
32
330
12
100
AcDbEntity
  8
0
100
AcDbPolyline
 90
     2
 10
62.08
 20
184.0
 10
66.08
 20
184.0
  0
LWPOLYLINE
  5
33
330
12
100
AcDbEntity
  8
0
100
AcDbPolyline
 90
     2
 10
62.08
 20
184.0
 10
62.08
 20
176.0
  0
LWPOLYLINE
  5
34
330
12
100
AcDbEntity
  8
0
100
AcDbPolyline
 90
     2
 10
66.08
 20
184.0
 10
66.08
 20
176.0
  0
LWPOLYLINE
  5
35
330
12
100
AcDbEntity
  8
0
100
AcDbPolyline
 90
     2
 10
94.08
 20
182.0
 10
94.08
 20
188.0
  0
LWPOLYLINE
  5
36
330
12
100
AcDbEntity
  8
0
100
AcDbPolyline
 90
     2
 10
94.08
 20
188.0
 10
100.08
 20
188.0
  0
LWPOLYLINE
  5
37
330
12
100
AcDbEntity
  8
0
100
AcDbPolyline
 90
     2
 10
94.08
 20
182.0
 10
100.08
 20
182.0
  0
LWPOLYLINE
  5
38
330
12
100
AcDbEntity
  8
0
100
AcDbPolyline
 90
     2
 10
100.08
 20
182.0
 10
100.08
 20
188.0
  0
LWPOLYLINE
  5
39
330
12
100
AcDbEntity
  8
0
100
AcDbPolyline
 90
     2
 10
95.08
 20
184.59
 10
96.08
 20
184.59
  0
LWPOLYLINE
  5
3A
330
12
100
AcDbEntity
  8
0
100
AcDbPolyline
 90
     2
 10
98.08
 20
184.59
 10
99.08
 20
184.59
  0
LWPOLYLINE
  5
3B
330
12
100
AcDbEntity
  8
0
100
AcDbPolyline
 90
     2
 10
96.08
 20
184.59
 10
98.08
 20
185.59
  0
LWPOLYLINE
  5
3C
330
12
100
AcDbEntity
  8
0
100
AcDbPolyline
 90
     2
 10
96.29
 20
183.99
 10
97.77
 20
183.99
  0
LWPOLYLINE
  5
3D
330
12
100
AcDbEntity
  8
0
100
AcDbPolyline
 90
     2
 10
96.8
 20
186.0
 10
98.26
 20
185.99
  0
LWPOLYLINE
  5
3E
330
12
100
AcDbEntity
  8
0
100
AcDbPolyline
 90
     2
 10
82.08
 20
182.0
 10
82.08
 20
188.0
  0
LWPOLYLINE
  5
3F
330
12
100
AcDbEntity
  8
0
100
AcDbPolyline
 90
     2
 10
82.08
 20
188.0
 10
88.08
 20
188.0
  0
LWPOLYLINE
  5
40
330
12
100
AcDbEntity
  8
0
100
AcDbPolyline
 90
     2
 10
82.08
 20
182.0
 10
88.08
 20
182.0
  0
LWPOLYLINE
  5
41
330
12
100
AcDbEntity
  8
0
100
AcDbPolyline
 90
     2
 10
88.08
 20
182.0
 10
88.08
 20
188.0
  0
LWPOLYLINE
  5
42
330
12
100
AcDbEntity
  8
0
100
AcDbPolyline
 90
     2
 10
83.08
 20
184.59
 10
84.08
 20
184.59
  0
LWPOLYLINE
  5
43
330
12
100
AcDbEntity
  8
0
100
AcDbPolyline
 90
     2
 10
86.08
 20
184.59
 10
87.08
 20
184.59
  0
LWPOLYLINE
  5
44
330
12
100
AcDbEntity
  8
0
100
AcDbPolyline
 90
     2
 10
84.08
 20
184.59
 10
86.08
 20
185.59
  0
LWPOLYLINE
  5
45
330
12
100
AcDbEntity
  8
0
100
AcDbPolyline
 90
     2
 10
84.29
 20
183.99
 10
85.77
 20
183.99
  0
LWPOLYLINE
  5
46
330
12
100
AcDbEntity
  8
0
100
AcDbPolyline
 90
     2
 10
84.8
 20
186.0
 10
86.26
 20
185.99
  0
LWPOLYLINE
  5
47
330
12
100
AcDbEntity
  8
0
100
AcDbPolyline
 90
     2
 10
148.0
 20
108.0
 10
140.0
 20
108.0
  0
LWPOLYLINE
  5
48
330
12
100
AcDbEntity
  8
0
100
AcDbPolyline
 90
     2
 10
144.0
 20
108.0
 10
144.0
 20
112.0
  0
CIRCLE
  5
49
330
12
100
AcDbEntity
  8
0
100
AcDbCircle
 10
144.0
 20
108.0
 30
0.0
 40
0.5
  0
LWPOLYLINE
  5
4A
330
12
100
AcDbEntity
  8
0
100
AcDbPolyline
 90
     2
 10
70.08
 20
131.77
 10
70.08
 20
135.86
  0
LWPOLYLINE
  5
4B
330
12
100
AcDbEntity
  8
0
100
AcDbPolyline
 90
     2
 10
69.06
 20
130.13
 10
71.1
 20
130.13
  0
LWPOLYLINE
  5
4C
330
12
100
AcDbEntity
  8
0
100
AcDbPolyline
 90
     2
 10
71.1
 20
130.13
 10
70.08
 20
131.77
  0
LWPOLYLINE
  5
4D
330
12
100
AcDbEntity
  8
0
100
AcDbPolyline
 90
     2
 10
69.06
 20
130.13
 10
70.08
 20
131.77
  0
LWPOLYLINE
  5
4E
330
12
100
AcDbEntity
  8
0
100
AcDbPolyline
 90
     2
 10
69.57
 20
129.72
 10
70.59
 20
129.72
  0
MTEXT
  5
4F
330
12
100
AcDbEntity
  8
1-texts
100
AcDbMText
 10
38.35
 20
124.36
 30
0.0
 40
1.536
 41
0.0
 71
     5
 72
     1
  1
1
 50
0.0
  0
MTEXT
  5
50
330
12
100
AcDbEntity
  8
1-texts
100
AcDbMText
 10
38.35
 20
137.36
 30
0.0
 40
1.536
 41
0.0
 71
     5
 72
     1
  1
2
 50
0.0
  0
MTEXT
  5
51
330
12
100
AcDbEntity
  8
1-texts
100
AcDbMText
 10
42.35
 20
124.36
 30
0.0
 40
1.536
 41
0.0
 71
     5
 72
     1
  1
3
 50
0.0
  0
LWPOLYLINE
  5
52
330
12
100
AcDbEntity
  8
0
100
AcDbPolyline
 90
     2
 10
38.0
 20
127.0
 10
46.0
 20
127.0
  0
LWPOLYLINE
  5
53
330
12
100
AcDbEntity
  8
0
100
AcDbPolyline
 90
     2
 10
38.0
 20
127.0
 10
38.0
 20
135.0
  0
LWPOLYLINE
  5
54
330
12
100
AcDbEntity
  8
0
100
AcDbPolyline
 90
     2
 10
38.0
 20
135.0
 10
46.0
 20
135.0
  0
LWPOLYLINE
  5
55
330
12
100
AcDbEntity
  8
0
100
AcDbPolyline
 90
     2
 10
46.0
 20
127.0
 10
46.0
 20
135.0
  0
LWPOLYLINE
  5
56
330
12
100
AcDbEntity
  8
0
100
AcDbPolyline
 90
     2
 10
40.0
 20
139.0
 10
40.0
 20
135.0
  0
LWPOLYLINE
  5
57
330
12
100
AcDbEntity
  8
0
100
AcDbPolyline
 90
     2
 10
40.0
 20
127.0
 10
40.0
 20
123.0
  0
LWPOLYLINE
  5
58
330
12
100
AcDbEntity
  8
0
100
AcDbPolyline
 90
     2
 10
30.0
 20
127.0
 10
38.0
 20
127.0
  0
LWPOLYLINE
  5
59
330
12
100
AcDbEntity
  8
0
100
AcDbPolyline
 90
     2
 10
30.0
 20
127.0
 10
30.0
 20
135.0
  0
LWPOLYLINE
  5
5A
330
12
100
AcDbEntity
  8
0
100
AcDbPolyline
 90
     2
 10
30.0
 20
135.0
 10
38.0
 20
135.0
  0
LWPOLYLINE
  5
5B
330
12
100
AcDbEntity
  8
0
100
AcDbPolyline
 90
     2
 10
38.0
 20
127.0
 10
38.0
 20
135.0
  0
LWPOLYLINE
  5
5C
330
12
100
AcDbEntity
  8
0
100
AcDbPolyline
 90
     2
 10
40.0
 20
129.0
 10
40.0
 20
127.0
  0
LWPOLYLINE
  5
5D
330
12
100
AcDbEntity
  8
0
100
AcDbPolyline
 90
     2
 10
39.0
 20
129.0
 10
41.0
 20
129.0
  0
LWPOLYLINE
  5
5E
330
12
100
AcDbEntity
  8
0
100
AcDbPolyline
 90
     2
 10
36.0
 20
129.0
 10
36.0
 20
127.0
  0
LWPOLYLINE
  5
5F
330
12
100
AcDbEntity
  8
0
100
AcDbPolyline
 90
     2
 10
35.0
 20
129.0
 10
37.0
 20
129.0
  0
LWPOLYLINE
  5
60
330
12
100
AcDbEntity
  8
0
100
AcDbPolyline
 90
     2
 10
32.0
 20
127.0
 10
32.0
 20
135.0
  0
LWPOLYLINE
  5
61
330
12
100
AcDbEntity
  8
0
100
AcDbPolyline
 90
     4
 70
     1
 10
32.0
 20
135.0
 10
32.5
 20
133.0
 10
31.5
 20
133.0
 10
32.0
 20
135.0
  0
LWPOLYLINE
  5
62
330
12
100
AcDbEntity
  8
0
100
AcDbPolyline
 90
     2
 10
31.0
 20
131.5
 10
31.0
 20
130.5
  0
LWPOLYLINE
  5
63
330
12
100
AcDbEntity
  8
0
100
AcDbPolyline
 90
     2
 10
33.0
 20
131.5
 10
33.0
 20
130.5
  0
LWPOLYLINE
  5
64
330
12
100
AcDbEntity
  8
0
100
AcDbPolyline
 90
     2
 10
43.0
 20
129.11
 10
42.0
 20
131.07
  0
LWPOLYLINE
  5
65
330
12
100
AcDbEntity
  8
0
100
AcDbPolyline
 90
     2
 10
42.0
 20
131.07
 10
41.0
 20
133.03
  0
LWPOLYLINE
  5
66
330
12
100
AcDbEntity
  8
0
100
AcDbPolyline
 90
     2
 10
41.0
 20
133.03
 10
40.0
 20
135.0
  0
LWPOLYLINE
  5
67
330
12
100
AcDbEntity
  8
0
100
AcDbPolyline
 90
     4
 70
     1
 10
44.0
 20
127.14
 10
42.57
 20
128.82
 10
43.43
 20
129.39
 10
44.0
 20
127.14
  0
LWPOLYLINE
  5
68
330
12
100
AcDbEntity
  8
0
100
AcDbPolyline
 90
     2
 10
46.0
 20
129.0
 10
46.42
 20
131.0
  0
LWPOLYLINE
  5
69
330
12
100
AcDbEntity
  8
0
100
AcDbPolyline
 90
     2
 10
48.08
 20
131.0
 10
48.92
 20
127.0
  0
LWPOLYLINE
  5
6A
330
12
100
AcDbEntity
  8
0
100
AcDbPolyline
 90
     2
 10
47.25
 20
127.0
 10
48.08
 20
131.0
  0
LWPOLYLINE
  5
6B
330
12
100
AcDbEntity
  8
0
100
AcDbPolyline
 90
     2
 10
46.42
 20
131.0
 10
47.25
 20
127.0
  0
LWPOLYLINE
  5
6C
330
12
100
AcDbEntity
  8
0
100
AcDbPolyline
 90
     2
 10
50.58
 20
127.0
 10
51.0
 20
129.0
  0
LWPOLYLINE
  5
6D
330
12
100
AcDbEntity
  8
0
100
AcDbPolyline
 90
     2
 10
49.75
 20
131.0
 10
50.58
 20
127.0
  0
LWPOLYLINE
  5
6E
330
12
100
AcDbEntity
  8
0
100
AcDbPolyline
 90
     2
 10
48.92
 20
127.0
 10
49.75
 20
131.0
  0
LWPOLYLINE
  5
6F
330
12
100
AcDbEntity
  8
0
100
AcDbPolyline
 90
     2
 10
43.0
 20
127.0
 10
45.0
 20
127.0
  0
LWPOLYLINE
  5
70
330
12
100
AcDbEntity
  8
0
100
AcDbPolyline
 90
     2
 10
45.0
 20
127.0
 10
44.0
 20
125.67
  0
LWPOLYLINE
  5
71
330
12
100
AcDbEntity
  8
0
100
AcDbPolyline
 90
     2
 10
44.0
 20
125.67
 10
43.0
 20
127.0
  0
LWPOLYLINE
  5
72
330
12
100
AcDbEntity
  8
0
100
AcDbPolyline
 90
     2
 10
43.0
 20
125.0
 10
45.0
 20
125.0
  0
LWPOLYLINE
  5
73
330
12
100
AcDbEntity
  8
0
100
AcDbPolyline
 90
     2
 10
24.0
 20
128.0
 10
30.0
 20
128.0
  0
LWPOLYLINE
  5
74
330
12
100
AcDbEntity
  8
0
100
AcDbPolyline
 90
     2
 10
30.0
 20
130.0
 10
24.0
 20
130.0
  0
LWPOLYLINE
  5
75
330
12
100
AcDbEntity
  8
0
100
AcDbPolyline
 90
     2
 10
30.0
 20
131.0
 10
30.0
 20
127.0
  0
CIRCLE
  5
76
330
12
100
AcDbEntity
  8
0
100
AcDbCircle
 10
24.0
 20
129.0
 30
0.0
 40
1.3333334
  0
CIRCLE
  5
77
330
12
100
AcDbEntity
  8
0
100
AcDbCircle
 10
24.0
 20
129.0
 30
0.0
 40
0.22222223
  0
LWPOLYLINE
  5
78
330
12
100
AcDbEntity
  8
0
100
AcDbPolyline
 90
     2
 10
23.33
 20
129.22
 10
23.33
 20
128.78
  0
LWPOLYLINE
  5
79
330
12
100
AcDbEntity
  8
0
100
AcDbPolyline
 90
     2
 10
24.67
 20
129.22
 10
24.67
 20
128.78
  0
LWPOLYLINE
  5
7A
330
12
100
AcDbEntity
  8
0
100
AcDbPolyline
 90
     2
 10
23.78
 20
129.67
 10
24.22
 20
129.67
  0
LWPOLYLINE
  5
7B
330
12
100
AcDbEntity
  8
0
100
AcDbPolyline
 90
     2
 10
23.78
 20
128.33
 10
24.22
 20
128.33
  0
LWPOLYLINE
  5
7C
330
12
100
AcDbEntity
  8
0
100
AcDbPolyline
 90
     2
 10
23.33
 20
127.0
 10
24.67
 20
127.0
  0
LWPOLYLINE
  5
7D
330
12
100
AcDbEntity
  8
0
100
AcDbPolyline
 90
     2
 10
23.33
 20
131.0
 10
24.67
 20
131.0
  0
LWPOLYLINE
  5
7E
330
12
100
AcDbEntity
  8
0
100
AcDbPolyline
 90
     2
 10
26.0
 20
128.33
 10
26.0
 20
129.67
  0
LWPOLYLINE
  5
7F
330
12
100
AcDbEntity
  8
0
100
AcDbPolyline
 90
     2
 10
22.0
 20
128.33
 10
22.0
 20
129.67
  0
SPLINE
  5
80
330
12
100
AcDbEntity
  8
0
100
AcDbSpline
210
0.0
220
0.0
230
1.0
 70
    12
 71
     3
 72
     8
 73
     4
 40
0.0
 40
0.0
 40
0.0
 40
0.0
 40
1.0
 40
1.0
 40
1.0
 40
1.0
 10
62.45
 20
160.7
 30
0.0
 41
1.0
 10
61.5
 20
161.41
 30
0.0
 41
1.0
 10
61.5
 20
164.24
 30
0.0
 41
1.0
 10
62.45
 20
164.93
 30
0.0
 41
1.0
  0
LWPOLYLINE
  5
81
330
12
100
AcDbEntity
  8
0
100
AcDbPolyline
 90
     2
 10
62.44
 20
163.53
 10
62.44
 20
162.12
  0
LWPOLYLINE
  5
82
330
12
100
AcDbEntity
  8
0
100
AcDbPolyline
 90
     2
 10
61.02
 20
163.53
 10
61.02
 20
162.12
  0
SPLINE
  5
83
330
12
100
AcDbEntity
  8
0
100
AcDbSpline
210
0.0
220
0.0
230
1.0
 70
    12
 71
     3
 72
     8
 73
     4
 40
0.0
 40
0.0
 40
0.0
 40
0.0
 40
1.0
 40
1.0
 40
1.0
 40
1.0
 10
59.62
 20
164.93
 30
0.0
 41
1.0
 10
60.57
 20
164.22
 30
0.0
 41
1.0
 10
60.57
 20
161.4
 30
0.0
 41
1.0
 10
59.62
 20
160.7
 30
0.0
 41
1.0
  0
LWPOLYLINE
  5
84
330
12
100
AcDbEntity
  8
0
100
AcDbPolyline
 90
     2
 10
59.63
 20
162.1
 10
59.63
 20
163.52
  0
LWPOLYLINE
  5
85
330
12
100
AcDbEntity
  8
0
100
AcDbPolyline
 90
     2
 10
61.05
 20
162.1
 10
61.05
 20
163.52
  0
LWPOLYLINE
  5
86
330
12
100
AcDbEntity
  8
0
100
AcDbPolyline
 90
     2
 10
61.02
 20
164.94
 10
61.02
 20
167.76
  0
LWPOLYLINE
  5
87
330
12
100
AcDbEntity
  8
0
100
AcDbPolyline
 90
     2
 10
61.02
 20
164.94
 10
61.02
 20
160.71
  0
LWPOLYLINE
  5
88
330
12
100
AcDbEntity
  8
0
100
AcDbPolyline
 90
     2
 10
61.02
 20
160.71
 10
61.02
 20
157.88
  0
LWPOLYLINE
  5
89
330
12
100
AcDbEntity
  8
0
100
AcDbPolyline
 90
     2
 10
61.02
 20
167.06
 10
65.96
 20
167.06
  0
LWPOLYLINE
  5
8A
330
12
100
AcDbEntity
  8
0
100
AcDbPolyline
 90
     2
 10
61.02
 20
158.59
 10
65.96
 20
158.59
  0
LWPOLYLINE
  5
8B
330
12
100
AcDbEntity
  8
0
100
AcDbPolyline
 90
     2
 10
65.96
 20
167.06
 10
65.96
 20
163.53
  0
LWPOLYLINE
  5
8C
330
12
100
AcDbEntity
  8
0
100
AcDbPolyline
 90
     2
 10
65.96
 20
162.12
 10
65.96
 20
159.29
  0
CIRCLE
  5
8D
330
12
100
AcDbEntity
  8
0
100
AcDbCircle
 10
65.96
 20
163.18
 30
0.0
 40
0.70588235
  0
LWPOLYLINE
  5
8E
330
12
100
AcDbEntity
  8
0
100
AcDbPolyline
 90
     2
 10
65.96
 20
162.12
 10
64.55
 20
163.53
  0
LWPOLYLINE
  5
8F
330
12
100
AcDbEntity
  8
0
100
AcDbPolyline
 90
     2
 10
65.96
 20
162.12
 10
67.37
 20
163.53
  0
LWPOLYLINE
  5
90
330
12
100
AcDbEntity
  8
0
100
AcDbPolyline
 90
     2
 10
65.61
 20
164.24
 10
66.32
 20
164.24
  0
LWPOLYLINE
  5
91
330
12
100
AcDbEntity
  8
0
100
AcDbPolyline
 90
     2
 10
65.61
 20
161.41
 10
66.32
 20
161.41
  0
LWPOLYLINE
  5
92
330
12
100
AcDbEntity
  8
0
100
AcDbPolyline
 90
     2
 10
65.96
 20
159.29
 10
65.96
 20
158.59
  0
LWPOLYLINE
  5
93
330
12
100
AcDbEntity
  8
0
100
AcDbPolyline
 90
     2
 10
58.2
 20
168.47
 10
58.2
 20
157.18
  0
LWPOLYLINE
  5
94
330
12
100
AcDbEntity
  8
0
100
AcDbPolyline
 90
     2
 10
68.08
 20
168.47
 10
68.08
 20
157.18
  0
LWPOLYLINE
  5
95
330
12
100
AcDbEntity
  8
0
100
AcDbPolyline
 90
     2
 10
61.02
 20
167.76
 10
61.02
 20
168.47
  0
LWPOLYLINE
  5
96
330
12
100
AcDbEntity
  8
0
100
AcDbPolyline
 90
     2
 10
61.02
 20
157.88
 10
61.02
 20
157.18
  0
LWPOLYLINE
  5
97
330
12
100
AcDbEntity
  8
0
100
AcDbPolyline
 90
     2
 10
58.2
 20
168.47
 10
68.08
 20
168.47
  0
LWPOLYLINE
  5
98
330
12
100
AcDbEntity
  8
0
100
AcDbPolyline
 90
     2
 10
58.2
 20
157.18
 10
68.08
 20
157.18
  0
LWPOLYLINE
  5
99
330
12
100
AcDbEntity
  8
0
100
AcDbPolyline
 90
     2
 10
61.02
 20
168.47
 10
61.02
 20
171.29
  0
LWPOLYLINE
  5
9A
330
12
100
AcDbEntity
  8
0
100
AcDbPolyline
 90
     2
 10
61.02
 20
154.35
 10
61.02
 20
157.18
  0
CIRCLE
  5
9B
330
12
100
AcDbEntity
  8
0
100
AcDbCircle
 10
61.02
 20
167.06
 30
0.0
 40
0.23529413
  0
LWPOLYLINE
  5
9C
330
12
100
AcDbEntity
  8
0
100
AcDbPolyline
 90
     2
 10
60.32
 20
167.29
 10
60.32
 20
166.82
  0
LWPOLYLINE
  5
9D
330
12
100
AcDbEntity
  8
0
100
AcDbPolyline
 90
     2
 10
61.73
 20
167.29
 10
61.73
 20
166.82
  0
LWPOLYLINE
  5
9E
330
12
100
AcDbEntity
  8
0
100
AcDbPolyline
 90
     2
 10
60.79
 20
167.76
 10
61.26
 20
167.76
  0
LWPOLYLINE
  5
9F
330
12
100
AcDbEntity
  8
0
100
AcDbPolyline
 90
     2
 10
60.79
 20
166.35
 10
61.26
 20
166.35
  0
CIRCLE
  5
A0
330
12
100
AcDbEntity
  8
0
100
AcDbCircle
 10
61.02
 20
158.59
 30
0.0
 40
0.23529413
  0
LWPOLYLINE
  5
A1
330
12
100
AcDbEntity
  8
0
100
AcDbPolyline
 90
     2
 10
60.32
 20
158.82
 10
60.32
 20
158.35
  0
LWPOLYLINE
  5
A2
330
12
100
AcDbEntity
  8
0
100
AcDbPolyline
 90
     2
 10
61.73
 20
158.82
 10
61.73
 20
158.35
  0
LWPOLYLINE
  5
A3
330
12
100
AcDbEntity
  8
0
100
AcDbPolyline
 90
     2
 10
60.79
 20
159.29
 10
61.26
 20
159.29
  0
LWPOLYLINE
  5
A4
330
12
100
AcDbEntity
  8
0
100
AcDbPolyline
 90
     2
 10
60.79
 20
157.88
 10
61.26
 20
157.88
  0
LWPOLYLINE
  5
A5
330
12
100
AcDbEntity
  8
0
100
AcDbPolyline
 90
     2
 10
62.61
 20
163.53
 10
61.37
 20
163.06
  0
LWPOLYLINE
  5
A6
330
12
100
AcDbEntity
  8
0
100
AcDbPolyline
 90
     2
 10
61.37
 20
163.06
 10
60.14
 20
162.59
  0
LWPOLYLINE
  5
A7
330
12
100
AcDbEntity
  8
0
100
AcDbPolyline
 90
     2
 10
60.14
 20
162.59
 10
58.91
 20
162.12
  0
LWPOLYLINE
  5
A8
330
12
100
AcDbEntity
  8
0
100
AcDbPolyline
 90
     4
 70
     1
 10
63.84
 20
164.0
 10
62.79
 20
163.33
 10
62.43
 20
163.73
 10
63.84
 20
164.0
  0
LWPOLYLINE
  5
A9
330
12
100
AcDbEntity
  8
0
100
AcDbPolyline
 90
     2
 10
60.32
 20
164.94
 10
61.73
 20
164.94
  0
MTEXT
  5
AA
330
12
100
AcDbEntity
  8
1-texts
100
AcDbMText
 10
59.15
 20
170.14
 30
0.0
 40
1.536
 41
0.0
 71
     5
 72
     1
  1
2
 50
0.0
  0
MTEXT
  5
AB
330
12
100
AcDbEntity
  8
1-texts
100
AcDbMText
 10
59.15
 20
155.31
 30
0.0
 40
1.536
 41
0.0
 71
     5
 72
     1
  1
1
 50
0.0
  0
SPLINE
  5
AC
330
12
100
AcDbEntity
  8
0
100
AcDbSpline
210
0.0
220
0.0
230
1.0
 70
    12
 71
     3
 72
     8
 73
     4
 40
0.0
 40
0.0
 40
0.0
 40
0.0
 40
1.0
 40
1.0
 40
1.0
 40
1.0
 10
78.51
 20
161.41
 30
0.0
 41
1.0
 10
77.56
 20
162.12
 30
0.0
 41
1.0
 10
77.56
 20
164.95
 30
0.0
 41
1.0
 10
78.51
 20
165.64
 30
0.0
 41
1.0
  0
LWPOLYLINE
  5
AD
330
12
100
AcDbEntity
  8
0
100
AcDbPolyline
 90
     2
 10
78.5
 20
164.24
 10
78.5
 20
162.83
  0
LWPOLYLINE
  5
AE
330
12
100
AcDbEntity
  8
0
100
AcDbPolyline
 90
     2
 10
77.08
 20
164.24
 10
77.08
 20
162.83
  0
SPLINE
  5
AF
330
12
100
AcDbEntity
  8
0
100
AcDbSpline
210
0.0
220
0.0
230
1.0
 70
    12
 71
     3
 72
     8
 73
     4
 40
0.0
 40
0.0
 40
0.0
 40
0.0
 40
1.0
 40
1.0
 40
1.0
 40
1.0
 10
75.68
 20
165.64
 30
0.0
 41
1.0
 10
76.63
 20
164.93
 30
0.0
 41
1.0
 10
76.63
 20
162.11
 30
0.0
 41
1.0
 10
75.68
 20
161.41
 30
0.0
 41
1.0
  0
LWPOLYLINE
  5
B0
330
12
100
AcDbEntity
  8
0
100
AcDbPolyline
 90
     2
 10
75.69
 20
162.81
 10
75.69
 20
164.23
  0
LWPOLYLINE
  5
B1
330
12
100
AcDbEntity
  8
0
100
AcDbPolyline
 90
     2
 10
77.11
 20
162.81
 10
77.11
 20
164.23
  0
LWPOLYLINE
  5
B2
330
12
100
AcDbEntity
  8
0
100
AcDbPolyline
 90
     2
 10
77.08
 20
165.65
 10
77.08
 20
168.47
  0
LWPOLYLINE
  5
B3
330
12
100
AcDbEntity
  8
0
100
AcDbPolyline
 90
     2
 10
77.08
 20
165.65
 10
77.08
 20
161.42
  0
LWPOLYLINE
  5
B4
330
12
100
AcDbEntity
  8
0
100
AcDbPolyline
 90
     2
 10
77.08
 20
161.42
 10
77.08
 20
158.59
  0
LWPOLYLINE
  5
B5
330
12
100
AcDbEntity
  8
0
100
AcDbPolyline
 90
     2
 10
77.08
 20
167.77
 10
82.02
 20
167.77
  0
LWPOLYLINE
  5
B6
330
12
100
AcDbEntity
  8
0
100
AcDbPolyline
 90
     2
 10
77.08
 20
159.3
 10
82.02
 20
159.3
  0
LWPOLYLINE
  5
B7
330
12
100
AcDbEntity
  8
0
100
AcDbPolyline
 90
     2
 10
82.02
 20
167.77
 10
82.02
 20
164.24
  0
LWPOLYLINE
  5
B8
330
12
100
AcDbEntity
  8
0
100
AcDbPolyline
 90
     2
 10
82.02
 20
162.83
 10
82.02
 20
160.0
  0
CIRCLE
  5
B9
330
12
100
AcDbEntity
  8
0
100
AcDbCircle
 10
82.02
 20
163.89
 30
0.0
 40
0.70588235
  0
LWPOLYLINE
  5
BA
330
12
100
AcDbEntity
  8
0
100
AcDbPolyline
 90
     2
 10
82.02
 20
162.83
 10
80.61
 20
164.24
  0
LWPOLYLINE
  5
BB
330
12
100
AcDbEntity
  8
0
100
AcDbPolyline
 90
     2
 10
82.02
 20
162.83
 10
83.43
 20
164.24
  0
LWPOLYLINE
  5
BC
330
12
100
AcDbEntity
  8
0
100
AcDbPolyline
 90
     2
 10
81.67
 20
164.95
 10
82.38
 20
164.95
  0
LWPOLYLINE
  5
BD
330
12
100
AcDbEntity
  8
0
100
AcDbPolyline
 90
     2
 10
81.67
 20
162.12
 10
82.38
 20
162.12
  0
LWPOLYLINE
  5
BE
330
12
100
AcDbEntity
  8
0
100
AcDbPolyline
 90
     2
 10
82.02
 20
160.0
 10
82.02
 20
159.3
  0
LWPOLYLINE
  5
BF
330
12
100
AcDbEntity
  8
0
100
AcDbPolyline
 90
     2
 10
74.26
 20
169.18
 10
74.26
 20
157.89
  0
LWPOLYLINE
  5
C0
330
12
100
AcDbEntity
  8
0
100
AcDbPolyline
 90
     2
 10
84.14
 20
169.18
 10
84.14
 20
157.89
  0
LWPOLYLINE
  5
C1
330
12
100
AcDbEntity
  8
0
100
AcDbPolyline
 90
     2
 10
77.08
 20
168.47
 10
77.08
 20
169.18
  0
LWPOLYLINE
  5
C2
330
12
100
AcDbEntity
  8
0
100
AcDbPolyline
 90
     2
 10
77.08
 20
158.59
 10
77.08
 20
157.89
  0
LWPOLYLINE
  5
C3
330
12
100
AcDbEntity
  8
0
100
AcDbPolyline
 90
     2
 10
74.26
 20
169.18
 10
84.14
 20
169.18
  0
LWPOLYLINE
  5
C4
330
12
100
AcDbEntity
  8
0
100
AcDbPolyline
 90
     2
 10
74.26
 20
157.89
 10
84.14
 20
157.89
  0
LWPOLYLINE
  5
C5
330
12
100
AcDbEntity
  8
0
100
AcDbPolyline
 90
     2
 10
77.08
 20
169.18
 10
77.08
 20
172.0
  0
LWPOLYLINE
  5
C6
330
12
100
AcDbEntity
  8
0
100
AcDbPolyline
 90
     2
 10
77.08
 20
155.06
 10
77.08
 20
157.89
  0
CIRCLE
  5
C7
330
12
100
AcDbEntity
  8
0
100
AcDbCircle
 10
77.08
 20
167.77
 30
0.0
 40
0.23529413
  0
LWPOLYLINE
  5
C8
330
12
100
AcDbEntity
  8
0
100
AcDbPolyline
 90
     2
 10
76.38
 20
168.0
 10
76.38
 20
167.53
  0
LWPOLYLINE
  5
C9
330
12
100
AcDbEntity
  8
0
100
AcDbPolyline
 90
     2
 10
77.79
 20
168.0
 10
77.79
 20
167.53
  0
LWPOLYLINE
  5
CA
330
12
100
AcDbEntity
  8
0
100
AcDbPolyline
 90
     2
 10
76.85
 20
168.47
 10
77.32
 20
168.47
  0
LWPOLYLINE
  5
CB
330
12
100
AcDbEntity
  8
0
100
AcDbPolyline
 90
     2
 10
76.85
 20
167.06
 10
77.32
 20
167.06
  0
CIRCLE
  5
CC
330
12
100
AcDbEntity
  8
0
100
AcDbCircle
 10
77.08
 20
159.3
 30
0.0
 40
0.23529413
  0
LWPOLYLINE
  5
CD
330
12
100
AcDbEntity
  8
0
100
AcDbPolyline
 90
     2
 10
76.38
 20
159.53
 10
76.38
 20
159.06
  0
LWPOLYLINE
  5
CE
330
12
100
AcDbEntity
  8
0
100
AcDbPolyline
 90
     2
 10
77.79
 20
159.53
 10
77.79
 20
159.06
  0
LWPOLYLINE
  5
CF
330
12
100
AcDbEntity
  8
0
100
AcDbPolyline
 90
     2
 10
76.85
 20
160.0
 10
77.32
 20
160.0
  0
LWPOLYLINE
  5
D0
330
12
100
AcDbEntity
  8
0
100
AcDbPolyline
 90
     2
 10
76.85
 20
158.59
 10
77.32
 20
158.59
  0
LWPOLYLINE
  5
D1
330
12
100
AcDbEntity
  8
0
100
AcDbPolyline
 90
     2
 10
78.67
 20
164.24
 10
77.43
 20
163.77
  0
LWPOLYLINE
  5
D2
330
12
100
AcDbEntity
  8
0
100
AcDbPolyline
 90
     2
 10
77.43
 20
163.77
 10
76.2
 20
163.3
  0
LWPOLYLINE
  5
D3
330
12
100
AcDbEntity
  8
0
100
AcDbPolyline
 90
     2
 10
76.2
 20
163.3
 10
74.97
 20
162.83
  0
LWPOLYLINE
  5
D4
330
12
100
AcDbEntity
  8
0
100
AcDbPolyline
 90
     4
 70
     1
 10
79.9
 20
164.71
 10
78.85
 20
164.04
 10
78.49
 20
164.44
 10
79.9
 20
164.71
  0
LWPOLYLINE
  5
D5
330
12
100
AcDbEntity
  8
0
100
AcDbPolyline
 90
     2
 10
76.38
 20
165.65
 10
77.79
 20
165.65
  0
MTEXT
  5
D6
330
12
100
AcDbEntity
  8
1-texts
100
AcDbMText
 10
75.21
 20
170.85
 30
0.0
 40
1.536
 41
0.0
 71
     5
 72
     1
  1
2
 50
0.0
  0
MTEXT
  5
D7
330
12
100
AcDbEntity
  8
1-texts
100
AcDbMText
 10
75.21
 20
156.02
 30
0.0
 40
1.536
 41
0.0
 71
     5
 72
     1
  1
1
 50
0.0
  0
MTEXT
  5
D8
330
12
100
AcDbEntity
  8
1-texts
100
AcDbMText
 10
68.35
 20
136.36
 30
0.0
 40
1.536
 41
0.0
 71
     5
 72
     1
  1
1
 50
0.0
  0
MTEXT
  5
D9
330
12
100
AcDbEntity
  8
1-texts
100
AcDbMText
 10
72.35
 20
136.36
 30
0.0
 40
1.536
 41
0.0
 71
     5
 72
     1
  1
3
 50
0.0
  0
MTEXT
  5
DA
330
12
100
AcDbEntity
  8
1-texts
100
AcDbMText
 10
64.35
 20
136.36
 30
0.0
 40
1.536
 41
0.0
 71
     5
 72
     1
  1
5
 50
0.0
  0
LWPOLYLINE
  5
DB
330
12
100
AcDbEntity
  8
0
100
AcDbPolyline
 90
     2
 10
52.0
 20
140.0
 10
64.0
 20
140.0
  0
LWPOLYLINE
  5
DC
330
12
100
AcDbEntity
  8
0
100
AcDbPolyline
 90
     2
 10
52.0
 20
140.0
 10
52.0
 20
148.0
  0
LWPOLYLINE
  5
DD
330
12
100
AcDbEntity
  8
0
100
AcDbPolyline
 90
     2
 10
52.0
 20
148.0
 10
64.0
 20
148.0
  0
LWPOLYLINE
  5
DE
330
12
100
AcDbEntity
  8
0
100
AcDbPolyline
 90
     2
 10
64.0
 20
140.0
 10
64.0
 20
148.0
  0
LWPOLYLINE
  5
DF
330
12
100
AcDbEntity
  8
0
100
AcDbPolyline
 90
     2
 10
74.0
 20
152.0
 10
74.0
 20
148.0
  0
LWPOLYLINE
  5
E0
330
12
100
AcDbEntity
  8
0
100
AcDbPolyline
 90
     2
 10
66.0
 20
152.0
 10
66.0
 20
148.0
  0
LWPOLYLINE
  5
E1
330
12
100
AcDbEntity
  8
0
100
AcDbPolyline
 90
     2
 10
66.0
 20
140.0
 10
66.0
 20
136.0
  0
LWPOLYLINE
  5
E2
330
12
100
AcDbEntity
  8
0
100
AcDbPolyline
 90
     2
 10
70.0
 20
140.0
 10
70.0
 20
136.0
  0
LWPOLYLINE
  5
E3
330
12
100
AcDbEntity
  8
0
100
AcDbPolyline
 90
     2
 10
74.0
 20
140.0
 10
74.0
 20
136.0
  0
LWPOLYLINE
  5
E4
330
12
100
AcDbEntity
  8
0
100
AcDbPolyline
 90
     2
 10
64.0
 20
140.0
 10
76.0
 20
140.0
  0
LWPOLYLINE
  5
E5
330
12
100
AcDbEntity
  8
0
100
AcDbPolyline
 90
     2
 10
64.0
 20
140.0
 10
64.0
 20
148.0
  0
LWPOLYLINE
  5
E6
330
12
100
AcDbEntity
  8
0
100
AcDbPolyline
 90
     2
 10
64.0
 20
148.0
 10
76.0
 20
148.0
  0
LWPOLYLINE
  5
E7
330
12
100
AcDbEntity
  8
0
100
AcDbPolyline
 90
     2
 10
76.0
 20
140.0
 10
76.0
 20
148.0
  0
LWPOLYLINE
  5
E8
330
12
100
AcDbEntity
  8
0
100
AcDbPolyline
 90
     2
 10
74.0
 20
142.0
 10
74.0
 20
140.0
  0
LWPOLYLINE
  5
E9
330
12
100
AcDbEntity
  8
0
100
AcDbPolyline
 90
     2
 10
73.0
 20
142.0
 10
75.0
 20
142.0
  0
LWPOLYLINE
  5
EA
330
12
100
AcDbEntity
  8
0
100
AcDbPolyline
 90
     2
 10
54.0
 20
142.0
 10
54.0
 20
140.0
  0
LWPOLYLINE
  5
EB
330
12
100
AcDbEntity
  8
0
100
AcDbPolyline
 90
     2
 10
53.0
 20
142.0
 10
55.0
 20
142.0
  0
MTEXT
  5
EC
330
12
100
AcDbEntity
  8
1-texts
100
AcDbMText
 10
72.35
 20
150.36
 30
0.0
 40
1.536
 41
0.0
 71
     5
 72
     1
  1
2
 50
0.0
  0
MTEXT
  5
ED
330
12
100
AcDbEntity
  8
1-texts
100
AcDbMText
 10
64.35
 20
150.36
 30
0.0
 40
1.536
 41
0.0
 71
     5
 72
     1
  1
4
 50
0.0
  0
LWPOLYLINE
  5
EE
330
12
100
AcDbEntity
  8
0
100
AcDbPolyline
 90
     2
 10
46.0
 20
144.0
 10
49.0
 20
142.0
  0
LWPOLYLINE
  5
EF
330
12
100
AcDbEntity
  8
0
100
AcDbPolyline
 90
     2
 10
49.0
 20
142.0
 10
46.0
 20
140.0
  0
LWPOLYLINE
  5
F0
330
12
100
AcDbEntity
  8
0
100
AcDbPolyline
 90
     2
 10
46.0
 20
144.0
 10
46.0
 20
140.0
  0
LWPOLYLINE
  5
F1
330
12
100
AcDbEntity
  8
0
  6
DOT
100
AcDbPolyline
 90
     2
 10
49.0
 20
142.0
 10
52.0
 20
142.0
  0
LWPOLYLINE
  5
F2
330
12
100
AcDbEntity
  8
0
  6
DOT
100
AcDbPolyline
 90
     2
 10
44.0
 20
142.0
 10
46.0
 20
142.0
  0
LWPOLYLINE
  5
F3
330
12
100
AcDbEntity
  8
0
100
AcDbPolyline
 90
     2
 10
66.0
 20
148.0
 10
66.0
 20
140.0
  0
LWPOLYLINE
  5
F4
330
12
100
AcDbEntity
  8
0
100
AcDbPolyline
 90
     4
 70
     1
 10
66.0
 20
140.0
 10
65.5
 20
142.0
 10
66.5
 20
142.0
 10
66.0
 20
140.0
  0
LWPOLYLINE
  5
F5
330
12
100
AcDbEntity
  8
0
100
AcDbPolyline
 90
     2
 10
67.0
 20
143.5
 10
67.0
 20
144.5
  0
LWPOLYLINE
  5
F6
330
12
100
AcDbEntity
  8
0
100
AcDbPolyline
 90
     2
 10
65.0
 20
143.5
 10
65.0
 20
144.5
  0
LWPOLYLINE
  5
F7
330
12
100
AcDbEntity
  8
0
100
AcDbPolyline
 90
     2
 10
73.0
 20
146.03
 10
72.0
 20
144.07
  0
LWPOLYLINE
  5
F8
330
12
100
AcDbEntity
  8
0
100
AcDbPolyline
 90
     2
 10
72.0
 20
144.07
 10
71.0
 20
142.11
  0
LWPOLYLINE
  5
F9
330
12
100
AcDbEntity
  8
0
100
AcDbPolyline
 90
     2
 10
71.0
 20
142.11
 10
70.0
 20
140.14
  0
LWPOLYLINE
  5
FA
330
12
100
AcDbEntity
  8
0
100
AcDbPolyline
 90
     4
 70
     1
 10
74.0
 20
148.0
 10
72.57
 20
146.32
 10
73.43
 20
145.75
 10
74.0
 20
148.0
  0
LWPOLYLINE
  5
FB
330
12
100
AcDbEntity
  8
0
100
AcDbPolyline
 90
     2
 10
62.0
 20
148.0
 10
62.0
 20
140.0
  0
LWPOLYLINE
  5
FC
330
12
100
AcDbEntity
  8
0
100
AcDbPolyline
 90
     4
 70
     1
 10
62.0
 20
140.0
 10
61.5
 20
142.0
 10
62.5
 20
142.0
 10
62.0
 20
140.0
  0
LWPOLYLINE
  5
FD
330
12
100
AcDbEntity
  8
0
100
AcDbPolyline
 90
     2
 10
63.0
 20
143.5
 10
63.0
 20
144.5
  0
LWPOLYLINE
  5
FE
330
12
100
AcDbEntity
  8
0
100
AcDbPolyline
 90
     2
 10
61.0
 20
143.5
 10
61.0
 20
144.5
  0
LWPOLYLINE
  5
FF
330
12
100
AcDbEntity
  8
0
100
AcDbPolyline
 90
     2
 10
55.0
 20
146.03
 10
56.0
 20
144.07
  0
LWPOLYLINE
  5
100
330
12
100
AcDbEntity
  8
0
100
AcDbPolyline
 90
     2
 10
56.0
 20
144.07
 10
57.0
 20
142.11
  0
LWPOLYLINE
  5
101
330
12
100
AcDbEntity
  8
0
100
AcDbPolyline
 90
     2
 10
57.0
 20
142.11
 10
58.0
 20
140.14
  0
LWPOLYLINE
  5
102
330
12
100
AcDbEntity
  8
0
100
AcDbPolyline
 90
     4
 70
     1
 10
54.0
 20
148.0
 10
55.43
 20
146.32
 10
54.57
 20
145.75
 10
54.0
 20
148.0
  0
MTEXT
  5
103
330
12
100
AcDbEntity
  8
1-texts
100
AcDbMText
 10
45.41
 20
146.36
 30
0.0
 40
1.536
 41
0.0
 71
     5
 72
     1
  1
14
 50
0.0
  0
LWPOLYLINE
  5
104
330
12
100
AcDbEntity
  8
0
100
AcDbPolyline
 90
     2
 10
82.0
 20
144.0
 10
79.0
 20
142.0
  0
LWPOLYLINE
  5
105
330
12
100
AcDbEntity
  8
0
100
AcDbPolyline
 90
     2
 10
79.0
 20
142.0
 10
82.0
 20
140.0
  0
LWPOLYLINE
  5
106
330
12
100
AcDbEntity
  8
0
100
AcDbPolyline
 90
     2
 10
82.0
 20
144.0
 10
82.0
 20
140.0
  0
LWPOLYLINE
  5
107
330
12
100
AcDbEntity
  8
0
  6
DOT
100
AcDbPolyline
 90
     2
 10
79.0
 20
142.0
 10
76.0
 20
142.0
  0
LWPOLYLINE
  5
108
330
12
100
AcDbEntity
  8
0
  6
DOT
100
AcDbPolyline
 90
     2
 10
84.0
 20
142.0
 10
82.0
 20
142.0
  0
MTEXT
  5
109
330
12
100
AcDbEntity
  8
1-texts
100
AcDbMText
 10
82.41
 20
146.36
 30
0.0
 40
1.536
 41
0.0
 71
     5
 72
     1
  1
12
 50
0.0
  0
LWPOLYLINE
  5
10A
330
12
100
AcDbEntity
  8
0
100
AcDbPolyline
 90
     2
 10
66.08
 20
150.0
 10
66.08
 20
150.0
  0
LWPOLYLINE
  5
10B
330
12
100
AcDbEntity
  8
3-links
100
AcDbPolyline
 90
     4
 10
61.02
 20
154.35
 10
63.55
 20
154.35
 10
63.55
 20
152.0
 10
66.0
 20
152.0
  0
LWPOLYLINE
  5
10C
330
12
100
AcDbEntity
  8
3-links
100
AcDbPolyline
 90
     4
 10
74.0
 20
152.0
 10
74.0
 20
153.03
 10
77.08
 20
153.03
 10
77.08
 20
155.06
  0
MTEXT
  5
10D
330
12
100
AcDbEntity
  8
1-texts
100
AcDbMText
 10
70.92
 20
187.71
 30
0.0
 40
2.118
 41
0.0
 71
     5
 72
     1
  1
A
 50
0.0
  0
MTEXT
  5
10E
330
12
100
AcDbEntity
  8
1-texts
100
AcDbMText
 10
96.92
 20
191.6
 30
0.0
 40
2.118
 41
0.0
 71
     5
 72
     1
  1
a1
 50
0.0
  0
MTEXT
  5
10F
330
12
100
AcDbEntity
  8
1-texts
100
AcDbMText
 10
84.84
 20
191.71
 30
0.0
 40
2.118
 41
0.0
 71
     5
 72
     1
  1
a0
 50
0.0
  0
MTEXT
  5
110
330
12
100
AcDbEntity
  8
1-texts
100
AcDbMText
 10
106.35
 20
85.36
 30
0.0
 40
1.536
 41
0.0
 71
     5
 72
     1
  1
1
 50
0.0
  0
MTEXT
  5
111
330
12
100
AcDbEntity
  8
1-texts
100
AcDbMText
 10
110.35
 20
85.36
 30
0.0
 40
1.536
 41
0.0
 71
     5
 72
     1
  1
3
 50
0.0
  0
MTEXT
  5
112
330
12
100
AcDbEntity
  8
1-texts
100
AcDbMText
 10
102.35
 20
85.36
 30
0.0
 40
1.536
 41
0.0
 71
     5
 72
     1
  1
5
 50
0.0
  0
LWPOLYLINE
  5
113
330
12
100
AcDbEntity
  8
0
100
AcDbPolyline
 90
     2
 10
90.0
 20
89.0
 10
102.0
 20
89.0
  0
LWPOLYLINE
  5
114
330
12
100
AcDbEntity
  8
0
100
AcDbPolyline
 90
     2
 10
90.0
 20
89.0
 10
90.0
 20
97.0
  0
LWPOLYLINE
  5
115
330
12
100
AcDbEntity
  8
0
100
AcDbPolyline
 90
     2
 10
90.0
 20
97.0
 10
102.0
 20
97.0
  0
LWPOLYLINE
  5
116
330
12
100
AcDbEntity
  8
0
100
AcDbPolyline
 90
     2
 10
102.0
 20
89.0
 10
102.0
 20
97.0
  0
LWPOLYLINE
  5
117
330
12
100
AcDbEntity
  8
0
100
AcDbPolyline
 90
     2
 10
112.0
 20
101.0
 10
112.0
 20
97.0
  0
LWPOLYLINE
  5
118
330
12
100
AcDbEntity
  8
0
100
AcDbPolyline
 90
     2
 10
104.0
 20
101.0
 10
104.0
 20
97.0
  0
LWPOLYLINE
  5
119
330
12
100
AcDbEntity
  8
0
100
AcDbPolyline
 90
     2
 10
104.0
 20
89.0
 10
104.0
 20
85.0
  0
LWPOLYLINE
  5
11A
330
12
100
AcDbEntity
  8
0
100
AcDbPolyline
 90
     2
 10
108.0
 20
89.0
 10
108.0
 20
85.0
  0
LWPOLYLINE
  5
11B
330
12
100
AcDbEntity
  8
0
100
AcDbPolyline
 90
     2
 10
112.0
 20
89.0
 10
112.0
 20
85.0
  0
LWPOLYLINE
  5
11C
330
12
100
AcDbEntity
  8
0
100
AcDbPolyline
 90
     2
 10
102.0
 20
89.0
 10
114.0
 20
89.0
  0
LWPOLYLINE
  5
11D
330
12
100
AcDbEntity
  8
0
100
AcDbPolyline
 90
     2
 10
102.0
 20
89.0
 10
102.0
 20
97.0
  0
LWPOLYLINE
  5
11E
330
12
100
AcDbEntity
  8
0
100
AcDbPolyline
 90
     2
 10
102.0
 20
97.0
 10
114.0
 20
97.0
  0
LWPOLYLINE
  5
11F
330
12
100
AcDbEntity
  8
0
100
AcDbPolyline
 90
     2
 10
114.0
 20
89.0
 10
114.0
 20
97.0
  0
LWPOLYLINE
  5
120
330
12
100
AcDbEntity
  8
0
100
AcDbPolyline
 90
     2
 10
112.0
 20
91.0
 10
112.0
 20
89.0
  0
LWPOLYLINE
  5
121
330
12
100
AcDbEntity
  8
0
100
AcDbPolyline
 90
     2
 10
111.0
 20
91.0
 10
113.0
 20
91.0
  0
LWPOLYLINE
  5
122
330
12
100
AcDbEntity
  8
0
100
AcDbPolyline
 90
     2
 10
92.0
 20
91.0
 10
92.0
 20
89.0
  0
LWPOLYLINE
  5
123
330
12
100
AcDbEntity
  8
0
100
AcDbPolyline
 90
     2
 10
91.0
 20
91.0
 10
93.0
 20
91.0
  0
MTEXT
  5
124
330
12
100
AcDbEntity
  8
1-texts
100
AcDbMText
 10
110.35
 20
99.36
 30
0.0
 40
1.536
 41
0.0
 71
     5
 72
     1
  1
2
 50
0.0
  0
MTEXT
  5
125
330
12
100
AcDbEntity
  8
1-texts
100
AcDbMText
 10
102.35
 20
99.36
 30
0.0
 40
1.536
 41
0.0
 71
     5
 72
     1
  1
4
 50
0.0
  0
LWPOLYLINE
  5
126
330
12
100
AcDbEntity
  8
0
100
AcDbPolyline
 90
     2
 10
84.0
 20
93.0
 10
87.0
 20
91.0
  0
LWPOLYLINE
  5
127
330
12
100
AcDbEntity
  8
0
100
AcDbPolyline
 90
     2
 10
87.0
 20
91.0
 10
84.0
 20
89.0
  0
LWPOLYLINE
  5
128
330
12
100
AcDbEntity
  8
0
100
AcDbPolyline
 90
     2
 10
84.0
 20
93.0
 10
84.0
 20
89.0
  0
LWPOLYLINE
  5
129
330
12
100
AcDbEntity
  8
0
  6
DOT
100
AcDbPolyline
 90
     2
 10
87.0
 20
91.0
 10
90.0
 20
91.0
  0
LWPOLYLINE
  5
12A
330
12
100
AcDbEntity
  8
0
  6
DOT
100
AcDbPolyline
 90
     2
 10
82.0
 20
91.0
 10
84.0
 20
91.0
  0
LWPOLYLINE
  5
12B
330
12
100
AcDbEntity
  8
0
100
AcDbPolyline
 90
     2
 10
104.0
 20
97.0
 10
104.0
 20
89.0
  0
LWPOLYLINE
  5
12C
330
12
100
AcDbEntity
  8
0
100
AcDbPolyline
 90
     4
 70
     1
 10
104.0
 20
89.0
 10
103.5
 20
91.0
 10
104.5
 20
91.0
 10
104.0
 20
89.0
  0
LWPOLYLINE
  5
12D
330
12
100
AcDbEntity
  8
0
100
AcDbPolyline
 90
     2
 10
105.0
 20
92.5
 10
105.0
 20
93.5
  0
LWPOLYLINE
  5
12E
330
12
100
AcDbEntity
  8
0
100
AcDbPolyline
 90
     2
 10
103.0
 20
92.5
 10
103.0
 20
93.5
  0
LWPOLYLINE
  5
12F
330
12
100
AcDbEntity
  8
0
100
AcDbPolyline
 90
     2
 10
111.0
 20
95.03
 10
110.0
 20
93.07
  0
LWPOLYLINE
  5
130
330
12
100
AcDbEntity
  8
0
100
AcDbPolyline
 90
     2
 10
110.0
 20
93.07
 10
109.0
 20
91.11
  0
LWPOLYLINE
  5
131
330
12
100
AcDbEntity
  8
0
100
AcDbPolyline
 90
     2
 10
109.0
 20
91.11
 10
108.0
 20
89.14
  0
LWPOLYLINE
  5
132
330
12
100
AcDbEntity
  8
0
100
AcDbPolyline
 90
     4
 70
     1
 10
112.0
 20
97.0
 10
110.57
 20
95.32
 10
111.43
 20
94.75
 10
112.0
 20
97.0
  0
LWPOLYLINE
  5
133
330
12
100
AcDbEntity
  8
0
100
AcDbPolyline
 90
     2
 10
100.0
 20
97.0
 10
100.0
 20
89.0
  0
LWPOLYLINE
  5
134
330
12
100
AcDbEntity
  8
0
100
AcDbPolyline
 90
     4
 70
     1
 10
100.0
 20
89.0
 10
99.5
 20
91.0
 10
100.5
 20
91.0
 10
100.0
 20
89.0
  0
LWPOLYLINE
  5
135
330
12
100
AcDbEntity
  8
0
100
AcDbPolyline
 90
     2
 10
101.0
 20
92.5
 10
101.0
 20
93.5
  0
LWPOLYLINE
  5
136
330
12
100
AcDbEntity
  8
0
100
AcDbPolyline
 90
     2
 10
99.0
 20
92.5
 10
99.0
 20
93.5
  0
LWPOLYLINE
  5
137
330
12
100
AcDbEntity
  8
0
100
AcDbPolyline
 90
     2
 10
93.0
 20
95.03
 10
94.0
 20
93.07
  0
LWPOLYLINE
  5
138
330
12
100
AcDbEntity
  8
0
100
AcDbPolyline
 90
     2
 10
94.0
 20
93.07
 10
95.0
 20
91.11
  0
LWPOLYLINE
  5
139
330
12
100
AcDbEntity
  8
0
100
AcDbPolyline
 90
     2
 10
95.0
 20
91.11
 10
96.0
 20
89.14
  0
LWPOLYLINE
  5
13A
330
12
100
AcDbEntity
  8
0
100
AcDbPolyline
 90
     4
 70
     1
 10
92.0
 20
97.0
 10
93.43
 20
95.32
 10
92.57
 20
94.75
 10
92.0
 20
97.0
  0
MTEXT
  5
13B
330
12
100
AcDbEntity
  8
1-texts
100
AcDbMText
 10
83.41
 20
95.36
 30
0.0
 40
1.536
 41
0.0
 71
     5
 72
     1
  1
14
 50
0.0
  0
LWPOLYLINE
  5
13C
330
12
100
AcDbEntity
  8
0
100
AcDbPolyline
 90
     2
 10
120.0
 20
93.0
 10
117.0
 20
91.0
  0
LWPOLYLINE
  5
13D
330
12
100
AcDbEntity
  8
0
100
AcDbPolyline
 90
     2
 10
117.0
 20
91.0
 10
120.0
 20
89.0
  0
LWPOLYLINE
  5
13E
330
12
100
AcDbEntity
  8
0
100
AcDbPolyline
 90
     2
 10
120.0
 20
93.0
 10
120.0
 20
89.0
  0
LWPOLYLINE
  5
13F
330
12
100
AcDbEntity
  8
0
  6
DOT
100
AcDbPolyline
 90
     2
 10
117.0
 20
91.0
 10
114.0
 20
91.0
  0
LWPOLYLINE
  5
140
330
12
100
AcDbEntity
  8
0
  6
DOT
100
AcDbPolyline
 90
     2
 10
122.0
 20
91.0
 10
120.0
 20
91.0
  0
MTEXT
  5
141
330
12
100
AcDbEntity
  8
1-texts
100
AcDbMText
 10
120.41
 20
95.36
 30
0.0
 40
1.536
 41
0.0
 71
     5
 72
     1
  1
12
 50
0.0
  0
MTEXT
  5
142
330
12
100
AcDbEntity
  8
1-texts
100
AcDbMText
 10
38.84
 20
145.71
 30
0.0
 40
2.118
 41
0.0
 71
     5
 72
     1
  1
A+
 50
0.0
  0
MTEXT
  5
143
330
12
100
AcDbEntity
  8
1-texts
100
AcDbMText
 10
88.84
 20
145.6
 30
0.0
 40
2.118
 41
0.0
 71
     5
 72
     1
  1
A-
 50
0.0
  0
LWPOLYLINE
  5
144
330
12
100
AcDbEntity
  8
3-links
100
AcDbPolyline
 90
     4
 10
40.0
 20
139.0
 10
40.0
 20
139.0
 10
40.0
 20
142.0
 10
44.0
 20
142.0
  0
LWPOLYLINE
  5
145
330
12
100
AcDbEntity
  8
0
100
AcDbPolyline
 90
     2
 10
121.08
 20
176.0
 10
121.08
 20
172.0
  0
LWPOLYLINE
  5
146
330
12
100
AcDbEntity
  8
0
100
AcDbPolyline
 90
     2
 10
137.08
 20
176.0
 10
137.08
 20
172.0
  0
LWPOLYLINE
  5
147
330
12
100
AcDbEntity
  8
0
100
AcDbPolyline
 90
     2
 10
120.08
 20
184.0
 10
120.08
 20
176.0
  0
LWPOLYLINE
  5
148
330
12
100
AcDbEntity
  8
0
100
AcDbPolyline
 90
     2
 10
120.08
 20
184.0
 10
138.08
 20
184.0
  0
LWPOLYLINE
  5
149
330
12
100
AcDbEntity
  8
0
100
AcDbPolyline
 90
     2
 10
138.08
 20
184.0
 10
138.08
 20
181.0
  0
LWPOLYLINE
  5
14A
330
12
100
AcDbEntity
  8
0
100
AcDbPolyline
 90
     2
 10
138.08
 20
179.0
 10
138.08
 20
176.0
  0
LWPOLYLINE
  5
14B
330
12
100
AcDbEntity
  8
0
100
AcDbPolyline
 90
     2
 10
120.08
 20
176.0
 10
138.08
 20
176.0
  0
LWPOLYLINE
  5
14C
330
12
100
AcDbEntity
  8
0
100
AcDbPolyline
 90
     2
 10
144.08
 20
181.0
 10
144.08
 20
179.0
  0
LWPOLYLINE
  5
14D
330
12
100
AcDbEntity
  8
0
100
AcDbPolyline
 90
     2
 10
144.08
 20
181.0
 10
126.08
 20
181.0
  0
LWPOLYLINE
  5
14E
330
12
100
AcDbEntity
  8
0
100
AcDbPolyline
 90
     2
 10
144.08
 20
179.0
 10
126.08
 20
179.0
  0
LWPOLYLINE
  5
14F
330
12
100
AcDbEntity
  8
0
100
AcDbPolyline
 90
     2
 10
122.08
 20
176.0
 10
126.08
 20
176.0
  0
LWPOLYLINE
  5
150
330
12
100
AcDbEntity
  8
0
100
AcDbPolyline
 90
     2
 10
122.08
 20
184.0
 10
126.08
 20
184.0
  0
LWPOLYLINE
  5
151
330
12
100
AcDbEntity
  8
0
100
AcDbPolyline
 90
     2
 10
122.08
 20
184.0
 10
122.08
 20
176.0
  0
LWPOLYLINE
  5
152
330
12
100
AcDbEntity
  8
0
100
AcDbPolyline
 90
     2
 10
126.08
 20
184.0
 10
126.08
 20
176.0
  0
LWPOLYLINE
  5
153
330
12
100
AcDbEntity
  8
0
100
AcDbPolyline
 90
     2
 10
154.08
 20
182.0
 10
154.08
 20
188.0
  0
LWPOLYLINE
  5
154
330
12
100
AcDbEntity
  8
0
100
AcDbPolyline
 90
     2
 10
154.08
 20
188.0
 10
160.08
 20
188.0
  0
LWPOLYLINE
  5
155
330
12
100
AcDbEntity
  8
0
100
AcDbPolyline
 90
     2
 10
154.08
 20
182.0
 10
160.08
 20
182.0
  0
LWPOLYLINE
  5
156
330
12
100
AcDbEntity
  8
0
100
AcDbPolyline
 90
     2
 10
160.08
 20
182.0
 10
160.08
 20
188.0
  0
LWPOLYLINE
  5
157
330
12
100
AcDbEntity
  8
0
100
AcDbPolyline
 90
     2
 10
155.08
 20
184.59
 10
156.08
 20
184.59
  0
LWPOLYLINE
  5
158
330
12
100
AcDbEntity
  8
0
100
AcDbPolyline
 90
     2
 10
158.08
 20
184.59
 10
159.08
 20
184.59
  0
LWPOLYLINE
  5
159
330
12
100
AcDbEntity
  8
0
100
AcDbPolyline
 90
     2
 10
156.08
 20
184.59
 10
158.08
 20
185.59
  0
LWPOLYLINE
  5
15A
330
12
100
AcDbEntity
  8
0
100
AcDbPolyline
 90
     2
 10
156.29
 20
183.99
 10
157.77
 20
183.99
  0
LWPOLYLINE
  5
15B
330
12
100
AcDbEntity
  8
0
100
AcDbPolyline
 90
     2
 10
156.8
 20
186.0
 10
158.26
 20
185.99
  0
LWPOLYLINE
  5
15C
330
12
100
AcDbEntity
  8
0
100
AcDbPolyline
 90
     2
 10
142.08
 20
182.0
 10
142.08
 20
188.0
  0
LWPOLYLINE
  5
15D
330
12
100
AcDbEntity
  8
0
100
AcDbPolyline
 90
     2
 10
142.08
 20
188.0
 10
148.08
 20
188.0
  0
LWPOLYLINE
  5
15E
330
12
100
AcDbEntity
  8
0
100
AcDbPolyline
 90
     2
 10
142.08
 20
182.0
 10
148.08
 20
182.0
  0
LWPOLYLINE
  5
15F
330
12
100
AcDbEntity
  8
0
100
AcDbPolyline
 90
     2
 10
148.08
 20
182.0
 10
148.08
 20
188.0
  0
LWPOLYLINE
  5
160
330
12
100
AcDbEntity
  8
0
100
AcDbPolyline
 90
     2
 10
143.08
 20
184.59
 10
144.08
 20
184.59
  0
LWPOLYLINE
  5
161
330
12
100
AcDbEntity
  8
0
100
AcDbPolyline
 90
     2
 10
146.08
 20
184.59
 10
147.08
 20
184.59
  0
LWPOLYLINE
  5
162
330
12
100
AcDbEntity
  8
0
100
AcDbPolyline
 90
     2
 10
144.08
 20
184.59
 10
146.08
 20
185.59
  0
LWPOLYLINE
  5
163
330
12
100
AcDbEntity
  8
0
100
AcDbPolyline
 90
     2
 10
144.29
 20
183.99
 10
145.77
 20
183.99
  0
LWPOLYLINE
  5
164
330
12
100
AcDbEntity
  8
0
100
AcDbPolyline
 90
     2
 10
144.8
 20
186.0
 10
146.26
 20
185.99
  0
LWPOLYLINE
  5
165
330
12
100
AcDbEntity
  8
0
100
AcDbPolyline
 90
     2
 10
130.08
 20
131.77
 10
130.08
 20
135.86
  0
LWPOLYLINE
  5
166
330
12
100
AcDbEntity
  8
0
100
AcDbPolyline
 90
     2
 10
129.06
 20
130.13
 10
131.1
 20
130.13
  0
LWPOLYLINE
  5
167
330
12
100
AcDbEntity
  8
0
100
AcDbPolyline
 90
     2
 10
131.1
 20
130.13
 10
130.08
 20
131.77
  0
LWPOLYLINE
  5
168
330
12
100
AcDbEntity
  8
0
100
AcDbPolyline
 90
     2
 10
129.06
 20
130.13
 10
130.08
 20
131.77
  0
LWPOLYLINE
  5
169
330
12
100
AcDbEntity
  8
0
100
AcDbPolyline
 90
     2
 10
129.57
 20
129.72
 10
130.59
 20
129.72
  0
MTEXT
  5
16A
330
12
100
AcDbEntity
  8
1-texts
100
AcDbMText
 10
142.35
 20
112.36
 30
0.0
 40
1.536
 41
0.0
 71
     5
 72
     1
  1
1
 50
0.0
  0
MTEXT
  5
16B
330
12
100
AcDbEntity
  8
1-texts
100
AcDbMText
 10
142.35
 20
125.36
 30
0.0
 40
1.536
 41
0.0
 71
     5
 72
     1
  1
2
 50
0.0
  0
MTEXT
  5
16C
330
12
100
AcDbEntity
  8
1-texts
100
AcDbMText
 10
146.35
 20
112.36
 30
0.0
 40
1.536
 41
0.0
 71
     5
 72
     1
  1
3
 50
0.0
  0
LWPOLYLINE
  5
16D
330
12
100
AcDbEntity
  8
0
100
AcDbPolyline
 90
     2
 10
142.0
 20
115.0
 10
150.0
 20
115.0
  0
LWPOLYLINE
  5
16E
330
12
100
AcDbEntity
  8
0
100
AcDbPolyline
 90
     2
 10
142.0
 20
115.0
 10
142.0
 20
123.0
  0
LWPOLYLINE
  5
16F
330
12
100
AcDbEntity
  8
0
100
AcDbPolyline
 90
     2
 10
142.0
 20
123.0
 10
150.0
 20
123.0
  0
LWPOLYLINE
  5
170
330
12
100
AcDbEntity
  8
0
100
AcDbPolyline
 90
     2
 10
150.0
 20
115.0
 10
150.0
 20
123.0
  0
LWPOLYLINE
  5
171
330
12
100
AcDbEntity
  8
0
100
AcDbPolyline
 90
     2
 10
144.0
 20
127.0
 10
144.0
 20
123.0
  0
LWPOLYLINE
  5
172
330
12
100
AcDbEntity
  8
0
100
AcDbPolyline
 90
     2
 10
144.0
 20
115.0
 10
144.0
 20
111.0
  0
LWPOLYLINE
  5
173
330
12
100
AcDbEntity
  8
0
100
AcDbPolyline
 90
     2
 10
134.0
 20
115.0
 10
142.0
 20
115.0
  0
LWPOLYLINE
  5
174
330
12
100
AcDbEntity
  8
0
100
AcDbPolyline
 90
     2
 10
134.0
 20
115.0
 10
134.0
 20
123.0
  0
LWPOLYLINE
  5
175
330
12
100
AcDbEntity
  8
0
100
AcDbPolyline
 90
     2
 10
134.0
 20
123.0
 10
142.0
 20
123.0
  0
LWPOLYLINE
  5
176
330
12
100
AcDbEntity
  8
0
100
AcDbPolyline
 90
     2
 10
142.0
 20
115.0
 10
142.0
 20
123.0
  0
LWPOLYLINE
  5
177
330
12
100
AcDbEntity
  8
0
100
AcDbPolyline
 90
     2
 10
144.0
 20
117.0
 10
144.0
 20
115.0
  0
LWPOLYLINE
  5
178
330
12
100
AcDbEntity
  8
0
100
AcDbPolyline
 90
     2
 10
143.0
 20
117.0
 10
145.0
 20
117.0
  0
LWPOLYLINE
  5
179
330
12
100
AcDbEntity
  8
0
100
AcDbPolyline
 90
     2
 10
140.0
 20
117.0
 10
140.0
 20
115.0
  0
LWPOLYLINE
  5
17A
330
12
100
AcDbEntity
  8
0
100
AcDbPolyline
 90
     2
 10
139.0
 20
117.0
 10
141.0
 20
117.0
  0
LWPOLYLINE
  5
17B
330
12
100
AcDbEntity
  8
0
100
AcDbPolyline
 90
     2
 10
136.0
 20
115.0
 10
136.0
 20
123.0
  0
LWPOLYLINE
  5
17C
330
12
100
AcDbEntity
  8
0
100
AcDbPolyline
 90
     4
 70
     1
 10
136.0
 20
123.0
 10
136.5
 20
121.0
 10
135.5
 20
121.0
 10
136.0
 20
123.0
  0
LWPOLYLINE
  5
17D
330
12
100
AcDbEntity
  8
0
100
AcDbPolyline
 90
     2
 10
135.0
 20
119.5
 10
135.0
 20
118.5
  0
LWPOLYLINE
  5
17E
330
12
100
AcDbEntity
  8
0
100
AcDbPolyline
 90
     2
 10
137.0
 20
119.5
 10
137.0
 20
118.5
  0
LWPOLYLINE
  5
17F
330
12
100
AcDbEntity
  8
0
100
AcDbPolyline
 90
     2
 10
147.0
 20
117.11
 10
146.0
 20
119.07
  0
LWPOLYLINE
  5
180
330
12
100
AcDbEntity
  8
0
100
AcDbPolyline
 90
     2
 10
146.0
 20
119.07
 10
145.0
 20
121.03
  0
LWPOLYLINE
  5
181
330
12
100
AcDbEntity
  8
0
100
AcDbPolyline
 90
     2
 10
145.0
 20
121.03
 10
144.0
 20
123.0
  0
LWPOLYLINE
  5
182
330
12
100
AcDbEntity
  8
0
100
AcDbPolyline
 90
     4
 70
     1
 10
148.0
 20
115.14
 10
146.57
 20
116.82
 10
147.43
 20
117.39
 10
148.0
 20
115.14
  0
LWPOLYLINE
  5
183
330
12
100
AcDbEntity
  8
0
100
AcDbPolyline
 90
     2
 10
150.0
 20
117.0
 10
150.42
 20
119.0
  0
LWPOLYLINE
  5
184
330
12
100
AcDbEntity
  8
0
100
AcDbPolyline
 90
     2
 10
152.08
 20
119.0
 10
152.92
 20
115.0
  0
LWPOLYLINE
  5
185
330
12
100
AcDbEntity
  8
0
100
AcDbPolyline
 90
     2
 10
151.25
 20
115.0
 10
152.08
 20
119.0
  0
LWPOLYLINE
  5
186
330
12
100
AcDbEntity
  8
0
100
AcDbPolyline
 90
     2
 10
150.42
 20
119.0
 10
151.25
 20
115.0
  0
LWPOLYLINE
  5
187
330
12
100
AcDbEntity
  8
0
100
AcDbPolyline
 90
     2
 10
154.58
 20
115.0
 10
155.0
 20
117.0
  0
LWPOLYLINE
  5
188
330
12
100
AcDbEntity
  8
0
100
AcDbPolyline
 90
     2
 10
153.75
 20
119.0
 10
154.58
 20
115.0
  0
LWPOLYLINE
  5
189
330
12
100
AcDbEntity
  8
0
100
AcDbPolyline
 90
     2
 10
152.92
 20
115.0
 10
153.75
 20
119.0
  0
LWPOLYLINE
  5
18A
330
12
100
AcDbEntity
  8
0
100
AcDbPolyline
 90
     2
 10
147.0
 20
115.0
 10
149.0
 20
115.0
  0
LWPOLYLINE
  5
18B
330
12
100
AcDbEntity
  8
0
100
AcDbPolyline
 90
     2
 10
149.0
 20
115.0
 10
148.0
 20
113.67
  0
LWPOLYLINE
  5
18C
330
12
100
AcDbEntity
  8
0
100
AcDbPolyline
 90
     2
 10
148.0
 20
113.67
 10
147.0
 20
115.0
  0
LWPOLYLINE
  5
18D
330
12
100
AcDbEntity
  8
0
100
AcDbPolyline
 90
     2
 10
147.0
 20
113.0
 10
149.0
 20
113.0
  0
LWPOLYLINE
  5
18E
330
12
100
AcDbEntity
  8
0
100
AcDbPolyline
 90
     2
 10
128.0
 20
116.0
 10
134.0
 20
116.0
  0
LWPOLYLINE
  5
18F
330
12
100
AcDbEntity
  8
0
100
AcDbPolyline
 90
     2
 10
134.0
 20
118.0
 10
128.0
 20
118.0
  0
LWPOLYLINE
  5
190
330
12
100
AcDbEntity
  8
0
100
AcDbPolyline
 90
     2
 10
134.0
 20
119.0
 10
134.0
 20
115.0
  0
CIRCLE
  5
191
330
12
100
AcDbEntity
  8
0
100
AcDbCircle
 10
128.0
 20
117.0
 30
0.0
 40
1.3333334
  0
CIRCLE
  5
192
330
12
100
AcDbEntity
  8
0
100
AcDbCircle
 10
128.0
 20
117.0
 30
0.0
 40
0.22222223
  0
LWPOLYLINE
  5
193
330
12
100
AcDbEntity
  8
0
100
AcDbPolyline
 90
     2
 10
127.33
 20
117.22
 10
127.33
 20
116.78
  0
LWPOLYLINE
  5
194
330
12
100
AcDbEntity
  8
0
100
AcDbPolyline
 90
     2
 10
128.67
 20
117.22
 10
128.67
 20
116.78
  0
LWPOLYLINE
  5
195
330
12
100
AcDbEntity
  8
0
100
AcDbPolyline
 90
     2
 10
127.78
 20
117.67
 10
128.22
 20
117.67
  0
LWPOLYLINE
  5
196
330
12
100
AcDbEntity
  8
0
100
AcDbPolyline
 90
     2
 10
127.78
 20
116.33
 10
128.22
 20
116.33
  0
LWPOLYLINE
  5
197
330
12
100
AcDbEntity
  8
0
100
AcDbPolyline
 90
     2
 10
127.33
 20
115.0
 10
128.67
 20
115.0
  0
LWPOLYLINE
  5
198
330
12
100
AcDbEntity
  8
0
100
AcDbPolyline
 90
     2
 10
127.33
 20
119.0
 10
128.67
 20
119.0
  0
LWPOLYLINE
  5
199
330
12
100
AcDbEntity
  8
0
100
AcDbPolyline
 90
     2
 10
130.0
 20
116.33
 10
130.0
 20
117.67
  0
LWPOLYLINE
  5
19A
330
12
100
AcDbEntity
  8
0
100
AcDbPolyline
 90
     2
 10
126.0
 20
116.33
 10
126.0
 20
117.67
  0
SPLINE
  5
19B
330
12
100
AcDbEntity
  8
0
100
AcDbSpline
210
0.0
220
0.0
230
1.0
 70
    12
 71
     3
 72
     8
 73
     4
 40
0.0
 40
0.0
 40
0.0
 40
0.0
 40
1.0
 40
1.0
 40
1.0
 40
1.0
 10
122.45
 20
160.7
 30
0.0
 41
1.0
 10
121.5
 20
161.41
 30
0.0
 41
1.0
 10
121.5
 20
164.24
 30
0.0
 41
1.0
 10
122.45
 20
164.93
 30
0.0
 41
1.0
  0
LWPOLYLINE
  5
19C
330
12
100
AcDbEntity
  8
0
100
AcDbPolyline
 90
     2
 10
122.44
 20
163.53
 10
122.44
 20
162.12
  0
LWPOLYLINE
  5
19D
330
12
100
AcDbEntity
  8
0
100
AcDbPolyline
 90
     2
 10
121.02
 20
163.53
 10
121.02
 20
162.12
  0
SPLINE
  5
19E
330
12
100
AcDbEntity
  8
0
100
AcDbSpline
210
0.0
220
0.0
230
1.0
 70
    12
 71
     3
 72
     8
 73
     4
 40
0.0
 40
0.0
 40
0.0
 40
0.0
 40
1.0
 40
1.0
 40
1.0
 40
1.0
 10
119.62
 20
164.93
 30
0.0
 41
1.0
 10
120.57
 20
164.22
 30
0.0
 41
1.0
 10
120.57
 20
161.4
 30
0.0
 41
1.0
 10
119.62
 20
160.7
 30
0.0
 41
1.0
  0
LWPOLYLINE
  5
19F
330
12
100
AcDbEntity
  8
0
100
AcDbPolyline
 90
     2
 10
119.63
 20
162.1
 10
119.63
 20
163.52
  0
LWPOLYLINE
  5
1A0
330
12
100
AcDbEntity
  8
0
100
AcDbPolyline
 90
     2
 10
121.05
 20
162.1
 10
121.05
 20
163.52
  0
LWPOLYLINE
  5
1A1
330
12
100
AcDbEntity
  8
0
100
AcDbPolyline
 90
     2
 10
121.02
 20
164.94
 10
121.02
 20
167.76
  0
LWPOLYLINE
  5
1A2
330
12
100
AcDbEntity
  8
0
100
AcDbPolyline
 90
     2
 10
121.02
 20
164.94
 10
121.02
 20
160.71
  0
LWPOLYLINE
  5
1A3
330
12
100
AcDbEntity
  8
0
100
AcDbPolyline
 90
     2
 10
121.02
 20
160.71
 10
121.02
 20
157.88
  0
LWPOLYLINE
  5
1A4
330
12
100
AcDbEntity
  8
0
100
AcDbPolyline
 90
     2
 10
121.02
 20
167.06
 10
125.96
 20
167.06
  0
LWPOLYLINE
  5
1A5
330
12
100
AcDbEntity
  8
0
100
AcDbPolyline
 90
     2
 10
121.02
 20
158.59
 10
125.96
 20
158.59
  0
LWPOLYLINE
  5
1A6
330
12
100
AcDbEntity
  8
0
100
AcDbPolyline
 90
     2
 10
125.96
 20
167.06
 10
125.96
 20
163.53
  0
LWPOLYLINE
  5
1A7
330
12
100
AcDbEntity
  8
0
100
AcDbPolyline
 90
     2
 10
125.96
 20
162.12
 10
125.96
 20
159.29
  0
CIRCLE
  5
1A8
330
12
100
AcDbEntity
  8
0
100
AcDbCircle
 10
125.96
 20
163.18
 30
0.0
 40
0.70588235
  0
LWPOLYLINE
  5
1A9
330
12
100
AcDbEntity
  8
0
100
AcDbPolyline
 90
     2
 10
125.96
 20
162.12
 10
124.55
 20
163.53
  0
LWPOLYLINE
  5
1AA
330
12
100
AcDbEntity
  8
0
100
AcDbPolyline
 90
     2
 10
125.96
 20
162.12
 10
127.37
 20
163.53
  0
LWPOLYLINE
  5
1AB
330
12
100
AcDbEntity
  8
0
100
AcDbPolyline
 90
     2
 10
125.61
 20
164.24
 10
126.32
 20
164.24
  0
LWPOLYLINE
  5
1AC
330
12
100
AcDbEntity
  8
0
100
AcDbPolyline
 90
     2
 10
125.61
 20
161.41
 10
126.32
 20
161.41
  0
LWPOLYLINE
  5
1AD
330
12
100
AcDbEntity
  8
0
100
AcDbPolyline
 90
     2
 10
125.96
 20
159.29
 10
125.96
 20
158.59
  0
LWPOLYLINE
  5
1AE
330
12
100
AcDbEntity
  8
0
100
AcDbPolyline
 90
     2
 10
118.2
 20
168.47
 10
118.2
 20
157.18
  0
LWPOLYLINE
  5
1AF
330
12
100
AcDbEntity
  8
0
100
AcDbPolyline
 90
     2
 10
128.08
 20
168.47
 10
128.08
 20
157.18
  0
LWPOLYLINE
  5
1B0
330
12
100
AcDbEntity
  8
0
100
AcDbPolyline
 90
     2
 10
121.02
 20
167.76
 10
121.02
 20
168.47
  0
LWPOLYLINE
  5
1B1
330
12
100
AcDbEntity
  8
0
100
AcDbPolyline
 90
     2
 10
121.02
 20
157.88
 10
121.02
 20
157.18
  0
LWPOLYLINE
  5
1B2
330
12
100
AcDbEntity
  8
0
100
AcDbPolyline
 90
     2
 10
118.2
 20
168.47
 10
128.08
 20
168.47
  0
LWPOLYLINE
  5
1B3
330
12
100
AcDbEntity
  8
0
100
AcDbPolyline
 90
     2
 10
118.2
 20
157.18
 10
128.08
 20
157.18
  0
LWPOLYLINE
  5
1B4
330
12
100
AcDbEntity
  8
0
100
AcDbPolyline
 90
     2
 10
121.02
 20
168.47
 10
121.02
 20
171.29
  0
LWPOLYLINE
  5
1B5
330
12
100
AcDbEntity
  8
0
100
AcDbPolyline
 90
     2
 10
121.02
 20
154.35
 10
121.02
 20
157.18
  0
CIRCLE
  5
1B6
330
12
100
AcDbEntity
  8
0
100
AcDbCircle
 10
121.02
 20
167.06
 30
0.0
 40
0.23529413
  0
LWPOLYLINE
  5
1B7
330
12
100
AcDbEntity
  8
0
100
AcDbPolyline
 90
     2
 10
120.32
 20
167.29
 10
120.32
 20
166.82
  0
LWPOLYLINE
  5
1B8
330
12
100
AcDbEntity
  8
0
100
AcDbPolyline
 90
     2
 10
121.73
 20
167.29
 10
121.73
 20
166.82
  0
LWPOLYLINE
  5
1B9
330
12
100
AcDbEntity
  8
0
100
AcDbPolyline
 90
     2
 10
120.79
 20
167.76
 10
121.26
 20
167.76
  0
LWPOLYLINE
  5
1BA
330
12
100
AcDbEntity
  8
0
100
AcDbPolyline
 90
     2
 10
120.79
 20
166.35
 10
121.26
 20
166.35
  0
CIRCLE
  5
1BB
330
12
100
AcDbEntity
  8
0
100
AcDbCircle
 10
121.02
 20
158.59
 30
0.0
 40
0.23529413
  0
LWPOLYLINE
  5
1BC
330
12
100
AcDbEntity
  8
0
100
AcDbPolyline
 90
     2
 10
120.32
 20
158.82
 10
120.32
 20
158.35
  0
LWPOLYLINE
  5
1BD
330
12
100
AcDbEntity
  8
0
100
AcDbPolyline
 90
     2
 10
121.73
 20
158.82
 10
121.73
 20
158.35
  0
LWPOLYLINE
  5
1BE
330
12
100
AcDbEntity
  8
0
100
AcDbPolyline
 90
     2
 10
120.79
 20
159.29
 10
121.26
 20
159.29
  0
LWPOLYLINE
  5
1BF
330
12
100
AcDbEntity
  8
0
100
AcDbPolyline
 90
     2
 10
120.79
 20
157.88
 10
121.26
 20
157.88
  0
LWPOLYLINE
  5
1C0
330
12
100
AcDbEntity
  8
0
100
AcDbPolyline
 90
     2
 10
122.61
 20
163.53
 10
121.37
 20
163.06
  0
LWPOLYLINE
  5
1C1
330
12
100
AcDbEntity
  8
0
100
AcDbPolyline
 90
     2
 10
121.37
 20
163.06
 10
120.14
 20
162.59
  0
LWPOLYLINE
  5
1C2
330
12
100
AcDbEntity
  8
0
100
AcDbPolyline
 90
     2
 10
120.14
 20
162.59
 10
118.91
 20
162.12
  0
LWPOLYLINE
  5
1C3
330
12
100
AcDbEntity
  8
0
100
AcDbPolyline
 90
     4
 70
     1
 10
123.84
 20
164.0
 10
122.79
 20
163.33
 10
122.43
 20
163.73
 10
123.84
 20
164.0
  0
LWPOLYLINE
  5
1C4
330
12
100
AcDbEntity
  8
0
100
AcDbPolyline
 90
     2
 10
120.32
 20
164.94
 10
121.73
 20
164.94
  0
MTEXT
  5
1C5
330
12
100
AcDbEntity
  8
1-texts
100
AcDbMText
 10
119.15
 20
170.14
 30
0.0
 40
1.536
 41
0.0
 71
     5
 72
     1
  1
2
 50
0.0
  0
MTEXT
  5
1C6
330
12
100
AcDbEntity
  8
1-texts
100
AcDbMText
 10
119.15
 20
155.31
 30
0.0
 40
1.536
 41
0.0
 71
     5
 72
     1
  1
1
 50
0.0
  0
SPLINE
  5
1C7
330
12
100
AcDbEntity
  8
0
100
AcDbSpline
210
0.0
220
0.0
230
1.0
 70
    12
 71
     3
 72
     8
 73
     4
 40
0.0
 40
0.0
 40
0.0
 40
0.0
 40
1.0
 40
1.0
 40
1.0
 40
1.0
 10
138.51
 20
161.41
 30
0.0
 41
1.0
 10
137.56
 20
162.12
 30
0.0
 41
1.0
 10
137.56
 20
164.95
 30
0.0
 41
1.0
 10
138.51
 20
165.64
 30
0.0
 41
1.0
  0
LWPOLYLINE
  5
1C8
330
12
100
AcDbEntity
  8
0
100
AcDbPolyline
 90
     2
 10
138.5
 20
164.24
 10
138.5
 20
162.83
  0
LWPOLYLINE
  5
1C9
330
12
100
AcDbEntity
  8
0
100
AcDbPolyline
 90
     2
 10
137.08
 20
164.24
 10
137.08
 20
162.83
  0
SPLINE
  5
1CA
330
12
100
AcDbEntity
  8
0
100
AcDbSpline
210
0.0
220
0.0
230
1.0
 70
    12
 71
     3
 72
     8
 73
     4
 40
0.0
 40
0.0
 40
0.0
 40
0.0
 40
1.0
 40
1.0
 40
1.0
 40
1.0
 10
135.68
 20
165.64
 30
0.0
 41
1.0
 10
136.63
 20
164.93
 30
0.0
 41
1.0
 10
136.63
 20
162.11
 30
0.0
 41
1.0
 10
135.68
 20
161.41
 30
0.0
 41
1.0
  0
LWPOLYLINE
  5
1CB
330
12
100
AcDbEntity
  8
0
100
AcDbPolyline
 90
     2
 10
135.69
 20
162.81
 10
135.69
 20
164.23
  0
LWPOLYLINE
  5
1CC
330
12
100
AcDbEntity
  8
0
100
AcDbPolyline
 90
     2
 10
137.11
 20
162.81
 10
137.11
 20
164.23
  0
LWPOLYLINE
  5
1CD
330
12
100
AcDbEntity
  8
0
100
AcDbPolyline
 90
     2
 10
137.08
 20
165.65
 10
137.08
 20
168.47
  0
LWPOLYLINE
  5
1CE
330
12
100
AcDbEntity
  8
0
100
AcDbPolyline
 90
     2
 10
137.08
 20
165.65
 10
137.08
 20
161.42
  0
LWPOLYLINE
  5
1CF
330
12
100
AcDbEntity
  8
0
100
AcDbPolyline
 90
     2
 10
137.08
 20
161.42
 10
137.08
 20
158.59
  0
LWPOLYLINE
  5
1D0
330
12
100
AcDbEntity
  8
0
100
AcDbPolyline
 90
     2
 10
137.08
 20
167.77
 10
142.02
 20
167.77
  0
LWPOLYLINE
  5
1D1
330
12
100
AcDbEntity
  8
0
100
AcDbPolyline
 90
     2
 10
137.08
 20
159.3
 10
142.02
 20
159.3
  0
LWPOLYLINE
  5
1D2
330
12
100
AcDbEntity
  8
0
100
AcDbPolyline
 90
     2
 10
142.02
 20
167.77
 10
142.02
 20
164.24
  0
LWPOLYLINE
  5
1D3
330
12
100
AcDbEntity
  8
0
100
AcDbPolyline
 90
     2
 10
142.02
 20
162.83
 10
142.02
 20
160.0
  0
CIRCLE
  5
1D4
330
12
100
AcDbEntity
  8
0
100
AcDbCircle
 10
142.02
 20
163.89
 30
0.0
 40
0.70588235
  0
LWPOLYLINE
  5
1D5
330
12
100
AcDbEntity
  8
0
100
AcDbPolyline
 90
     2
 10
142.02
 20
162.83
 10
140.61
 20
164.24
  0
LWPOLYLINE
  5
1D6
330
12
100
AcDbEntity
  8
0
100
AcDbPolyline
 90
     2
 10
142.02
 20
162.83
 10
143.43
 20
164.24
  0
LWPOLYLINE
  5
1D7
330
12
100
AcDbEntity
  8
0
100
AcDbPolyline
 90
     2
 10
141.67
 20
164.95
 10
142.38
 20
164.95
  0
LWPOLYLINE
  5
1D8
330
12
100
AcDbEntity
  8
0
100
AcDbPolyline
 90
     2
 10
141.67
 20
162.12
 10
142.38
 20
162.12
  0
LWPOLYLINE
  5
1D9
330
12
100
AcDbEntity
  8
0
100
AcDbPolyline
 90
     2
 10
142.02
 20
160.0
 10
142.02
 20
159.3
  0
LWPOLYLINE
  5
1DA
330
12
100
AcDbEntity
  8
0
100
AcDbPolyline
 90
     2
 10
134.26
 20
169.18
 10
134.26
 20
157.89
  0
LWPOLYLINE
  5
1DB
330
12
100
AcDbEntity
  8
0
100
AcDbPolyline
 90
     2
 10
144.14
 20
169.18
 10
144.14
 20
157.89
  0
LWPOLYLINE
  5
1DC
330
12
100
AcDbEntity
  8
0
100
AcDbPolyline
 90
     2
 10
137.08
 20
168.47
 10
137.08
 20
169.18
  0
LWPOLYLINE
  5
1DD
330
12
100
AcDbEntity
  8
0
100
AcDbPolyline
 90
     2
 10
137.08
 20
158.59
 10
137.08
 20
157.89
  0
LWPOLYLINE
  5
1DE
330
12
100
AcDbEntity
  8
0
100
AcDbPolyline
 90
     2
 10
134.26
 20
169.18
 10
144.14
 20
169.18
  0
LWPOLYLINE
  5
1DF
330
12
100
AcDbEntity
  8
0
100
AcDbPolyline
 90
     2
 10
134.26
 20
157.89
 10
144.14
 20
157.89
  0
LWPOLYLINE
  5
1E0
330
12
100
AcDbEntity
  8
0
100
AcDbPolyline
 90
     2
 10
137.08
 20
169.18
 10
137.08
 20
172.0
  0
LWPOLYLINE
  5
1E1
330
12
100
AcDbEntity
  8
0
100
AcDbPolyline
 90
     2
 10
137.08
 20
155.06
 10
137.08
 20
157.89
  0
CIRCLE
  5
1E2
330
12
100
AcDbEntity
  8
0
100
AcDbCircle
 10
137.08
 20
167.77
 30
0.0
 40
0.23529413
  0
LWPOLYLINE
  5
1E3
330
12
100
AcDbEntity
  8
0
100
AcDbPolyline
 90
     2
 10
136.38
 20
168.0
 10
136.38
 20
167.53
  0
LWPOLYLINE
  5
1E4
330
12
100
AcDbEntity
  8
0
100
AcDbPolyline
 90
     2
 10
137.79
 20
168.0
 10
137.79
 20
167.53
  0
LWPOLYLINE
  5
1E5
330
12
100
AcDbEntity
  8
0
100
AcDbPolyline
 90
     2
 10
136.85
 20
168.47
 10
137.32
 20
168.47
  0
LWPOLYLINE
  5
1E6
330
12
100
AcDbEntity
  8
0
100
AcDbPolyline
 90
     2
 10
136.85
 20
167.06
 10
137.32
 20
167.06
  0
CIRCLE
  5
1E7
330
12
100
AcDbEntity
  8
0
100
AcDbCircle
 10
137.08
 20
159.3
 30
0.0
 40
0.23529413
  0
LWPOLYLINE
  5
1E8
330
12
100
AcDbEntity
  8
0
100
AcDbPolyline
 90
     2
 10
136.38
 20
159.53
 10
136.38
 20
159.06
  0
LWPOLYLINE
  5
1E9
330
12
100
AcDbEntity
  8
0
100
AcDbPolyline
 90
     2
 10
137.79
 20
159.53
 10
137.79
 20
159.06
  0
LWPOLYLINE
  5
1EA
330
12
100
AcDbEntity
  8
0
100
AcDbPolyline
 90
     2
 10
136.85
 20
160.0
 10
137.32
 20
160.0
  0
LWPOLYLINE
  5
1EB
330
12
100
AcDbEntity
  8
0
100
AcDbPolyline
 90
     2
 10
136.85
 20
158.59
 10
137.32
 20
158.59
  0
LWPOLYLINE
  5
1EC
330
12
100
AcDbEntity
  8
0
100
AcDbPolyline
 90
     2
 10
138.67
 20
164.24
 10
137.43
 20
163.77
  0
LWPOLYLINE
  5
1ED
330
12
100
AcDbEntity
  8
0
100
AcDbPolyline
 90
     2
 10
137.43
 20
163.77
 10
136.2
 20
163.3
  0
LWPOLYLINE
  5
1EE
330
12
100
AcDbEntity
  8
0
100
AcDbPolyline
 90
     2
 10
136.2
 20
163.3
 10
134.97
 20
162.83
  0
LWPOLYLINE
  5
1EF
330
12
100
AcDbEntity
  8
0
100
AcDbPolyline
 90
     4
 70
     1
 10
139.9
 20
164.71
 10
138.85
 20
164.04
 10
138.49
 20
164.44
 10
139.9
 20
164.71
  0
LWPOLYLINE
  5
1F0
330
12
100
AcDbEntity
  8
0
100
AcDbPolyline
 90
     2
 10
136.38
 20
165.65
 10
137.79
 20
165.65
  0
MTEXT
  5
1F1
330
12
100
AcDbEntity
  8
1-texts
100
AcDbMText
 10
135.21
 20
170.85
 30
0.0
 40
1.536
 41
0.0
 71
     5
 72
     1
  1
2
 50
0.0
  0
MTEXT
  5
1F2
330
12
100
AcDbEntity
  8
1-texts
100
AcDbMText
 10
135.21
 20
156.02
 30
0.0
 40
1.536
 41
0.0
 71
     5
 72
     1
  1
1
 50
0.0
  0
MTEXT
  5
1F3
330
12
100
AcDbEntity
  8
1-texts
100
AcDbMText
 10
128.35
 20
136.36
 30
0.0
 40
1.536
 41
0.0
 71
     5
 72
     1
  1
1
 50
0.0
  0
MTEXT
  5
1F4
330
12
100
AcDbEntity
  8
1-texts
100
AcDbMText
 10
132.35
 20
136.36
 30
0.0
 40
1.536
 41
0.0
 71
     5
 72
     1
  1
3
 50
0.0
  0
MTEXT
  5
1F5
330
12
100
AcDbEntity
  8
1-texts
100
AcDbMText
 10
124.35
 20
136.36
 30
0.0
 40
1.536
 41
0.0
 71
     5
 72
     1
  1
5
 50
0.0
  0
LWPOLYLINE
  5
1F6
330
12
100
AcDbEntity
  8
0
100
AcDbPolyline
 90
     2
 10
112.0
 20
140.0
 10
124.0
 20
140.0
  0
LWPOLYLINE
  5
1F7
330
12
100
AcDbEntity
  8
0
100
AcDbPolyline
 90
     2
 10
112.0
 20
140.0
 10
112.0
 20
148.0
  0
LWPOLYLINE
  5
1F8
330
12
100
AcDbEntity
  8
0
100
AcDbPolyline
 90
     2
 10
112.0
 20
148.0
 10
124.0
 20
148.0
  0
LWPOLYLINE
  5
1F9
330
12
100
AcDbEntity
  8
0
100
AcDbPolyline
 90
     2
 10
124.0
 20
140.0
 10
124.0
 20
148.0
  0
LWPOLYLINE
  5
1FA
330
12
100
AcDbEntity
  8
0
100
AcDbPolyline
 90
     2
 10
134.0
 20
152.0
 10
134.0
 20
148.0
  0
LWPOLYLINE
  5
1FB
330
12
100
AcDbEntity
  8
0
100
AcDbPolyline
 90
     2
 10
126.0
 20
152.0
 10
126.0
 20
148.0
  0
LWPOLYLINE
  5
1FC
330
12
100
AcDbEntity
  8
0
100
AcDbPolyline
 90
     2
 10
126.0
 20
140.0
 10
126.0
 20
136.0
  0
LWPOLYLINE
  5
1FD
330
12
100
AcDbEntity
  8
0
100
AcDbPolyline
 90
     2
 10
130.0
 20
140.0
 10
130.0
 20
136.0
  0
LWPOLYLINE
  5
1FE
330
12
100
AcDbEntity
  8
0
100
AcDbPolyline
 90
     2
 10
134.0
 20
140.0
 10
134.0
 20
136.0
  0
LWPOLYLINE
  5
1FF
330
12
100
AcDbEntity
  8
0
100
AcDbPolyline
 90
     2
 10
124.0
 20
140.0
 10
136.0
 20
140.0
  0
LWPOLYLINE
  5
200
330
12
100
AcDbEntity
  8
0
100
AcDbPolyline
 90
     2
 10
124.0
 20
140.0
 10
124.0
 20
148.0
  0
LWPOLYLINE
  5
201
330
12
100
AcDbEntity
  8
0
100
AcDbPolyline
 90
     2
 10
124.0
 20
148.0
 10
136.0
 20
148.0
  0
LWPOLYLINE
  5
202
330
12
100
AcDbEntity
  8
0
100
AcDbPolyline
 90
     2
 10
136.0
 20
140.0
 10
136.0
 20
148.0
  0
LWPOLYLINE
  5
203
330
12
100
AcDbEntity
  8
0
100
AcDbPolyline
 90
     2
 10
134.0
 20
142.0
 10
134.0
 20
140.0
  0
LWPOLYLINE
  5
204
330
12
100
AcDbEntity
  8
0
100
AcDbPolyline
 90
     2
 10
133.0
 20
142.0
 10
135.0
 20
142.0
  0
LWPOLYLINE
  5
205
330
12
100
AcDbEntity
  8
0
100
AcDbPolyline
 90
     2
 10
114.0
 20
142.0
 10
114.0
 20
140.0
  0
LWPOLYLINE
  5
206
330
12
100
AcDbEntity
  8
0
100
AcDbPolyline
 90
     2
 10
113.0
 20
142.0
 10
115.0
 20
142.0
  0
MTEXT
  5
207
330
12
100
AcDbEntity
  8
1-texts
100
AcDbMText
 10
132.35
 20
150.36
 30
0.0
 40
1.536
 41
0.0
 71
     5
 72
     1
  1
2
 50
0.0
  0
MTEXT
  5
208
330
12
100
AcDbEntity
  8
1-texts
100
AcDbMText
 10
124.35
 20
150.36
 30
0.0
 40
1.536
 41
0.0
 71
     5
 72
     1
  1
4
 50
0.0
  0
LWPOLYLINE
  5
209
330
12
100
AcDbEntity
  8
0
100
AcDbPolyline
 90
     2
 10
106.0
 20
144.0
 10
109.0
 20
142.0
  0
LWPOLYLINE
  5
20A
330
12
100
AcDbEntity
  8
0
100
AcDbPolyline
 90
     2
 10
109.0
 20
142.0
 10
106.0
 20
140.0
  0
LWPOLYLINE
  5
20B
330
12
100
AcDbEntity
  8
0
100
AcDbPolyline
 90
     2
 10
106.0
 20
144.0
 10
106.0
 20
140.0
  0
LWPOLYLINE
  5
20C
330
12
100
AcDbEntity
  8
0
  6
DOT
100
AcDbPolyline
 90
     2
 10
109.0
 20
142.0
 10
112.0
 20
142.0
  0
LWPOLYLINE
  5
20D
330
12
100
AcDbEntity
  8
0
  6
DOT
100
AcDbPolyline
 90
     2
 10
104.0
 20
142.0
 10
106.0
 20
142.0
  0
LWPOLYLINE
  5
20E
330
12
100
AcDbEntity
  8
0
100
AcDbPolyline
 90
     2
 10
126.0
 20
148.0
 10
126.0
 20
140.0
  0
LWPOLYLINE
  5
20F
330
12
100
AcDbEntity
  8
0
100
AcDbPolyline
 90
     4
 70
     1
 10
126.0
 20
140.0
 10
125.5
 20
142.0
 10
126.5
 20
142.0
 10
126.0
 20
140.0
  0
LWPOLYLINE
  5
210
330
12
100
AcDbEntity
  8
0
100
AcDbPolyline
 90
     2
 10
127.0
 20
143.5
 10
127.0
 20
144.5
  0
LWPOLYLINE
  5
211
330
12
100
AcDbEntity
  8
0
100
AcDbPolyline
 90
     2
 10
125.0
 20
143.5
 10
125.0
 20
144.5
  0
LWPOLYLINE
  5
212
330
12
100
AcDbEntity
  8
0
100
AcDbPolyline
 90
     2
 10
133.0
 20
146.03
 10
132.0
 20
144.07
  0
LWPOLYLINE
  5
213
330
12
100
AcDbEntity
  8
0
100
AcDbPolyline
 90
     2
 10
132.0
 20
144.07
 10
131.0
 20
142.11
  0
LWPOLYLINE
  5
214
330
12
100
AcDbEntity
  8
0
100
AcDbPolyline
 90
     2
 10
131.0
 20
142.11
 10
130.0
 20
140.14
  0
LWPOLYLINE
  5
215
330
12
100
AcDbEntity
  8
0
100
AcDbPolyline
 90
     4
 70
     1
 10
134.0
 20
148.0
 10
132.57
 20
146.32
 10
133.43
 20
145.75
 10
134.0
 20
148.0
  0
LWPOLYLINE
  5
216
330
12
100
AcDbEntity
  8
0
100
AcDbPolyline
 90
     2
 10
122.0
 20
148.0
 10
122.0
 20
140.0
  0
LWPOLYLINE
  5
217
330
12
100
AcDbEntity
  8
0
100
AcDbPolyline
 90
     4
 70
     1
 10
122.0
 20
140.0
 10
121.5
 20
142.0
 10
122.5
 20
142.0
 10
122.0
 20
140.0
  0
LWPOLYLINE
  5
218
330
12
100
AcDbEntity
  8
0
100
AcDbPolyline
 90
     2
 10
123.0
 20
143.5
 10
123.0
 20
144.5
  0
LWPOLYLINE
  5
219
330
12
100
AcDbEntity
  8
0
100
AcDbPolyline
 90
     2
 10
121.0
 20
143.5
 10
121.0
 20
144.5
  0
LWPOLYLINE
  5
21A
330
12
100
AcDbEntity
  8
0
100
AcDbPolyline
 90
     2
 10
115.0
 20
146.03
 10
116.0
 20
144.07
  0
LWPOLYLINE
  5
21B
330
12
100
AcDbEntity
  8
0
100
AcDbPolyline
 90
     2
 10
116.0
 20
144.07
 10
117.0
 20
142.11
  0
LWPOLYLINE
  5
21C
330
12
100
AcDbEntity
  8
0
100
AcDbPolyline
 90
     2
 10
117.0
 20
142.11
 10
118.0
 20
140.14
  0
LWPOLYLINE
  5
21D
330
12
100
AcDbEntity
  8
0
100
AcDbPolyline
 90
     4
 70
     1
 10
114.0
 20
148.0
 10
115.43
 20
146.32
 10
114.57
 20
145.75
 10
114.0
 20
148.0
  0
MTEXT
  5
21E
330
12
100
AcDbEntity
  8
1-texts
100
AcDbMText
 10
105.41
 20
146.36
 30
0.0
 40
1.536
 41
0.0
 71
     5
 72
     1
  1
14
 50
0.0
  0
LWPOLYLINE
  5
21F
330
12
100
AcDbEntity
  8
0
100
AcDbPolyline
 90
     2
 10
142.0
 20
144.0
 10
139.0
 20
142.0
  0
LWPOLYLINE
  5
220
330
12
100
AcDbEntity
  8
0
100
AcDbPolyline
 90
     2
 10
139.0
 20
142.0
 10
142.0
 20
140.0
  0
LWPOLYLINE
  5
221
330
12
100
AcDbEntity
  8
0
100
AcDbPolyline
 90
     2
 10
142.0
 20
144.0
 10
142.0
 20
140.0
  0
LWPOLYLINE
  5
222
330
12
100
AcDbEntity
  8
0
  6
DOT
100
AcDbPolyline
 90
     2
 10
139.0
 20
142.0
 10
136.0
 20
142.0
  0
LWPOLYLINE
  5
223
330
12
100
AcDbEntity
  8
0
  6
DOT
100
AcDbPolyline
 90
     2
 10
144.0
 20
142.0
 10
142.0
 20
142.0
  0
MTEXT
  5
224
330
12
100
AcDbEntity
  8
1-texts
100
AcDbMText
 10
142.41
 20
146.36
 30
0.0
 40
1.536
 41
0.0
 71
     5
 72
     1
  1
12
 50
0.0
  0
LWPOLYLINE
  5
225
330
12
100
AcDbEntity
  8
0
100
AcDbPolyline
 90
     2
 10
126.08
 20
150.0
 10
126.08
 20
150.0
  0
LWPOLYLINE
  5
226
330
12
100
AcDbEntity
  8
3-links
100
AcDbPolyline
 90
     4
 10
121.02
 20
154.35
 10
123.55
 20
154.35
 10
123.55
 20
152.0
 10
126.0
 20
152.0
  0
LWPOLYLINE
  5
227
330
12
100
AcDbEntity
  8
3-links
100
AcDbPolyline
 90
     4
 10
134.0
 20
152.0
 10
134.0
 20
153.03
 10
137.08
 20
153.03
 10
137.08
 20
155.06
  0
MTEXT
  5
228
330
12
100
AcDbEntity
  8
1-texts
100
AcDbMText
 10
130.92
 20
187.71
 30
0.0
 40
2.118
 41
0.0
 71
     5
 72
     1
  1
B
 50
0.0
  0
MTEXT
  5
229
330
12
100
AcDbEntity
  8
1-texts
100
AcDbMText
 10
98.84
 20
145.71
 30
0.0
 40
2.118
 41
0.0
 71
     5
 72
     1
  1
B+
 50
0.0
  0
MTEXT
  5
22A
330
12
100
AcDbEntity
  8
1-texts
100
AcDbMText
 10
148.84
 20
145.6
 30
0.0
 40
2.118
 41
0.0
 71
     5
 72
     1
  1
B-
 50
0.0
  0
LWPOLYLINE
  5
22B
330
12
100
AcDbEntity
  8
0
100
AcDbPolyline
 90
     2
 10
187.08
 20
176.0
 10
187.08
 20
172.0
  0
LWPOLYLINE
  5
22C
330
12
100
AcDbEntity
  8
0
100
AcDbPolyline
 90
     2
 10
203.08
 20
176.0
 10
203.08
 20
172.0
  0
LWPOLYLINE
  5
22D
330
12
100
AcDbEntity
  8
0
100
AcDbPolyline
 90
     2
 10
186.08
 20
184.0
 10
186.08
 20
176.0
  0
LWPOLYLINE
  5
22E
330
12
100
AcDbEntity
  8
0
100
AcDbPolyline
 90
     2
 10
186.08
 20
184.0
 10
204.08
 20
184.0
  0
LWPOLYLINE
  5
22F
330
12
100
AcDbEntity
  8
0
100
AcDbPolyline
 90
     2
 10
204.08
 20
184.0
 10
204.08
 20
181.0
  0
LWPOLYLINE
  5
230
330
12
100
AcDbEntity
  8
0
100
AcDbPolyline
 90
     2
 10
204.08
 20
179.0
 10
204.08
 20
176.0
  0
LWPOLYLINE
  5
231
330
12
100
AcDbEntity
  8
0
100
AcDbPolyline
 90
     2
 10
186.08
 20
176.0
 10
204.08
 20
176.0
  0
LWPOLYLINE
  5
232
330
12
100
AcDbEntity
  8
0
100
AcDbPolyline
 90
     2
 10
210.08
 20
181.0
 10
210.08
 20
179.0
  0
LWPOLYLINE
  5
233
330
12
100
AcDbEntity
  8
0
100
AcDbPolyline
 90
     2
 10
210.08
 20
181.0
 10
192.08
 20
181.0
  0
LWPOLYLINE
  5
234
330
12
100
AcDbEntity
  8
0
100
AcDbPolyline
 90
     2
 10
210.08
 20
179.0
 10
192.08
 20
179.0
  0
LWPOLYLINE
  5
235
330
12
100
AcDbEntity
  8
0
100
AcDbPolyline
 90
     2
 10
188.08
 20
176.0
 10
192.08
 20
176.0
  0
LWPOLYLINE
  5
236
330
12
100
AcDbEntity
  8
0
100
AcDbPolyline
 90
     2
 10
188.08
 20
184.0
 10
192.08
 20
184.0
  0
LWPOLYLINE
  5
237
330
12
100
AcDbEntity
  8
0
100
AcDbPolyline
 90
     2
 10
188.08
 20
184.0
 10
188.08
 20
176.0
  0
LWPOLYLINE
  5
238
330
12
100
AcDbEntity
  8
0
100
AcDbPolyline
 90
     2
 10
192.08
 20
184.0
 10
192.08
 20
176.0
  0
LWPOLYLINE
  5
239
330
12
100
AcDbEntity
  8
0
100
AcDbPolyline
 90
     2
 10
220.08
 20
182.0
 10
220.08
 20
188.0
  0
LWPOLYLINE
  5
23A
330
12
100
AcDbEntity
  8
0
100
AcDbPolyline
 90
     2
 10
220.08
 20
188.0
 10
226.08
 20
188.0
  0
LWPOLYLINE
  5
23B
330
12
100
AcDbEntity
  8
0
100
AcDbPolyline
 90
     2
 10
220.08
 20
182.0
 10
226.08
 20
182.0
  0
LWPOLYLINE
  5
23C
330
12
100
AcDbEntity
  8
0
100
AcDbPolyline
 90
     2
 10
226.08
 20
182.0
 10
226.08
 20
188.0
  0
LWPOLYLINE
  5
23D
330
12
100
AcDbEntity
  8
0
100
AcDbPolyline
 90
     2
 10
221.08
 20
184.59
 10
222.08
 20
184.59
  0
LWPOLYLINE
  5
23E
330
12
100
AcDbEntity
  8
0
100
AcDbPolyline
 90
     2
 10
224.08
 20
184.59
 10
225.08
 20
184.59
  0
LWPOLYLINE
  5
23F
330
12
100
AcDbEntity
  8
0
100
AcDbPolyline
 90
     2
 10
222.08
 20
184.59
 10
224.08
 20
185.59
  0
LWPOLYLINE
  5
240
330
12
100
AcDbEntity
  8
0
100
AcDbPolyline
 90
     2
 10
222.29
 20
183.99
 10
223.77
 20
183.99
  0
LWPOLYLINE
  5
241
330
12
100
AcDbEntity
  8
0
100
AcDbPolyline
 90
     2
 10
222.8
 20
186.0
 10
224.26
 20
185.99
  0
LWPOLYLINE
  5
242
330
12
100
AcDbEntity
  8
0
100
AcDbPolyline
 90
     2
 10
208.08
 20
182.0
 10
208.08
 20
188.0
  0
LWPOLYLINE
  5
243
330
12
100
AcDbEntity
  8
0
100
AcDbPolyline
 90
     2
 10
208.08
 20
188.0
 10
214.08
 20
188.0
  0
LWPOLYLINE
  5
244
330
12
100
AcDbEntity
  8
0
100
AcDbPolyline
 90
     2
 10
208.08
 20
182.0
 10
214.08
 20
182.0
  0
LWPOLYLINE
  5
245
330
12
100
AcDbEntity
  8
0
100
AcDbPolyline
 90
     2
 10
214.08
 20
182.0
 10
214.08
 20
188.0
  0
LWPOLYLINE
  5
246
330
12
100
AcDbEntity
  8
0
100
AcDbPolyline
 90
     2
 10
209.08
 20
184.59
 10
210.08
 20
184.59
  0
LWPOLYLINE
  5
247
330
12
100
AcDbEntity
  8
0
100
AcDbPolyline
 90
     2
 10
212.08
 20
184.59
 10
213.08
 20
184.59
  0
LWPOLYLINE
  5
248
330
12
100
AcDbEntity
  8
0
100
AcDbPolyline
 90
     2
 10
210.08
 20
184.59
 10
212.08
 20
185.59
  0
LWPOLYLINE
  5
249
330
12
100
AcDbEntity
  8
0
100
AcDbPolyline
 90
     2
 10
210.29
 20
183.99
 10
211.77
 20
183.99
  0
LWPOLYLINE
  5
24A
330
12
100
AcDbEntity
  8
0
100
AcDbPolyline
 90
     2
 10
210.8
 20
186.0
 10
212.26
 20
185.99
  0
LWPOLYLINE
  5
24B
330
12
100
AcDbEntity
  8
0
100
AcDbPolyline
 90
     2
 10
196.08
 20
131.77
 10
196.08
 20
135.86
  0
LWPOLYLINE
  5
24C
330
12
100
AcDbEntity
  8
0
100
AcDbPolyline
 90
     2
 10
195.06
 20
130.13
 10
197.1
 20
130.13
  0
LWPOLYLINE
  5
24D
330
12
100
AcDbEntity
  8
0
100
AcDbPolyline
 90
     2
 10
197.1
 20
130.13
 10
196.08
 20
131.77
  0
LWPOLYLINE
  5
24E
330
12
100
AcDbEntity
  8
0
100
AcDbPolyline
 90
     2
 10
195.06
 20
130.13
 10
196.08
 20
131.77
  0
LWPOLYLINE
  5
24F
330
12
100
AcDbEntity
  8
0
100
AcDbPolyline
 90
     2
 10
195.57
 20
129.72
 10
196.59
 20
129.72
  0
MTEXT
  5
250
330
12
100
AcDbEntity
  8
1-texts
100
AcDbMText
 10
164.35
 20
124.36
 30
0.0
 40
1.536
 41
0.0
 71
     5
 72
     1
  1
1
 50
0.0
  0
MTEXT
  5
251
330
12
100
AcDbEntity
  8
1-texts
100
AcDbMText
 10
164.35
 20
137.36
 30
0.0
 40
1.536
 41
0.0
 71
     5
 72
     1
  1
2
 50
0.0
  0
MTEXT
  5
252
330
12
100
AcDbEntity
  8
1-texts
100
AcDbMText
 10
168.35
 20
124.36
 30
0.0
 40
1.536
 41
0.0
 71
     5
 72
     1
  1
3
 50
0.0
  0
LWPOLYLINE
  5
253
330
12
100
AcDbEntity
  8
0
100
AcDbPolyline
 90
     2
 10
164.0
 20
127.0
 10
172.0
 20
127.0
  0
LWPOLYLINE
  5
254
330
12
100
AcDbEntity
  8
0
100
AcDbPolyline
 90
     2
 10
164.0
 20
127.0
 10
164.0
 20
135.0
  0
LWPOLYLINE
  5
255
330
12
100
AcDbEntity
  8
0
100
AcDbPolyline
 90
     2
 10
164.0
 20
135.0
 10
172.0
 20
135.0
  0
LWPOLYLINE
  5
256
330
12
100
AcDbEntity
  8
0
100
AcDbPolyline
 90
     2
 10
172.0
 20
127.0
 10
172.0
 20
135.0
  0
LWPOLYLINE
  5
257
330
12
100
AcDbEntity
  8
0
100
AcDbPolyline
 90
     2
 10
166.0
 20
139.0
 10
166.0
 20
135.0
  0
LWPOLYLINE
  5
258
330
12
100
AcDbEntity
  8
0
100
AcDbPolyline
 90
     2
 10
166.0
 20
127.0
 10
166.0
 20
123.0
  0
LWPOLYLINE
  5
259
330
12
100
AcDbEntity
  8
0
100
AcDbPolyline
 90
     2
 10
156.0
 20
127.0
 10
164.0
 20
127.0
  0
LWPOLYLINE
  5
25A
330
12
100
AcDbEntity
  8
0
100
AcDbPolyline
 90
     2
 10
156.0
 20
127.0
 10
156.0
 20
135.0
  0
LWPOLYLINE
  5
25B
330
12
100
AcDbEntity
  8
0
100
AcDbPolyline
 90
     2
 10
156.0
 20
135.0
 10
164.0
 20
135.0
  0
LWPOLYLINE
  5
25C
330
12
100
AcDbEntity
  8
0
100
AcDbPolyline
 90
     2
 10
164.0
 20
127.0
 10
164.0
 20
135.0
  0
LWPOLYLINE
  5
25D
330
12
100
AcDbEntity
  8
0
100
AcDbPolyline
 90
     2
 10
166.0
 20
129.0
 10
166.0
 20
127.0
  0
LWPOLYLINE
  5
25E
330
12
100
AcDbEntity
  8
0
100
AcDbPolyline
 90
     2
 10
165.0
 20
129.0
 10
167.0
 20
129.0
  0
LWPOLYLINE
  5
25F
330
12
100
AcDbEntity
  8
0
100
AcDbPolyline
 90
     2
 10
162.0
 20
129.0
 10
162.0
 20
127.0
  0
LWPOLYLINE
  5
260
330
12
100
AcDbEntity
  8
0
100
AcDbPolyline
 90
     2
 10
161.0
 20
129.0
 10
163.0
 20
129.0
  0
LWPOLYLINE
  5
261
330
12
100
AcDbEntity
  8
0
100
AcDbPolyline
 90
     2
 10
158.0
 20
127.0
 10
158.0
 20
135.0
  0
LWPOLYLINE
  5
262
330
12
100
AcDbEntity
  8
0
100
AcDbPolyline
 90
     4
 70
     1
 10
158.0
 20
135.0
 10
158.5
 20
133.0
 10
157.5
 20
133.0
 10
158.0
 20
135.0
  0
LWPOLYLINE
  5
263
330
12
100
AcDbEntity
  8
0
100
AcDbPolyline
 90
     2
 10
157.0
 20
131.5
 10
157.0
 20
130.5
  0
LWPOLYLINE
  5
264
330
12
100
AcDbEntity
  8
0
100
AcDbPolyline
 90
     2
 10
159.0
 20
131.5
 10
159.0
 20
130.5
  0
LWPOLYLINE
  5
265
330
12
100
AcDbEntity
  8
0
100
AcDbPolyline
 90
     2
 10
169.0
 20
129.11
 10
168.0
 20
131.07
  0
LWPOLYLINE
  5
266
330
12
100
AcDbEntity
  8
0
100
AcDbPolyline
 90
     2
 10
168.0
 20
131.07
 10
167.0
 20
133.03
  0
LWPOLYLINE
  5
267
330
12
100
AcDbEntity
  8
0
100
AcDbPolyline
 90
     2
 10
167.0
 20
133.03
 10
166.0
 20
135.0
  0
LWPOLYLINE
  5
268
330
12
100
AcDbEntity
  8
0
100
AcDbPolyline
 90
     4
 70
     1
 10
170.0
 20
127.14
 10
168.57
 20
128.82
 10
169.43
 20
129.39
 10
170.0
 20
127.14
  0
LWPOLYLINE
  5
269
330
12
100
AcDbEntity
  8
0
100
AcDbPolyline
 90
     2
 10
172.0
 20
129.0
 10
172.42
 20
131.0
  0
LWPOLYLINE
  5
26A
330
12
100
AcDbEntity
  8
0
100
AcDbPolyline
 90
     2
 10
174.08
 20
131.0
 10
174.92
 20
127.0
  0
LWPOLYLINE
  5
26B
330
12
100
AcDbEntity
  8
0
100
AcDbPolyline
 90
     2
 10
173.25
 20
127.0
 10
174.08
 20
131.0
  0
LWPOLYLINE
  5
26C
330
12
100
AcDbEntity
  8
0
100
AcDbPolyline
 90
     2
 10
172.42
 20
131.0
 10
173.25
 20
127.0
  0
LWPOLYLINE
  5
26D
330
12
100
AcDbEntity
  8
0
100
AcDbPolyline
 90
     2
 10
176.58
 20
127.0
 10
177.0
 20
129.0
  0
LWPOLYLINE
  5
26E
330
12
100
AcDbEntity
  8
0
100
AcDbPolyline
 90
     2
 10
175.75
 20
131.0
 10
176.58
 20
127.0
  0
LWPOLYLINE
  5
26F
330
12
100
AcDbEntity
  8
0
100
AcDbPolyline
 90
     2
 10
174.92
 20
127.0
 10
175.75
 20
131.0
  0
LWPOLYLINE
  5
270
330
12
100
AcDbEntity
  8
0
100
AcDbPolyline
 90
     2
 10
169.0
 20
127.0
 10
171.0
 20
127.0
  0
LWPOLYLINE
  5
271
330
12
100
AcDbEntity
  8
0
100
AcDbPolyline
 90
     2
 10
171.0
 20
127.0
 10
170.0
 20
125.67
  0
LWPOLYLINE
  5
272
330
12
100
AcDbEntity
  8
0
100
AcDbPolyline
 90
     2
 10
170.0
 20
125.67
 10
169.0
 20
127.0
  0
LWPOLYLINE
  5
273
330
12
100
AcDbEntity
  8
0
100
AcDbPolyline
 90
     2
 10
169.0
 20
125.0
 10
171.0
 20
125.0
  0
LWPOLYLINE
  5
274
330
12
100
AcDbEntity
  8
0
100
AcDbPolyline
 90
     2
 10
150.0
 20
128.0
 10
156.0
 20
128.0
  0
LWPOLYLINE
  5
275
330
12
100
AcDbEntity
  8
0
100
AcDbPolyline
 90
     2
 10
156.0
 20
130.0
 10
150.0
 20
130.0
  0
LWPOLYLINE
  5
276
330
12
100
AcDbEntity
  8
0
100
AcDbPolyline
 90
     2
 10
156.0
 20
131.0
 10
156.0
 20
127.0
  0
CIRCLE
  5
277
330
12
100
AcDbEntity
  8
0
100
AcDbCircle
 10
150.0
 20
129.0
 30
0.0
 40
1.3333334
  0
CIRCLE
  5
278
330
12
100
AcDbEntity
  8
0
100
AcDbCircle
 10
150.0
 20
129.0
 30
0.0
 40
0.22222223
  0
LWPOLYLINE
  5
279
330
12
100
AcDbEntity
  8
0
100
AcDbPolyline
 90
     2
 10
149.33
 20
129.22
 10
149.33
 20
128.78
  0
LWPOLYLINE
  5
27A
330
12
100
AcDbEntity
  8
0
100
AcDbPolyline
 90
     2
 10
150.67
 20
129.22
 10
150.67
 20
128.78
  0
LWPOLYLINE
  5
27B
330
12
100
AcDbEntity
  8
0
100
AcDbPolyline
 90
     2
 10
149.78
 20
129.67
 10
150.22
 20
129.67
  0
LWPOLYLINE
  5
27C
330
12
100
AcDbEntity
  8
0
100
AcDbPolyline
 90
     2
 10
149.78
 20
128.33
 10
150.22
 20
128.33
  0
LWPOLYLINE
  5
27D
330
12
100
AcDbEntity
  8
0
100
AcDbPolyline
 90
     2
 10
149.33
 20
127.0
 10
150.67
 20
127.0
  0
LWPOLYLINE
  5
27E
330
12
100
AcDbEntity
  8
0
100
AcDbPolyline
 90
     2
 10
149.33
 20
131.0
 10
150.67
 20
131.0
  0
LWPOLYLINE
  5
27F
330
12
100
AcDbEntity
  8
0
100
AcDbPolyline
 90
     2
 10
152.0
 20
128.33
 10
152.0
 20
129.67
  0
LWPOLYLINE
  5
280
330
12
100
AcDbEntity
  8
0
100
AcDbPolyline
 90
     2
 10
148.0
 20
128.33
 10
148.0
 20
129.67
  0
SPLINE
  5
281
330
12
100
AcDbEntity
  8
0
100
AcDbSpline
210
0.0
220
0.0
230
1.0
 70
    12
 71
     3
 72
     8
 73
     4
 40
0.0
 40
0.0
 40
0.0
 40
0.0
 40
1.0
 40
1.0
 40
1.0
 40
1.0
 10
188.45
 20
160.7
 30
0.0
 41
1.0
 10
187.5
 20
161.41
 30
0.0
 41
1.0
 10
187.5
 20
164.24
 30
0.0
 41
1.0
 10
188.45
 20
164.93
 30
0.0
 41
1.0
  0
LWPOLYLINE
  5
282
330
12
100
AcDbEntity
  8
0
100
AcDbPolyline
 90
     2
 10
188.44
 20
163.53
 10
188.44
 20
162.12
  0
LWPOLYLINE
  5
283
330
12
100
AcDbEntity
  8
0
100
AcDbPolyline
 90
     2
 10
187.02
 20
163.53
 10
187.02
 20
162.12
  0
SPLINE
  5
284
330
12
100
AcDbEntity
  8
0
100
AcDbSpline
210
0.0
220
0.0
230
1.0
 70
    12
 71
     3
 72
     8
 73
     4
 40
0.0
 40
0.0
 40
0.0
 40
0.0
 40
1.0
 40
1.0
 40
1.0
 40
1.0
 10
185.62
 20
164.93
 30
0.0
 41
1.0
 10
186.57
 20
164.22
 30
0.0
 41
1.0
 10
186.57
 20
161.4
 30
0.0
 41
1.0
 10
185.62
 20
160.7
 30
0.0
 41
1.0
  0
LWPOLYLINE
  5
285
330
12
100
AcDbEntity
  8
0
100
AcDbPolyline
 90
     2
 10
185.63
 20
162.1
 10
185.63
 20
163.52
  0
LWPOLYLINE
  5
286
330
12
100
AcDbEntity
  8
0
100
AcDbPolyline
 90
     2
 10
187.05
 20
162.1
 10
187.05
 20
163.52
  0
LWPOLYLINE
  5
287
330
12
100
AcDbEntity
  8
0
100
AcDbPolyline
 90
     2
 10
187.02
 20
164.94
 10
187.02
 20
167.76
  0
LWPOLYLINE
  5
288
330
12
100
AcDbEntity
  8
0
100
AcDbPolyline
 90
     2
 10
187.02
 20
164.94
 10
187.02
 20
160.71
  0
LWPOLYLINE
  5
289
330
12
100
AcDbEntity
  8
0
100
AcDbPolyline
 90
     2
 10
187.02
 20
160.71
 10
187.02
 20
157.88
  0
LWPOLYLINE
  5
28A
330
12
100
AcDbEntity
  8
0
100
AcDbPolyline
 90
     2
 10
187.02
 20
167.06
 10
191.96
 20
167.06
  0
LWPOLYLINE
  5
28B
330
12
100
AcDbEntity
  8
0
100
AcDbPolyline
 90
     2
 10
187.02
 20
158.59
 10
191.96
 20
158.59
  0
LWPOLYLINE
  5
28C
330
12
100
AcDbEntity
  8
0
100
AcDbPolyline
 90
     2
 10
191.96
 20
167.06
 10
191.96
 20
163.53
  0
LWPOLYLINE
  5
28D
330
12
100
AcDbEntity
  8
0
100
AcDbPolyline
 90
     2
 10
191.96
 20
162.12
 10
191.96
 20
159.29
  0
CIRCLE
  5
28E
330
12
100
AcDbEntity
  8
0
100
AcDbCircle
 10
191.96
 20
163.18
 30
0.0
 40
0.70588235
  0
LWPOLYLINE
  5
28F
330
12
100
AcDbEntity
  8
0
100
AcDbPolyline
 90
     2
 10
191.96
 20
162.12
 10
190.55
 20
163.53
  0
LWPOLYLINE
  5
290
330
12
100
AcDbEntity
  8
0
100
AcDbPolyline
 90
     2
 10
191.96
 20
162.12
 10
193.37
 20
163.53
  0
LWPOLYLINE
  5
291
330
12
100
AcDbEntity
  8
0
100
AcDbPolyline
 90
     2
 10
191.61
 20
164.24
 10
192.32
 20
164.24
  0
LWPOLYLINE
  5
292
330
12
100
AcDbEntity
  8
0
100
AcDbPolyline
 90
     2
 10
191.61
 20
161.41
 10
192.32
 20
161.41
  0
LWPOLYLINE
  5
293
330
12
100
AcDbEntity
  8
0
100
AcDbPolyline
 90
     2
 10
191.96
 20
159.29
 10
191.96
 20
158.59
  0
LWPOLYLINE
  5
294
330
12
100
AcDbEntity
  8
0
100
AcDbPolyline
 90
     2
 10
184.2
 20
168.47
 10
184.2
 20
157.18
  0
LWPOLYLINE
  5
295
330
12
100
AcDbEntity
  8
0
100
AcDbPolyline
 90
     2
 10
194.08
 20
168.47
 10
194.08
 20
157.18
  0
LWPOLYLINE
  5
296
330
12
100
AcDbEntity
  8
0
100
AcDbPolyline
 90
     2
 10
187.02
 20
167.76
 10
187.02
 20
168.47
  0
LWPOLYLINE
  5
297
330
12
100
AcDbEntity
  8
0
100
AcDbPolyline
 90
     2
 10
187.02
 20
157.88
 10
187.02
 20
157.18
  0
LWPOLYLINE
  5
298
330
12
100
AcDbEntity
  8
0
100
AcDbPolyline
 90
     2
 10
184.2
 20
168.47
 10
194.08
 20
168.47
  0
LWPOLYLINE
  5
299
330
12
100
AcDbEntity
  8
0
100
AcDbPolyline
 90
     2
 10
184.2
 20
157.18
 10
194.08
 20
157.18
  0
LWPOLYLINE
  5
29A
330
12
100
AcDbEntity
  8
0
100
AcDbPolyline
 90
     2
 10
187.02
 20
168.47
 10
187.02
 20
171.29
  0
LWPOLYLINE
  5
29B
330
12
100
AcDbEntity
  8
0
100
AcDbPolyline
 90
     2
 10
187.02
 20
154.35
 10
187.02
 20
157.18
  0
CIRCLE
  5
29C
330
12
100
AcDbEntity
  8
0
100
AcDbCircle
 10
187.02
 20
167.06
 30
0.0
 40
0.23529413
  0
LWPOLYLINE
  5
29D
330
12
100
AcDbEntity
  8
0
100
AcDbPolyline
 90
     2
 10
186.32
 20
167.29
 10
186.32
 20
166.82
  0
LWPOLYLINE
  5
29E
330
12
100
AcDbEntity
  8
0
100
AcDbPolyline
 90
     2
 10
187.73
 20
167.29
 10
187.73
 20
166.82
  0
LWPOLYLINE
  5
29F
330
12
100
AcDbEntity
  8
0
100
AcDbPolyline
 90
     2
 10
186.79
 20
167.76
 10
187.26
 20
167.76
  0
LWPOLYLINE
  5
2A0
330
12
100
AcDbEntity
  8
0
100
AcDbPolyline
 90
     2
 10
186.79
 20
166.35
 10
187.26
 20
166.35
  0
CIRCLE
  5
2A1
330
12
100
AcDbEntity
  8
0
100
AcDbCircle
 10
187.02
 20
158.59
 30
0.0
 40
0.23529413
  0
LWPOLYLINE
  5
2A2
330
12
100
AcDbEntity
  8
0
100
AcDbPolyline
 90
     2
 10
186.32
 20
158.82
 10
186.32
 20
158.35
  0
LWPOLYLINE
  5
2A3
330
12
100
AcDbEntity
  8
0
100
AcDbPolyline
 90
     2
 10
187.73
 20
158.82
 10
187.73
 20
158.35
  0
LWPOLYLINE
  5
2A4
330
12
100
AcDbEntity
  8
0
100
AcDbPolyline
 90
     2
 10
186.79
 20
159.29
 10
187.26
 20
159.29
  0
LWPOLYLINE
  5
2A5
330
12
100
AcDbEntity
  8
0
100
AcDbPolyline
 90
     2
 10
186.79
 20
157.88
 10
187.26
 20
157.88
  0
LWPOLYLINE
  5
2A6
330
12
100
AcDbEntity
  8
0
100
AcDbPolyline
 90
     2
 10
188.61
 20
163.53
 10
187.37
 20
163.06
  0
LWPOLYLINE
  5
2A7
330
12
100
AcDbEntity
  8
0
100
AcDbPolyline
 90
     2
 10
187.37
 20
163.06
 10
186.14
 20
162.59
  0
LWPOLYLINE
  5
2A8
330
12
100
AcDbEntity
  8
0
100
AcDbPolyline
 90
     2
 10
186.14
 20
162.59
 10
184.91
 20
162.12
  0
LWPOLYLINE
  5
2A9
330
12
100
AcDbEntity
  8
0
100
AcDbPolyline
 90
     4
 70
     1
 10
189.84
 20
164.0
 10
188.79
 20
163.33
 10
188.43
 20
163.73
 10
189.84
 20
164.0
  0
LWPOLYLINE
  5
2AA
330
12
100
AcDbEntity
  8
0
100
AcDbPolyline
 90
     2
 10
186.32
 20
164.94
 10
187.73
 20
164.94
  0
MTEXT
  5
2AB
330
12
100
AcDbEntity
  8
1-texts
100
AcDbMText
 10
185.15
 20
170.14
 30
0.0
 40
1.536
 41
0.0
 71
     5
 72
     1
  1
2
 50
0.0
  0
MTEXT
  5
2AC
330
12
100
AcDbEntity
  8
1-texts
100
AcDbMText
 10
185.15
 20
155.31
 30
0.0
 40
1.536
 41
0.0
 71
     5
 72
     1
  1
1
 50
0.0
  0
SPLINE
  5
2AD
330
12
100
AcDbEntity
  8
0
100
AcDbSpline
210
0.0
220
0.0
230
1.0
 70
    12
 71
     3
 72
     8
 73
     4
 40
0.0
 40
0.0
 40
0.0
 40
0.0
 40
1.0
 40
1.0
 40
1.0
 40
1.0
 10
204.51
 20
161.41
 30
0.0
 41
1.0
 10
203.56
 20
162.12
 30
0.0
 41
1.0
 10
203.56
 20
164.95
 30
0.0
 41
1.0
 10
204.51
 20
165.64
 30
0.0
 41
1.0
  0
LWPOLYLINE
  5
2AE
330
12
100
AcDbEntity
  8
0
100
AcDbPolyline
 90
     2
 10
204.5
 20
164.24
 10
204.5
 20
162.83
  0
LWPOLYLINE
  5
2AF
330
12
100
AcDbEntity
  8
0
100
AcDbPolyline
 90
     2
 10
203.08
 20
164.24
 10
203.08
 20
162.83
  0
SPLINE
  5
2B0
330
12
100
AcDbEntity
  8
0
100
AcDbSpline
210
0.0
220
0.0
230
1.0
 70
    12
 71
     3
 72
     8
 73
     4
 40
0.0
 40
0.0
 40
0.0
 40
0.0
 40
1.0
 40
1.0
 40
1.0
 40
1.0
 10
201.68
 20
165.64
 30
0.0
 41
1.0
 10
202.63
 20
164.93
 30
0.0
 41
1.0
 10
202.63
 20
162.11
 30
0.0
 41
1.0
 10
201.68
 20
161.41
 30
0.0
 41
1.0
  0
LWPOLYLINE
  5
2B1
330
12
100
AcDbEntity
  8
0
100
AcDbPolyline
 90
     2
 10
201.69
 20
162.81
 10
201.69
 20
164.23
  0
LWPOLYLINE
  5
2B2
330
12
100
AcDbEntity
  8
0
100
AcDbPolyline
 90
     2
 10
203.11
 20
162.81
 10
203.11
 20
164.23
  0
LWPOLYLINE
  5
2B3
330
12
100
AcDbEntity
  8
0
100
AcDbPolyline
 90
     2
 10
203.08
 20
165.65
 10
203.08
 20
168.47
  0
LWPOLYLINE
  5
2B4
330
12
100
AcDbEntity
  8
0
100
AcDbPolyline
 90
     2
 10
203.08
 20
165.65
 10
203.08
 20
161.42
  0
LWPOLYLINE
  5
2B5
330
12
100
AcDbEntity
  8
0
100
AcDbPolyline
 90
     2
 10
203.08
 20
161.42
 10
203.08
 20
158.59
  0
LWPOLYLINE
  5
2B6
330
12
100
AcDbEntity
  8
0
100
AcDbPolyline
 90
     2
 10
203.08
 20
167.77
 10
208.02
 20
167.77
  0
LWPOLYLINE
  5
2B7
330
12
100
AcDbEntity
  8
0
100
AcDbPolyline
 90
     2
 10
203.08
 20
159.3
 10
208.02
 20
159.3
  0
LWPOLYLINE
  5
2B8
330
12
100
AcDbEntity
  8
0
100
AcDbPolyline
 90
     2
 10
208.02
 20
167.77
 10
208.02
 20
164.24
  0
LWPOLYLINE
  5
2B9
330
12
100
AcDbEntity
  8
0
100
AcDbPolyline
 90
     2
 10
208.02
 20
162.83
 10
208.02
 20
160.0
  0
CIRCLE
  5
2BA
330
12
100
AcDbEntity
  8
0
100
AcDbCircle
 10
208.02
 20
163.89
 30
0.0
 40
0.70588235
  0
LWPOLYLINE
  5
2BB
330
12
100
AcDbEntity
  8
0
100
AcDbPolyline
 90
     2
 10
208.02
 20
162.83
 10
206.61
 20
164.24
  0
LWPOLYLINE
  5
2BC
330
12
100
AcDbEntity
  8
0
100
AcDbPolyline
 90
     2
 10
208.02
 20
162.83
 10
209.43
 20
164.24
  0
LWPOLYLINE
  5
2BD
330
12
100
AcDbEntity
  8
0
100
AcDbPolyline
 90
     2
 10
207.67
 20
164.95
 10
208.38
 20
164.95
  0
LWPOLYLINE
  5
2BE
330
12
100
AcDbEntity
  8
0
100
AcDbPolyline
 90
     2
 10
207.67
 20
162.12
 10
208.38
 20
162.12
  0
LWPOLYLINE
  5
2BF
330
12
100
AcDbEntity
  8
0
100
AcDbPolyline
 90
     2
 10
208.02
 20
160.0
 10
208.02
 20
159.3
  0
LWPOLYLINE
  5
2C0
330
12
100
AcDbEntity
  8
0
100
AcDbPolyline
 90
     2
 10
200.26
 20
169.18
 10
200.26
 20
157.89
  0
LWPOLYLINE
  5
2C1
330
12
100
AcDbEntity
  8
0
100
AcDbPolyline
 90
     2
 10
210.14
 20
169.18
 10
210.14
 20
157.89
  0
LWPOLYLINE
  5
2C2
330
12
100
AcDbEntity
  8
0
100
AcDbPolyline
 90
     2
 10
203.08
 20
168.47
 10
203.08
 20
169.18
  0
LWPOLYLINE
  5
2C3
330
12
100
AcDbEntity
  8
0
100
AcDbPolyline
 90
     2
 10
203.08
 20
158.59
 10
203.08
 20
157.89
  0
LWPOLYLINE
  5
2C4
330
12
100
AcDbEntity
  8
0
100
AcDbPolyline
 90
     2
 10
200.26
 20
169.18
 10
210.14
 20
169.18
  0
LWPOLYLINE
  5
2C5
330
12
100
AcDbEntity
  8
0
100
AcDbPolyline
 90
     2
 10
200.26
 20
157.89
 10
210.14
 20
157.89
  0
LWPOLYLINE
  5
2C6
330
12
100
AcDbEntity
  8
0
100
AcDbPolyline
 90
     2
 10
203.08
 20
169.18
 10
203.08
 20
172.0
  0
LWPOLYLINE
  5
2C7
330
12
100
AcDbEntity
  8
0
100
AcDbPolyline
 90
     2
 10
203.08
 20
155.06
 10
203.08
 20
157.89
  0
CIRCLE
  5
2C8
330
12
100
AcDbEntity
  8
0
100
AcDbCircle
 10
203.08
 20
167.77
 30
0.0
 40
0.23529413
  0
LWPOLYLINE
  5
2C9
330
12
100
AcDbEntity
  8
0
100
AcDbPolyline
 90
     2
 10
202.38
 20
168.0
 10
202.38
 20
167.53
  0
LWPOLYLINE
  5
2CA
330
12
100
AcDbEntity
  8
0
100
AcDbPolyline
 90
     2
 10
203.79
 20
168.0
 10
203.79
 20
167.53
  0
LWPOLYLINE
  5
2CB
330
12
100
AcDbEntity
  8
0
100
AcDbPolyline
 90
     2
 10
202.85
 20
168.47
 10
203.32
 20
168.47
  0
LWPOLYLINE
  5
2CC
330
12
100
AcDbEntity
  8
0
100
AcDbPolyline
 90
     2
 10
202.85
 20
167.06
 10
203.32
 20
167.06
  0
CIRCLE
  5
2CD
330
12
100
AcDbEntity
  8
0
100
AcDbCircle
 10
203.08
 20
159.3
 30
0.0
 40
0.23529413
  0
LWPOLYLINE
  5
2CE
330
12
100
AcDbEntity
  8
0
100
AcDbPolyline
 90
     2
 10
202.38
 20
159.53
 10
202.38
 20
159.06
  0
LWPOLYLINE
  5
2CF
330
12
100
AcDbEntity
  8
0
100
AcDbPolyline
 90
     2
 10
203.79
 20
159.53
 10
203.79
 20
159.06
  0
LWPOLYLINE
  5
2D0
330
12
100
AcDbEntity
  8
0
100
AcDbPolyline
 90
     2
 10
202.85
 20
160.0
 10
203.32
 20
160.0
  0
LWPOLYLINE
  5
2D1
330
12
100
AcDbEntity
  8
0
100
AcDbPolyline
 90
     2
 10
202.85
 20
158.59
 10
203.32
 20
158.59
  0
LWPOLYLINE
  5
2D2
330
12
100
AcDbEntity
  8
0
100
AcDbPolyline
 90
     2
 10
204.67
 20
164.24
 10
203.43
 20
163.77
  0
LWPOLYLINE
  5
2D3
330
12
100
AcDbEntity
  8
0
100
AcDbPolyline
 90
     2
 10
203.43
 20
163.77
 10
202.2
 20
163.3
  0
LWPOLYLINE
  5
2D4
330
12
100
AcDbEntity
  8
0
100
AcDbPolyline
 90
     2
 10
202.2
 20
163.3
 10
200.97
 20
162.83
  0
LWPOLYLINE
  5
2D5
330
12
100
AcDbEntity
  8
0
100
AcDbPolyline
 90
     4
 70
     1
 10
205.9
 20
164.71
 10
204.85
 20
164.04
 10
204.49
 20
164.44
 10
205.9
 20
164.71
  0
LWPOLYLINE
  5
2D6
330
12
100
AcDbEntity
  8
0
100
AcDbPolyline
 90
     2
 10
202.38
 20
165.65
 10
203.79
 20
165.65
  0
MTEXT
  5
2D7
330
12
100
AcDbEntity
  8
1-texts
100
AcDbMText
 10
201.21
 20
170.85
 30
0.0
 40
1.536
 41
0.0
 71
     5
 72
     1
  1
2
 50
0.0
  0
MTEXT
  5
2D8
330
12
100
AcDbEntity
  8
1-texts
100
AcDbMText
 10
201.21
 20
156.02
 30
0.0
 40
1.536
 41
0.0
 71
     5
 72
     1
  1
1
 50
0.0
  0
MTEXT
  5
2D9
330
12
100
AcDbEntity
  8
1-texts
100
AcDbMText
 10
194.35
 20
136.36
 30
0.0
 40
1.536
 41
0.0
 71
     5
 72
     1
  1
1
 50
0.0
  0
MTEXT
  5
2DA
330
12
100
AcDbEntity
  8
1-texts
100
AcDbMText
 10
198.35
 20
136.36
 30
0.0
 40
1.536
 41
0.0
 71
     5
 72
     1
  1
3
 50
0.0
  0
MTEXT
  5
2DB
330
12
100
AcDbEntity
  8
1-texts
100
AcDbMText
 10
190.35
 20
136.36
 30
0.0
 40
1.536
 41
0.0
 71
     5
 72
     1
  1
5
 50
0.0
  0
LWPOLYLINE
  5
2DC
330
12
100
AcDbEntity
  8
0
100
AcDbPolyline
 90
     2
 10
178.0
 20
140.0
 10
190.0
 20
140.0
  0
LWPOLYLINE
  5
2DD
330
12
100
AcDbEntity
  8
0
100
AcDbPolyline
 90
     2
 10
178.0
 20
140.0
 10
178.0
 20
148.0
  0
LWPOLYLINE
  5
2DE
330
12
100
AcDbEntity
  8
0
100
AcDbPolyline
 90
     2
 10
178.0
 20
148.0
 10
190.0
 20
148.0
  0
LWPOLYLINE
  5
2DF
330
12
100
AcDbEntity
  8
0
100
AcDbPolyline
 90
     2
 10
190.0
 20
140.0
 10
190.0
 20
148.0
  0
LWPOLYLINE
  5
2E0
330
12
100
AcDbEntity
  8
0
100
AcDbPolyline
 90
     2
 10
200.0
 20
152.0
 10
200.0
 20
148.0
  0
LWPOLYLINE
  5
2E1
330
12
100
AcDbEntity
  8
0
100
AcDbPolyline
 90
     2
 10
192.0
 20
152.0
 10
192.0
 20
148.0
  0
LWPOLYLINE
  5
2E2
330
12
100
AcDbEntity
  8
0
100
AcDbPolyline
 90
     2
 10
192.0
 20
140.0
 10
192.0
 20
136.0
  0
LWPOLYLINE
  5
2E3
330
12
100
AcDbEntity
  8
0
100
AcDbPolyline
 90
     2
 10
196.0
 20
140.0
 10
196.0
 20
136.0
  0
LWPOLYLINE
  5
2E4
330
12
100
AcDbEntity
  8
0
100
AcDbPolyline
 90
     2
 10
200.0
 20
140.0
 10
200.0
 20
136.0
  0
LWPOLYLINE
  5
2E5
330
12
100
AcDbEntity
  8
0
100
AcDbPolyline
 90
     2
 10
190.0
 20
140.0
 10
202.0
 20
140.0
  0
LWPOLYLINE
  5
2E6
330
12
100
AcDbEntity
  8
0
100
AcDbPolyline
 90
     2
 10
190.0
 20
140.0
 10
190.0
 20
148.0
  0
LWPOLYLINE
  5
2E7
330
12
100
AcDbEntity
  8
0
100
AcDbPolyline
 90
     2
 10
190.0
 20
148.0
 10
202.0
 20
148.0
  0
LWPOLYLINE
  5
2E8
330
12
100
AcDbEntity
  8
0
100
AcDbPolyline
 90
     2
 10
202.0
 20
140.0
 10
202.0
 20
148.0
  0
LWPOLYLINE
  5
2E9
330
12
100
AcDbEntity
  8
0
100
AcDbPolyline
 90
     2
 10
200.0
 20
142.0
 10
200.0
 20
140.0
  0
LWPOLYLINE
  5
2EA
330
12
100
AcDbEntity
  8
0
100
AcDbPolyline
 90
     2
 10
199.0
 20
142.0
 10
201.0
 20
142.0
  0
LWPOLYLINE
  5
2EB
330
12
100
AcDbEntity
  8
0
100
AcDbPolyline
 90
     2
 10
180.0
 20
142.0
 10
180.0
 20
140.0
  0
LWPOLYLINE
  5
2EC
330
12
100
AcDbEntity
  8
0
100
AcDbPolyline
 90
     2
 10
179.0
 20
142.0
 10
181.0
 20
142.0
  0
MTEXT
  5
2ED
330
12
100
AcDbEntity
  8
1-texts
100
AcDbMText
 10
198.35
 20
150.36
 30
0.0
 40
1.536
 41
0.0
 71
     5
 72
     1
  1
2
 50
0.0
  0
MTEXT
  5
2EE
330
12
100
AcDbEntity
  8
1-texts
100
AcDbMText
 10
190.35
 20
150.36
 30
0.0
 40
1.536
 41
0.0
 71
     5
 72
     1
  1
4
 50
0.0
  0
LWPOLYLINE
  5
2EF
330
12
100
AcDbEntity
  8
0
100
AcDbPolyline
 90
     2
 10
172.0
 20
144.0
 10
175.0
 20
142.0
  0
LWPOLYLINE
  5
2F0
330
12
100
AcDbEntity
  8
0
100
AcDbPolyline
 90
     2
 10
175.0
 20
142.0
 10
172.0
 20
140.0
  0
LWPOLYLINE
  5
2F1
330
12
100
AcDbEntity
  8
0
100
AcDbPolyline
 90
     2
 10
172.0
 20
144.0
 10
172.0
 20
140.0
  0
LWPOLYLINE
  5
2F2
330
12
100
AcDbEntity
  8
0
  6
DOT
100
AcDbPolyline
 90
     2
 10
175.0
 20
142.0
 10
178.0
 20
142.0
  0
LWPOLYLINE
  5
2F3
330
12
100
AcDbEntity
  8
0
  6
DOT
100
AcDbPolyline
 90
     2
 10
170.0
 20
142.0
 10
172.0
 20
142.0
  0
LWPOLYLINE
  5
2F4
330
12
100
AcDbEntity
  8
0
100
AcDbPolyline
 90
     2
 10
192.0
 20
148.0
 10
192.0
 20
140.0
  0
LWPOLYLINE
  5
2F5
330
12
100
AcDbEntity
  8
0
100
AcDbPolyline
 90
     4
 70
     1
 10
192.0
 20
140.0
 10
191.5
 20
142.0
 10
192.5
 20
142.0
 10
192.0
 20
140.0
  0
LWPOLYLINE
  5
2F6
330
12
100
AcDbEntity
  8
0
100
AcDbPolyline
 90
     2
 10
193.0
 20
143.5
 10
193.0
 20
144.5
  0
LWPOLYLINE
  5
2F7
330
12
100
AcDbEntity
  8
0
100
AcDbPolyline
 90
     2
 10
191.0
 20
143.5
 10
191.0
 20
144.5
  0
LWPOLYLINE
  5
2F8
330
12
100
AcDbEntity
  8
0
100
AcDbPolyline
 90
     2
 10
199.0
 20
146.03
 10
198.0
 20
144.07
  0
LWPOLYLINE
  5
2F9
330
12
100
AcDbEntity
  8
0
100
AcDbPolyline
 90
     2
 10
198.0
 20
144.07
 10
197.0
 20
142.11
  0
LWPOLYLINE
  5
2FA
330
12
100
AcDbEntity
  8
0
100
AcDbPolyline
 90
     2
 10
197.0
 20
142.11
 10
196.0
 20
140.14
  0
LWPOLYLINE
  5
2FB
330
12
100
AcDbEntity
  8
0
100
AcDbPolyline
 90
     4
 70
     1
 10
200.0
 20
148.0
 10
198.57
 20
146.32
 10
199.43
 20
145.75
 10
200.0
 20
148.0
  0
LWPOLYLINE
  5
2FC
330
12
100
AcDbEntity
  8
0
100
AcDbPolyline
 90
     2
 10
188.0
 20
148.0
 10
188.0
 20
140.0
  0
LWPOLYLINE
  5
2FD
330
12
100
AcDbEntity
  8
0
100
AcDbPolyline
 90
     4
 70
     1
 10
188.0
 20
140.0
 10
187.5
 20
142.0
 10
188.5
 20
142.0
 10
188.0
 20
140.0
  0
LWPOLYLINE
  5
2FE
330
12
100
AcDbEntity
  8
0
100
AcDbPolyline
 90
     2
 10
189.0
 20
143.5
 10
189.0
 20
144.5
  0
LWPOLYLINE
  5
2FF
330
12
100
AcDbEntity
  8
0
100
AcDbPolyline
 90
     2
 10
187.0
 20
143.5
 10
187.0
 20
144.5
  0
LWPOLYLINE
  5
300
330
12
100
AcDbEntity
  8
0
100
AcDbPolyline
 90
     2
 10
181.0
 20
146.03
 10
182.0
 20
144.07
  0
LWPOLYLINE
  5
301
330
12
100
AcDbEntity
  8
0
100
AcDbPolyline
 90
     2
 10
182.0
 20
144.07
 10
183.0
 20
142.11
  0
LWPOLYLINE
  5
302
330
12
100
AcDbEntity
  8
0
100
AcDbPolyline
 90
     2
 10
183.0
 20
142.11
 10
184.0
 20
140.14
  0
LWPOLYLINE
  5
303
330
12
100
AcDbEntity
  8
0
100
AcDbPolyline
 90
     4
 70
     1
 10
180.0
 20
148.0
 10
181.43
 20
146.32
 10
180.57
 20
145.75
 10
180.0
 20
148.0
  0
MTEXT
  5
304
330
12
100
AcDbEntity
  8
1-texts
100
AcDbMText
 10
171.41
 20
146.36
 30
0.0
 40
1.536
 41
0.0
 71
     5
 72
     1
  1
14
 50
0.0
  0
LWPOLYLINE
  5
305
330
12
100
AcDbEntity
  8
0
100
AcDbPolyline
 90
     2
 10
208.0
 20
144.0
 10
205.0
 20
142.0
  0
LWPOLYLINE
  5
306
330
12
100
AcDbEntity
  8
0
100
AcDbPolyline
 90
     2
 10
205.0
 20
142.0
 10
208.0
 20
140.0
  0
LWPOLYLINE
  5
307
330
12
100
AcDbEntity
  8
0
100
AcDbPolyline
 90
     2
 10
208.0
 20
144.0
 10
208.0
 20
140.0
  0
LWPOLYLINE
  5
308
330
12
100
AcDbEntity
  8
0
  6
DOT
100
AcDbPolyline
 90
     2
 10
205.0
 20
142.0
 10
202.0
 20
142.0
  0
LWPOLYLINE
  5
309
330
12
100
AcDbEntity
  8
0
  6
DOT
100
AcDbPolyline
 90
     2
 10
210.0
 20
142.0
 10
208.0
 20
142.0
  0
MTEXT
  5
30A
330
12
100
AcDbEntity
  8
1-texts
100
AcDbMText
 10
208.41
 20
146.36
 30
0.0
 40
1.536
 41
0.0
 71
     5
 72
     1
  1
12
 50
0.0
  0
LWPOLYLINE
  5
30B
330
12
100
AcDbEntity
  8
0
100
AcDbPolyline
 90
     2
 10
192.08
 20
150.0
 10
192.08
 20
150.0
  0
LWPOLYLINE
  5
30C
330
12
100
AcDbEntity
  8
3-links
100
AcDbPolyline
 90
     4
 10
187.02
 20
154.35
 10
189.55
 20
154.35
 10
189.55
 20
152.0
 10
192.0
 20
152.0
  0
LWPOLYLINE
  5
30D
330
12
100
AcDbEntity
  8
3-links
100
AcDbPolyline
 90
     4
 10
200.0
 20
152.0
 10
200.0
 20
153.03
 10
203.08
 20
153.03
 10
203.08
 20
155.06
  0
MTEXT
  5
30E
330
12
100
AcDbEntity
  8
1-texts
100
AcDbMText
 10
196.84
 20
187.71
 30
0.0
 40
2.118
 41
0.0
 71
     5
 72
     1
  1
C
 50
0.0
  0
MTEXT
  5
30F
330
12
100
AcDbEntity
  8
1-texts
100
AcDbMText
 10
164.84
 20
147.71
 30
0.0
 40
2.118
 41
0.0
 71
     5
 72
     1
  1
C+
 50
0.0
  0
MTEXT
  5
310
330
12
100
AcDbEntity
  8
1-texts
100
AcDbMText
 10
214.84
 20
145.6
 30
0.0
 40
2.118
 41
0.0
 71
     5
 72
     1
  1
C-
 50
0.0
  0
LWPOLYLINE
  5
311
330
12
100
AcDbEntity
  8
3-links
100
AcDbPolyline
 90
     4
 10
166.0
 20
139.0
 10
166.0
 20
139.0
 10
166.0
 20
142.0
 10
170.0
 20
142.0
  0
LWPOLYLINE
  5
312
330
12
100
AcDbEntity
  8
3-links
100
AcDbPolyline
 90
     2
 10
144.0
 20
142.0
 10
144.0
 20
127.0
  0
MTEXT
  5
313
330
12
100
AcDbEntity
  8
1-texts
100
AcDbMText
 10
216.35
 20
120.36
 30
0.0
 40
1.536
 41
0.0
 71
     5
 72
     1
  1
1
 50
0.0
  0
MTEXT
  5
314
330
12
100
AcDbEntity
  8
1-texts
100
AcDbMText
 10
216.35
 20
133.36
 30
0.0
 40
1.536
 41
0.0
 71
     5
 72
     1
  1
2
 50
0.0
  0
MTEXT
  5
315
330
12
100
AcDbEntity
  8
1-texts
100
AcDbMText
 10
220.35
 20
120.36
 30
0.0
 40
1.536
 41
0.0
 71
     5
 72
     1
  1
3
 50
0.0
  0
LWPOLYLINE
  5
316
330
12
100
AcDbEntity
  8
0
100
AcDbPolyline
 90
     2
 10
216.0
 20
123.0
 10
224.0
 20
123.0
  0
LWPOLYLINE
  5
317
330
12
100
AcDbEntity
  8
0
100
AcDbPolyline
 90
     2
 10
216.0
 20
123.0
 10
216.0
 20
131.0
  0
LWPOLYLINE
  5
318
330
12
100
AcDbEntity
  8
0
100
AcDbPolyline
 90
     2
 10
216.0
 20
131.0
 10
224.0
 20
131.0
  0
LWPOLYLINE
  5
319
330
12
100
AcDbEntity
  8
0
100
AcDbPolyline
 90
     2
 10
224.0
 20
123.0
 10
224.0
 20
131.0
  0
LWPOLYLINE
  5
31A
330
12
100
AcDbEntity
  8
0
100
AcDbPolyline
 90
     2
 10
218.0
 20
135.0
 10
218.0
 20
131.0
  0
LWPOLYLINE
  5
31B
330
12
100
AcDbEntity
  8
0
100
AcDbPolyline
 90
     2
 10
218.0
 20
123.0
 10
218.0
 20
119.0
  0
LWPOLYLINE
  5
31C
330
12
100
AcDbEntity
  8
0
100
AcDbPolyline
 90
     2
 10
208.0
 20
123.0
 10
216.0
 20
123.0
  0
LWPOLYLINE
  5
31D
330
12
100
AcDbEntity
  8
0
100
AcDbPolyline
 90
     2
 10
208.0
 20
123.0
 10
208.0
 20
131.0
  0
LWPOLYLINE
  5
31E
330
12
100
AcDbEntity
  8
0
100
AcDbPolyline
 90
     2
 10
208.0
 20
131.0
 10
216.0
 20
131.0
  0
LWPOLYLINE
  5
31F
330
12
100
AcDbEntity
  8
0
100
AcDbPolyline
 90
     2
 10
216.0
 20
123.0
 10
216.0
 20
131.0
  0
LWPOLYLINE
  5
320
330
12
100
AcDbEntity
  8
0
100
AcDbPolyline
 90
     2
 10
218.0
 20
125.0
 10
218.0
 20
123.0
  0
LWPOLYLINE
  5
321
330
12
100
AcDbEntity
  8
0
100
AcDbPolyline
 90
     2
 10
217.0
 20
125.0
 10
219.0
 20
125.0
  0
LWPOLYLINE
  5
322
330
12
100
AcDbEntity
  8
0
100
AcDbPolyline
 90
     2
 10
214.0
 20
125.0
 10
214.0
 20
123.0
  0
LWPOLYLINE
  5
323
330
12
100
AcDbEntity
  8
0
100
AcDbPolyline
 90
     2
 10
213.0
 20
125.0
 10
215.0
 20
125.0
  0
LWPOLYLINE
  5
324
330
12
100
AcDbEntity
  8
0
100
AcDbPolyline
 90
     2
 10
210.0
 20
123.0
 10
210.0
 20
131.0
  0
LWPOLYLINE
  5
325
330
12
100
AcDbEntity
  8
0
100
AcDbPolyline
 90
     4
 70
     1
 10
210.0
 20
131.0
 10
210.5
 20
129.0
 10
209.5
 20
129.0
 10
210.0
 20
131.0
  0
LWPOLYLINE
  5
326
330
12
100
AcDbEntity
  8
0
100
AcDbPolyline
 90
     2
 10
209.0
 20
127.5
 10
209.0
 20
126.5
  0
LWPOLYLINE
  5
327
330
12
100
AcDbEntity
  8
0
100
AcDbPolyline
 90
     2
 10
211.0
 20
127.5
 10
211.0
 20
126.5
  0
LWPOLYLINE
  5
328
330
12
100
AcDbEntity
  8
0
100
AcDbPolyline
 90
     2
 10
221.0
 20
125.11
 10
220.0
 20
127.07
  0
LWPOLYLINE
  5
329
330
12
100
AcDbEntity
  8
0
100
AcDbPolyline
 90
     2
 10
220.0
 20
127.07
 10
219.0
 20
129.03
  0
LWPOLYLINE
  5
32A
330
12
100
AcDbEntity
  8
0
100
AcDbPolyline
 90
     2
 10
219.0
 20
129.03
 10
218.0
 20
131.0
  0
LWPOLYLINE
  5
32B
330
12
100
AcDbEntity
  8
0
100
AcDbPolyline
 90
     4
 70
     1
 10
222.0
 20
123.14
 10
220.57
 20
124.82
 10
221.43
 20
125.39
 10
222.0
 20
123.14
  0
LWPOLYLINE
  5
32C
330
12
100
AcDbEntity
  8
0
100
AcDbPolyline
 90
     2
 10
224.0
 20
125.0
 10
224.42
 20
127.0
  0
LWPOLYLINE
  5
32D
330
12
100
AcDbEntity
  8
0
100
AcDbPolyline
 90
     2
 10
226.08
 20
127.0
 10
226.92
 20
123.0
  0
LWPOLYLINE
  5
32E
330
12
100
AcDbEntity
  8
0
100
AcDbPolyline
 90
     2
 10
225.25
 20
123.0
 10
226.08
 20
127.0
  0
LWPOLYLINE
  5
32F
330
12
100
AcDbEntity
  8
0
100
AcDbPolyline
 90
     2
 10
224.42
 20
127.0
 10
225.25
 20
123.0
  0
LWPOLYLINE
  5
330
330
12
100
AcDbEntity
  8
0
100
AcDbPolyline
 90
     2
 10
228.58
 20
123.0
 10
229.0
 20
125.0
  0
LWPOLYLINE
  5
331
330
12
100
AcDbEntity
  8
0
100
AcDbPolyline
 90
     2
 10
227.75
 20
127.0
 10
228.58
 20
123.0
  0
LWPOLYLINE
  5
332
330
12
100
AcDbEntity
  8
0
100
AcDbPolyline
 90
     2
 10
226.92
 20
123.0
 10
227.75
 20
127.0
  0
LWPOLYLINE
  5
333
330
12
100
AcDbEntity
  8
0
100
AcDbPolyline
 90
     2
 10
221.0
 20
123.0
 10
223.0
 20
123.0
  0
LWPOLYLINE
  5
334
330
12
100
AcDbEntity
  8
0
100
AcDbPolyline
 90
     2
 10
223.0
 20
123.0
 10
222.0
 20
121.67
  0
LWPOLYLINE
  5
335
330
12
100
AcDbEntity
  8
0
100
AcDbPolyline
 90
     2
 10
222.0
 20
121.67
 10
221.0
 20
123.0
  0
LWPOLYLINE
  5
336
330
12
100
AcDbEntity
  8
0
100
AcDbPolyline
 90
     2
 10
221.0
 20
121.0
 10
223.0
 20
121.0
  0
LWPOLYLINE
  5
337
330
12
100
AcDbEntity
  8
0
100
AcDbPolyline
 90
     2
 10
202.0
 20
124.0
 10
208.0
 20
124.0
  0
LWPOLYLINE
  5
338
330
12
100
AcDbEntity
  8
0
100
AcDbPolyline
 90
     2
 10
208.0
 20
126.0
 10
202.0
 20
126.0
  0
LWPOLYLINE
  5
339
330
12
100
AcDbEntity
  8
0
100
AcDbPolyline
 90
     2
 10
208.0
 20
127.0
 10
208.0
 20
123.0
  0
CIRCLE
  5
33A
330
12
100
AcDbEntity
  8
0
100
AcDbCircle
 10
202.0
 20
125.0
 30
0.0
 40
1.3333334
  0
CIRCLE
  5
33B
330
12
100
AcDbEntity
  8
0
100
AcDbCircle
 10
202.0
 20
125.0
 30
0.0
 40
0.22222223
  0
LWPOLYLINE
  5
33C
330
12
100
AcDbEntity
  8
0
100
AcDbPolyline
 90
     2
 10
201.33
 20
125.22
 10
201.33
 20
124.78
  0
LWPOLYLINE
  5
33D
330
12
100
AcDbEntity
  8
0
100
AcDbPolyline
 90
     2
 10
202.67
 20
125.22
 10
202.67
 20
124.78
  0
LWPOLYLINE
  5
33E
330
12
100
AcDbEntity
  8
0
100
AcDbPolyline
 90
     2
 10
201.78
 20
125.67
 10
202.22
 20
125.67
  0
LWPOLYLINE
  5
33F
330
12
100
AcDbEntity
  8
0
100
AcDbPolyline
 90
     2
 10
201.78
 20
124.33
 10
202.22
 20
124.33
  0
LWPOLYLINE
  5
340
330
12
100
AcDbEntity
  8
0
100
AcDbPolyline
 90
     2
 10
201.33
 20
123.0
 10
202.67
 20
123.0
  0
LWPOLYLINE
  5
341
330
12
100
AcDbEntity
  8
0
100
AcDbPolyline
 90
     2
 10
201.33
 20
127.0
 10
202.67
 20
127.0
  0
LWPOLYLINE
  5
342
330
12
100
AcDbEntity
  8
0
100
AcDbPolyline
 90
     2
 10
204.0
 20
124.33
 10
204.0
 20
125.67
  0
LWPOLYLINE
  5
343
330
12
100
AcDbEntity
  8
0
100
AcDbPolyline
 90
     2
 10
200.0
 20
124.33
 10
200.0
 20
125.67
  0
LWPOLYLINE
  5
344
330
12
100
AcDbEntity
  8
3-links
100
AcDbPolyline
 90
     3
 10
210.0
 20
142.0
 10
218.0
 20
142.0
 10
218.0
 20
135.0
  0
MTEXT
  5
345
330
12
100
AcDbEntity
  8
1-texts
100
AcDbMText
 10
24.84
 20
133.71
 30
0.0
 40
2.118
 41
0.0
 71
     5
 72
     1
  1
c0
 50
0.0
  0
MTEXT
  5
346
330
12
100
AcDbEntity
  8
1-texts
100
AcDbMText
 10
128.84
 20
121.71
 30
0.0
 40
2.118
 41
0.0
 71
     5
 72
     1
  1
a0
 50
0.0
  0
MTEXT
  5
347
330
12
100
AcDbEntity
  8
1-texts
100
AcDbMText
 10
150.84
 20
133.71
 30
0.0
 40
2.118
 41
0.0
 71
     5
 72
     1
  1
b0
 50
0.0
  0
MTEXT
  5
348
330
12
100
AcDbEntity
  8
1-texts
100
AcDbMText
 10
202.84
 20
129.71
 30
0.0
 40
2.118
 41
0.0
 71
     5
 72
     1
  1
b1
 50
0.0
  0
LWPOLYLINE
  5
349
330
12
100
AcDbEntity
  8
0
100
AcDbPolyline
 90
     2
 10
100.0
 20
107.5
 10
108.0
 20
107.5
  0
LWPOLYLINE
  5
34A
330
12
100
AcDbEntity
  8
0
100
AcDbPolyline
 90
     2
 10
104.0
 20
107.5
 10
104.0
 20
103.5
  0
CIRCLE
  5
34B
330
12
100
AcDbEntity
  8
0
100
AcDbCircle
 10
104.0
 20
107.5
 30
0.0
 40
0.5
  0
LWPOLYLINE
  5
34C
330
12
100
AcDbEntity
  8
3-links
100
AcDbPolyline
 90
     4
 10
108.0
 20
107.5
 10
125.0
 20
107.5
 10
125.0
 20
108.0
 10
140.0
 20
108.0
  0
LWPOLYLINE
  5
34D
330
12
100
AcDbEntity
  8
3-links
100
AcDbPolyline
 90
     2
 10
104.0
 20
103.5
 10
104.0
 20
101.0
  0
LWPOLYLINE
  5
34E
330
12
100
AcDbEntity
  8
0
100
AcDbPolyline
 90
     2
 10
108.0
 20
101.5
 10
116.0
 20
101.5
  0
LWPOLYLINE
  5
34F
330
12
100
AcDbEntity
  8
0
100
AcDbPolyline
 90
     2
 10
112.0
 20
101.5
 10
112.0
 20
97.5
  0
CIRCLE
  5
350
330
12
100
AcDbEntity
  8
0
100
AcDbCircle
 10
112.0
 20
101.5
 30
0.0
 40
0.5
  0
LWPOLYLINE
  5
351
330
12
100
AcDbEntity
  8
0
100
AcDbPolyline
 90
     2
 10
102.0
 20
102.0
 10
94.0
 20
102.0
  0
LWPOLYLINE
  5
352
330
12
100
AcDbEntity
  8
0
100
AcDbPolyline
 90
     2
 10
98.0
 20
102.0
 10
98.0
 20
106.0
  0
CIRCLE
  5
353
330
12
100
AcDbEntity
  8
0
100
AcDbCircle
 10
98.0
 20
102.0
 30
0.0
 40
0.5
  0
LWPOLYLINE
  5
354
330
12
100
AcDbEntity
  8
3-links
100
AcDbPolyline
 90
     4
 10
108.0
 20
101.5
 10
105.0
 20
101.5
 10
105.0
 20
102.0
 10
102.0
 20
102.0
  0
LWPOLYLINE
  5
355
330
12
100
AcDbEntity
  8
3-links
100
AcDbPolyline
 90
     3
 10
98.0
 20
106.0
 10
98.0
 20
142.0
 10
104.0
 20
142.0
  0
LWPOLYLINE
  5
356
330
12
100
AcDbEntity
  8
0
100
AcDbPolyline
 90
     2
 10
92.0
 20
108.0
 10
84.0
 20
108.0
  0
LWPOLYLINE
  5
357
330
12
100
AcDbEntity
  8
0
100
AcDbPolyline
 90
     2
 10
88.0
 20
108.0
 10
88.0
 20
112.0
  0
CIRCLE
  5
358
330
12
100
AcDbEntity
  8
0
100
AcDbCircle
 10
88.0
 20
108.0
 30
0.0
 40
0.5
  0
LWPOLYLINE
  5
359
330
12
100
AcDbEntity
  8
3-links
100
AcDbPolyline
 90
     3
 10
84.0
 20
142.0
 10
88.0
 20
142.0
 10
88.0
 20
112.0
  0
LWPOLYLINE
  5
35A
330
12
100
AcDbEntity
  8
3-links
100
AcDbPolyline
 90
     4
 10
92.0
 20
108.0
 10
96.0
 20
108.0
 10
96.0
 20
107.5
 10
100.0
 20
107.5
  0
LWPOLYLINE
  5
35B
330
12
100
AcDbEntity
  8
3-links
100
AcDbPolyline
 90
     2
 10
84.0
 20
108.0
 10
24.0
 20
108.0
  0
LWPOLYLINE
  5
35C
330
12
100
AcDbEntity
  8
0
100
AcDbPolyline
 90
     2
 10
44.0
 20
102.0
 10
36.0
 20
102.0
  0
LWPOLYLINE
  5
35D
330
12
100
AcDbEntity
  8
0
100
AcDbPolyline
 90
     2
 10
40.0
 20
102.0
 10
40.0
 20
106.0
  0
CIRCLE
  5
35E
330
12
100
AcDbEntity
  8
0
100
AcDbCircle
 10
40.0
 20
102.0
 30
0.0
 40
0.5
  0
LWPOLYLINE
  5
35F
330
12
100
AcDbEntity
  8
3-links
100
AcDbPolyline
 90
     2
 10
40.0
 20
123.0
 10
40.0
 20
106.0
  0
LWPOLYLINE
  5
360
330
12
100
AcDbEntity
  8
3-links
100
AcDbPolyline
 90
     2
 10
44.0
 20
102.0
 10
94.0
 20
102.0
  0
LWPOLYLINE
  5
361
330
12
100
AcDbEntity
  8
0
100
AcDbPolyline
 90
     2
 10
170.0
 20
108.0
 10
162.0
 20
108.0
  0
LWPOLYLINE
  5
362
330
12
100
AcDbEntity
  8
0
100
AcDbPolyline
 90
     2
 10
166.0
 20
108.0
 10
166.0
 20
112.0
  0
CIRCLE
  5
363
330
12
100
AcDbEntity
  8
0
100
AcDbCircle
 10
166.0
 20
108.0
 30
0.0
 40
0.5
  0
LWPOLYLINE
  5
364
330
12
100
AcDbEntity
  8
0
100
AcDbPolyline
 90
     2
 10
222.0
 20
102.0
 10
214.0
 20
102.0
  0
LWPOLYLINE
  5
365
330
12
100
AcDbEntity
  8
0
100
AcDbPolyline
 90
     2
 10
218.0
 20
102.0
 10
218.0
 20
106.0
  0
CIRCLE
  5
366
330
12
100
AcDbEntity
  8
0
100
AcDbCircle
 10
218.0
 20
102.0
 30
0.0
 40
0.5
  0
LWPOLYLINE
  5
367
330
12
100
AcDbEntity
  8
3-links
100
AcDbPolyline
 90
     4
 10
116.0
 20
101.5
 10
165.0
 20
101.5
 10
165.0
 20
102.0
 10
214.0
 20
102.0
  0
LWPOLYLINE
  5
368
330
12
100
AcDbEntity
  8
3-links
100
AcDbPolyline
 90
     2
 10
218.0
 20
119.0
 10
218.0
 20
106.0
  0
LWPOLYLINE
  5
369
330
12
100
AcDbEntity
  8
3-links
100
AcDbPolyline
 90
     2
 10
222.0
 20
102.0
 10
238.0
 20
102.0
  0
LWPOLYLINE
  5
36A
330
12
100
AcDbEntity
  8
3-links
100
AcDbPolyline
 90
     2
 10
170.0
 20
108.0
 10
238.0
 20
108.0
  0
LWPOLYLINE
  5
36B
330
12
100
AcDbEntity
  8
3-links
100
AcDbPolyline
 90
     2
 10
166.0
 20
123.0
 10
166.0
 20
112.0
  0
MTEXT
  5
36C
330
12
100
AcDbEntity
  8
1-texts
100
AcDbMText
 10
18.84
 20
109.6
 30
0.0
 40
2.118
 41
0.0
 71
     5
 72
     1
  1
L1
 50
0.0
  0
MTEXT
  5
36D
330
12
100
AcDbEntity
  8
1-texts
100
AcDbMText
 10
18.84
 20
103.6
 30
0.0
 40
2.118
 41
0.0
 71
     5
 72
     1
  1
L2
 50
0.0
  0
LWPOLYLINE
  5
36E
330
12
100
AcDbEntity
  8
0
100
AcDbPolyline
 90
     2
 10
108.08
 20
80.77
 10
108.08
 20
84.86
  0
LWPOLYLINE
  5
36F
330
12
100
AcDbEntity
  8
0
100
AcDbPolyline
 90
     2
 10
107.06
 20
79.13
 10
109.1
 20
79.13
  0
LWPOLYLINE
  5
370
330
12
100
AcDbEntity
  8
0
100
AcDbPolyline
 90
     2
 10
109.1
 20
79.13
 10
108.08
 20
80.77
  0
LWPOLYLINE
  5
371
330
12
100
AcDbEntity
  8
0
100
AcDbPolyline
 90
     2
 10
107.06
 20
79.13
 10
108.08
 20
80.77
  0
LWPOLYLINE
  5
372
330
12
100
AcDbEntity
  8
0
100
AcDbPolyline
 90
     2
 10
107.57
 20
78.72
 10
108.59
 20
78.72
  0
MTEXT
  5
373
330
12
100
AcDbEntity
  8
1-texts
100
AcDbMText
 10
128.35
 20
72.36
 30
0.0
 40
1.536
 41
0.0
 71
     5
 72
     1
  1
1
 50
0.0
  0
MTEXT
  5
374
330
12
100
AcDbEntity
  8
1-texts
100
AcDbMText
 10
128.35
 20
85.36
 30
0.0
 40
1.536
 41
0.0
 71
     5
 72
     1
  1
2
 50
0.0
  0
MTEXT
  5
375
330
12
100
AcDbEntity
  8
1-texts
100
AcDbMText
 10
132.35
 20
72.36
 30
0.0
 40
1.536
 41
0.0
 71
     5
 72
     1
  1
3
 50
0.0
  0
LWPOLYLINE
  5
376
330
12
100
AcDbEntity
  8
0
100
AcDbPolyline
 90
     2
 10
128.0
 20
75.0
 10
136.0
 20
75.0
  0
LWPOLYLINE
  5
377
330
12
100
AcDbEntity
  8
0
100
AcDbPolyline
 90
     2
 10
128.0
 20
75.0
 10
128.0
 20
83.0
  0
LWPOLYLINE
  5
378
330
12
100
AcDbEntity
  8
0
100
AcDbPolyline
 90
     2
 10
128.0
 20
83.0
 10
136.0
 20
83.0
  0
LWPOLYLINE
  5
379
330
12
100
AcDbEntity
  8
0
100
AcDbPolyline
 90
     2
 10
136.0
 20
75.0
 10
136.0
 20
83.0
  0
LWPOLYLINE
  5
37A
330
12
100
AcDbEntity
  8
0
100
AcDbPolyline
 90
     2
 10
130.0
 20
87.0
 10
130.0
 20
83.0
  0
LWPOLYLINE
  5
37B
330
12
100
AcDbEntity
  8
0
100
AcDbPolyline
 90
     2
 10
130.0
 20
75.0
 10
130.0
 20
71.0
  0
LWPOLYLINE
  5
37C
330
12
100
AcDbEntity
  8
0
100
AcDbPolyline
 90
     2
 10
120.0
 20
75.0
 10
128.0
 20
75.0
  0
LWPOLYLINE
  5
37D
330
12
100
AcDbEntity
  8
0
100
AcDbPolyline
 90
     2
 10
120.0
 20
75.0
 10
120.0
 20
83.0
  0
LWPOLYLINE
  5
37E
330
12
100
AcDbEntity
  8
0
100
AcDbPolyline
 90
     2
 10
120.0
 20
83.0
 10
128.0
 20
83.0
  0
LWPOLYLINE
  5
37F
330
12
100
AcDbEntity
  8
0
100
AcDbPolyline
 90
     2
 10
128.0
 20
75.0
 10
128.0
 20
83.0
  0
LWPOLYLINE
  5
380
330
12
100
AcDbEntity
  8
0
100
AcDbPolyline
 90
     2
 10
130.0
 20
77.0
 10
130.0
 20
75.0
  0
LWPOLYLINE
  5
381
330
12
100
AcDbEntity
  8
0
100
AcDbPolyline
 90
     2
 10
129.0
 20
77.0
 10
131.0
 20
77.0
  0
LWPOLYLINE
  5
382
330
12
100
AcDbEntity
  8
0
100
AcDbPolyline
 90
     2
 10
126.0
 20
77.0
 10
126.0
 20
75.0
  0
LWPOLYLINE
  5
383
330
12
100
AcDbEntity
  8
0
100
AcDbPolyline
 90
     2
 10
125.0
 20
77.0
 10
127.0
 20
77.0
  0
LWPOLYLINE
  5
384
330
12
100
AcDbEntity
  8
0
100
AcDbPolyline
 90
     2
 10
122.0
 20
75.0
 10
122.0
 20
83.0
  0
LWPOLYLINE
  5
385
330
12
100
AcDbEntity
  8
0
100
AcDbPolyline
 90
     4
 70
     1
 10
122.0
 20
83.0
 10
122.5
 20
81.0
 10
121.5
 20
81.0
 10
122.0
 20
83.0
  0
LWPOLYLINE
  5
386
330
12
100
AcDbEntity
  8
0
100
AcDbPolyline
 90
     2
 10
121.0
 20
79.5
 10
121.0
 20
78.5
  0
LWPOLYLINE
  5
387
330
12
100
AcDbEntity
  8
0
100
AcDbPolyline
 90
     2
 10
123.0
 20
79.5
 10
123.0
 20
78.5
  0
LWPOLYLINE
  5
388
330
12
100
AcDbEntity
  8
0
100
AcDbPolyline
 90
     2
 10
133.0
 20
77.11
 10
132.0
 20
79.07
  0
LWPOLYLINE
  5
389
330
12
100
AcDbEntity
  8
0
100
AcDbPolyline
 90
     2
 10
132.0
 20
79.07
 10
131.0
 20
81.03
  0
LWPOLYLINE
  5
38A
330
12
100
AcDbEntity
  8
0
100
AcDbPolyline
 90
     2
 10
131.0
 20
81.03
 10
130.0
 20
83.0
  0
LWPOLYLINE
  5
38B
330
12
100
AcDbEntity
  8
0
100
AcDbPolyline
 90
     4
 70
     1
 10
134.0
 20
75.14
 10
132.57
 20
76.82
 10
133.43
 20
77.39
 10
134.0
 20
75.14
  0
LWPOLYLINE
  5
38C
330
12
100
AcDbEntity
  8
0
100
AcDbPolyline
 90
     2
 10
136.0
 20
77.0
 10
136.42
 20
79.0
  0
LWPOLYLINE
  5
38D
330
12
100
AcDbEntity
  8
0
100
AcDbPolyline
 90
     2
 10
138.08
 20
79.0
 10
138.92
 20
75.0
  0
LWPOLYLINE
  5
38E
330
12
100
AcDbEntity
  8
0
100
AcDbPolyline
 90
     2
 10
137.25
 20
75.0
 10
138.08
 20
79.0
  0
LWPOLYLINE
  5
38F
330
12
100
AcDbEntity
  8
0
100
AcDbPolyline
 90
     2
 10
136.42
 20
79.0
 10
137.25
 20
75.0
  0
LWPOLYLINE
  5
390
330
12
100
AcDbEntity
  8
0
100
AcDbPolyline
 90
     2
 10
140.58
 20
75.0
 10
141.0
 20
77.0
  0
LWPOLYLINE
  5
391
330
12
100
AcDbEntity
  8
0
100
AcDbPolyline
 90
     2
 10
139.75
 20
79.0
 10
140.58
 20
75.0
  0
LWPOLYLINE
  5
392
330
12
100
AcDbEntity
  8
0
100
AcDbPolyline
 90
     2
 10
138.92
 20
75.0
 10
139.75
 20
79.0
  0
LWPOLYLINE
  5
393
330
12
100
AcDbEntity
  8
0
100
AcDbPolyline
 90
     2
 10
133.0
 20
75.0
 10
135.0
 20
75.0
  0
LWPOLYLINE
  5
394
330
12
100
AcDbEntity
  8
0
100
AcDbPolyline
 90
     2
 10
135.0
 20
75.0
 10
134.0
 20
73.67
  0
LWPOLYLINE
  5
395
330
12
100
AcDbEntity
  8
0
100
AcDbPolyline
 90
     2
 10
134.0
 20
73.67
 10
133.0
 20
75.0
  0
LWPOLYLINE
  5
396
330
12
100
AcDbEntity
  8
0
100
AcDbPolyline
 90
     2
 10
133.0
 20
73.0
 10
135.0
 20
73.0
  0
LWPOLYLINE
  5
397
330
12
100
AcDbEntity
  8
0
100
AcDbPolyline
 90
     2
 10
114.0
 20
76.0
 10
120.0
 20
76.0
  0
LWPOLYLINE
  5
398
330
12
100
AcDbEntity
  8
0
100
AcDbPolyline
 90
     2
 10
120.0
 20
78.0
 10
114.0
 20
78.0
  0
LWPOLYLINE
  5
399
330
12
100
AcDbEntity
  8
0
100
AcDbPolyline
 90
     2
 10
120.0
 20
79.0
 10
120.0
 20
75.0
  0
CIRCLE
  5
39A
330
12
100
AcDbEntity
  8
0
100
AcDbCircle
 10
114.0
 20
77.0
 30
0.0
 40
1.3333334
  0
CIRCLE
  5
39B
330
12
100
AcDbEntity
  8
0
100
AcDbCircle
 10
114.0
 20
77.0
 30
0.0
 40
0.22222223
  0
LWPOLYLINE
  5
39C
330
12
100
AcDbEntity
  8
0
100
AcDbPolyline
 90
     2
 10
113.33
 20
77.22
 10
113.33
 20
76.78
  0
LWPOLYLINE
  5
39D
330
12
100
AcDbEntity
  8
0
100
AcDbPolyline
 90
     2
 10
114.67
 20
77.22
 10
114.67
 20
76.78
  0
LWPOLYLINE
  5
39E
330
12
100
AcDbEntity
  8
0
100
AcDbPolyline
 90
     2
 10
113.78
 20
77.67
 10
114.22
 20
77.67
  0
LWPOLYLINE
  5
39F
330
12
100
AcDbEntity
  8
0
100
AcDbPolyline
 90
     2
 10
113.78
 20
76.33
 10
114.22
 20
76.33
  0
LWPOLYLINE
  5
3A0
330
12
100
AcDbEntity
  8
0
100
AcDbPolyline
 90
     2
 10
113.33
 20
75.0
 10
114.67
 20
75.0
  0
LWPOLYLINE
  5
3A1
330
12
100
AcDbEntity
  8
0
100
AcDbPolyline
 90
     2
 10
113.33
 20
79.0
 10
114.67
 20
79.0
  0
LWPOLYLINE
  5
3A2
330
12
100
AcDbEntity
  8
0
100
AcDbPolyline
 90
     2
 10
116.0
 20
76.33
 10
116.0
 20
77.67
  0
LWPOLYLINE
  5
3A3
330
12
100
AcDbEntity
  8
0
100
AcDbPolyline
 90
     2
 10
112.0
 20
76.33
 10
112.0
 20
77.67
  0
MTEXT
  5
3A4
330
12
100
AcDbEntity
  8
1-texts
100
AcDbMText
 10
74.35
 20
76.36
 30
0.0
 40
1.536
 41
0.0
 71
     5
 72
     1
  1
1
 50
0.0
  0
MTEXT
  5
3A5
330
12
100
AcDbEntity
  8
1-texts
100
AcDbMText
 10
74.35
 20
89.36
 30
0.0
 40
1.536
 41
0.0
 71
     5
 72
     1
  1
2
 50
0.0
  0
MTEXT
  5
3A6
330
12
100
AcDbEntity
  8
1-texts
100
AcDbMText
 10
78.35
 20
76.36
 30
0.0
 40
1.536
 41
0.0
 71
     5
 72
     1
  1
3
 50
0.0
  0
LWPOLYLINE
  5
3A7
330
12
100
AcDbEntity
  8
0
100
AcDbPolyline
 90
     2
 10
74.0
 20
79.0
 10
82.0
 20
79.0
  0
LWPOLYLINE
  5
3A8
330
12
100
AcDbEntity
  8
0
100
AcDbPolyline
 90
     2
 10
74.0
 20
79.0
 10
74.0
 20
87.0
  0
LWPOLYLINE
  5
3A9
330
12
100
AcDbEntity
  8
0
100
AcDbPolyline
 90
     2
 10
74.0
 20
87.0
 10
82.0
 20
87.0
  0
LWPOLYLINE
  5
3AA
330
12
100
AcDbEntity
  8
0
100
AcDbPolyline
 90
     2
 10
82.0
 20
79.0
 10
82.0
 20
87.0
  0
LWPOLYLINE
  5
3AB
330
12
100
AcDbEntity
  8
0
100
AcDbPolyline
 90
     2
 10
76.0
 20
91.0
 10
76.0
 20
87.0
  0
LWPOLYLINE
  5
3AC
330
12
100
AcDbEntity
  8
0
100
AcDbPolyline
 90
     2
 10
76.0
 20
79.0
 10
76.0
 20
75.0
  0
LWPOLYLINE
  5
3AD
330
12
100
AcDbEntity
  8
0
100
AcDbPolyline
 90
     2
 10
66.0
 20
79.0
 10
74.0
 20
79.0
  0
LWPOLYLINE
  5
3AE
330
12
100
AcDbEntity
  8
0
100
AcDbPolyline
 90
     2
 10
66.0
 20
79.0
 10
66.0
 20
87.0
  0
LWPOLYLINE
  5
3AF
330
12
100
AcDbEntity
  8
0
100
AcDbPolyline
 90
     2
 10
66.0
 20
87.0
 10
74.0
 20
87.0
  0
LWPOLYLINE
  5
3B0
330
12
100
AcDbEntity
  8
0
100
AcDbPolyline
 90
     2
 10
74.0
 20
79.0
 10
74.0
 20
87.0
  0
LWPOLYLINE
  5
3B1
330
12
100
AcDbEntity
  8
0
100
AcDbPolyline
 90
     2
 10
76.0
 20
81.0
 10
76.0
 20
79.0
  0
LWPOLYLINE
  5
3B2
330
12
100
AcDbEntity
  8
0
100
AcDbPolyline
 90
     2
 10
75.0
 20
81.0
 10
77.0
 20
81.0
  0
LWPOLYLINE
  5
3B3
330
12
100
AcDbEntity
  8
0
100
AcDbPolyline
 90
     2
 10
72.0
 20
81.0
 10
72.0
 20
79.0
  0
LWPOLYLINE
  5
3B4
330
12
100
AcDbEntity
  8
0
100
AcDbPolyline
 90
     2
 10
71.0
 20
81.0
 10
73.0
 20
81.0
  0
LWPOLYLINE
  5
3B5
330
12
100
AcDbEntity
  8
0
100
AcDbPolyline
 90
     2
 10
68.0
 20
79.0
 10
68.0
 20
87.0
  0
LWPOLYLINE
  5
3B6
330
12
100
AcDbEntity
  8
0
100
AcDbPolyline
 90
     4
 70
     1
 10
68.0
 20
87.0
 10
68.5
 20
85.0
 10
67.5
 20
85.0
 10
68.0
 20
87.0
  0
LWPOLYLINE
  5
3B7
330
12
100
AcDbEntity
  8
0
100
AcDbPolyline
 90
     2
 10
67.0
 20
83.5
 10
67.0
 20
82.5
  0
LWPOLYLINE
  5
3B8
330
12
100
AcDbEntity
  8
0
100
AcDbPolyline
 90
     2
 10
69.0
 20
83.5
 10
69.0
 20
82.5
  0
LWPOLYLINE
  5
3B9
330
12
100
AcDbEntity
  8
0
100
AcDbPolyline
 90
     2
 10
79.0
 20
81.11
 10
78.0
 20
83.07
  0
LWPOLYLINE
  5
3BA
330
12
100
AcDbEntity
  8
0
100
AcDbPolyline
 90
     2
 10
78.0
 20
83.07
 10
77.0
 20
85.03
  0
LWPOLYLINE
  5
3BB
330
12
100
AcDbEntity
  8
0
100
AcDbPolyline
 90
     2
 10
77.0
 20
85.03
 10
76.0
 20
87.0
  0
LWPOLYLINE
  5
3BC
330
12
100
AcDbEntity
  8
0
100
AcDbPolyline
 90
     4
 70
     1
 10
80.0
 20
79.14
 10
78.57
 20
80.82
 10
79.43
 20
81.39
 10
80.0
 20
79.14
  0
LWPOLYLINE
  5
3BD
330
12
100
AcDbEntity
  8
0
100
AcDbPolyline
 90
     2
 10
82.0
 20
81.0
 10
82.42
 20
83.0
  0
LWPOLYLINE
  5
3BE
330
12
100
AcDbEntity
  8
0
100
AcDbPolyline
 90
     2
 10
84.08
 20
83.0
 10
84.92
 20
79.0
  0
LWPOLYLINE
  5
3BF
330
12
100
AcDbEntity
  8
0
100
AcDbPolyline
 90
     2
 10
83.25
 20
79.0
 10
84.08
 20
83.0
  0
LWPOLYLINE
  5
3C0
330
12
100
AcDbEntity
  8
0
100
AcDbPolyline
 90
     2
 10
82.42
 20
83.0
 10
83.25
 20
79.0
  0
LWPOLYLINE
  5
3C1
330
12
100
AcDbEntity
  8
0
100
AcDbPolyline
 90
     2
 10
86.58
 20
79.0
 10
87.0
 20
81.0
  0
LWPOLYLINE
  5
3C2
330
12
100
AcDbEntity
  8
0
100
AcDbPolyline
 90
     2
 10
85.75
 20
83.0
 10
86.58
 20
79.0
  0
LWPOLYLINE
  5
3C3
330
12
100
AcDbEntity
  8
0
100
AcDbPolyline
 90
     2
 10
84.92
 20
79.0
 10
85.75
 20
83.0
  0
LWPOLYLINE
  5
3C4
330
12
100
AcDbEntity
  8
0
100
AcDbPolyline
 90
     2
 10
79.0
 20
79.0
 10
81.0
 20
79.0
  0
LWPOLYLINE
  5
3C5
330
12
100
AcDbEntity
  8
0
100
AcDbPolyline
 90
     2
 10
81.0
 20
79.0
 10
80.0
 20
77.67
  0
LWPOLYLINE
  5
3C6
330
12
100
AcDbEntity
  8
0
100
AcDbPolyline
 90
     2
 10
80.0
 20
77.67
 10
79.0
 20
79.0
  0
LWPOLYLINE
  5
3C7
330
12
100
AcDbEntity
  8
0
100
AcDbPolyline
 90
     2
 10
79.0
 20
77.0
 10
81.0
 20
77.0
  0
LWPOLYLINE
  5
3C8
330
12
100
AcDbEntity
  8
0
100
AcDbPolyline
 90
     2
 10
60.0
 20
80.0
 10
66.0
 20
80.0
  0
LWPOLYLINE
  5
3C9
330
12
100
AcDbEntity
  8
0
100
AcDbPolyline
 90
     2
 10
66.0
 20
82.0
 10
60.0
 20
82.0
  0
LWPOLYLINE
  5
3CA
330
12
100
AcDbEntity
  8
0
100
AcDbPolyline
 90
     2
 10
66.0
 20
83.0
 10
66.0
 20
79.0
  0
CIRCLE
  5
3CB
330
12
100
AcDbEntity
  8
0
100
AcDbCircle
 10
60.0
 20
81.0
 30
0.0
 40
1.3333334
  0
CIRCLE
  5
3CC
330
12
100
AcDbEntity
  8
0
100
AcDbCircle
 10
60.0
 20
81.0
 30
0.0
 40
0.22222223
  0
LWPOLYLINE
  5
3CD
330
12
100
AcDbEntity
  8
0
100
AcDbPolyline
 90
     2
 10
59.33
 20
81.22
 10
59.33
 20
80.78
  0
LWPOLYLINE
  5
3CE
330
12
100
AcDbEntity
  8
0
100
AcDbPolyline
 90
     2
 10
60.67
 20
81.22
 10
60.67
 20
80.78
  0
LWPOLYLINE
  5
3CF
330
12
100
AcDbEntity
  8
0
100
AcDbPolyline
 90
     2
 10
59.78
 20
81.67
 10
60.22
 20
81.67
  0
LWPOLYLINE
  5
3D0
330
12
100
AcDbEntity
  8
0
100
AcDbPolyline
 90
     2
 10
59.78
 20
80.33
 10
60.22
 20
80.33
  0
LWPOLYLINE
  5
3D1
330
12
100
AcDbEntity
  8
0
100
AcDbPolyline
 90
     2
 10
59.33
 20
79.0
 10
60.67
 20
79.0
  0
LWPOLYLINE
  5
3D2
330
12
100
AcDbEntity
  8
0
100
AcDbPolyline
 90
     2
 10
59.33
 20
83.0
 10
60.67
 20
83.0
  0
LWPOLYLINE
  5
3D3
330
12
100
AcDbEntity
  8
0
100
AcDbPolyline
 90
     2
 10
62.0
 20
80.33
 10
62.0
 20
81.67
  0
LWPOLYLINE
  5
3D4
330
12
100
AcDbEntity
  8
0
100
AcDbPolyline
 90
     2
 10
58.0
 20
80.33
 10
58.0
 20
81.67
  0
LWPOLYLINE
  5
3D5
330
12
100
AcDbEntity
  8
3-links
100
AcDbPolyline
 90
     2
 10
82.0
 20
91.0
 10
76.0
 20
91.0
  0
LWPOLYLINE
  5
3D6
330
12
100
AcDbEntity
  8
3-links
100
AcDbPolyline
 90
     3
 10
122.0
 20
91.0
 10
130.0
 20
91.0
 10
130.0
 20
87.0
  0
MTEXT
  5
3D7
330
12
100
AcDbEntity
  8
1-texts
100
AcDbMText
 10
74.35
 20
60.36
 30
0.0
 40
1.536
 41
0.0
 71
     5
 72
     1
  1
1
 50
0.0
  0
MTEXT
  5
3D8
330
12
100
AcDbEntity
  8
1-texts
100
AcDbMText
 10
74.35
 20
73.36
 30
0.0
 40
1.536
 41
0.0
 71
     5
 72
     1
  1
2
 50
0.0
  0
MTEXT
  5
3D9
330
12
100
AcDbEntity
  8
1-texts
100
AcDbMText
 10
78.35
 20
60.36
 30
0.0
 40
1.536
 41
0.0
 71
     5
 72
     1
  1
3
 50
0.0
  0
LWPOLYLINE
  5
3DA
330
12
100
AcDbEntity
  8
0
100
AcDbPolyline
 90
     2
 10
74.0
 20
63.0
 10
82.0
 20
63.0
  0
LWPOLYLINE
  5
3DB
330
12
100
AcDbEntity
  8
0
100
AcDbPolyline
 90
     2
 10
74.0
 20
63.0
 10
74.0
 20
71.0
  0
LWPOLYLINE
  5
3DC
330
12
100
AcDbEntity
  8
0
100
AcDbPolyline
 90
     2
 10
74.0
 20
71.0
 10
82.0
 20
71.0
  0
LWPOLYLINE
  5
3DD
330
12
100
AcDbEntity
  8
0
100
AcDbPolyline
 90
     2
 10
82.0
 20
63.0
 10
82.0
 20
71.0
  0
LWPOLYLINE
  5
3DE
330
12
100
AcDbEntity
  8
0
100
AcDbPolyline
 90
     2
 10
76.0
 20
75.0
 10
76.0
 20
71.0
  0
LWPOLYLINE
  5
3DF
330
12
100
AcDbEntity
  8
0
100
AcDbPolyline
 90
     2
 10
76.0
 20
63.0
 10
76.0
 20
59.0
  0
LWPOLYLINE
  5
3E0
330
12
100
AcDbEntity
  8
0
100
AcDbPolyline
 90
     2
 10
66.0
 20
63.0
 10
74.0
 20
63.0
  0
LWPOLYLINE
  5
3E1
330
12
100
AcDbEntity
  8
0
100
AcDbPolyline
 90
     2
 10
66.0
 20
63.0
 10
66.0
 20
71.0
  0
LWPOLYLINE
  5
3E2
330
12
100
AcDbEntity
  8
0
100
AcDbPolyline
 90
     2
 10
66.0
 20
71.0
 10
74.0
 20
71.0
  0
LWPOLYLINE
  5
3E3
330
12
100
AcDbEntity
  8
0
100
AcDbPolyline
 90
     2
 10
74.0
 20
63.0
 10
74.0
 20
71.0
  0
LWPOLYLINE
  5
3E4
330
12
100
AcDbEntity
  8
0
100
AcDbPolyline
 90
     2
 10
76.0
 20
65.0
 10
76.0
 20
63.0
  0
LWPOLYLINE
  5
3E5
330
12
100
AcDbEntity
  8
0
100
AcDbPolyline
 90
     2
 10
75.0
 20
65.0
 10
77.0
 20
65.0
  0
LWPOLYLINE
  5
3E6
330
12
100
AcDbEntity
  8
0
100
AcDbPolyline
 90
     2
 10
72.0
 20
65.0
 10
72.0
 20
63.0
  0
LWPOLYLINE
  5
3E7
330
12
100
AcDbEntity
  8
0
100
AcDbPolyline
 90
     2
 10
71.0
 20
65.0
 10
73.0
 20
65.0
  0
LWPOLYLINE
  5
3E8
330
12
100
AcDbEntity
  8
0
100
AcDbPolyline
 90
     2
 10
68.0
 20
63.0
 10
68.0
 20
71.0
  0
LWPOLYLINE
  5
3E9
330
12
100
AcDbEntity
  8
0
100
AcDbPolyline
 90
     4
 70
     1
 10
68.0
 20
71.0
 10
68.5
 20
69.0
 10
67.5
 20
69.0
 10
68.0
 20
71.0
  0
LWPOLYLINE
  5
3EA
330
12
100
AcDbEntity
  8
0
100
AcDbPolyline
 90
     2
 10
67.0
 20
67.5
 10
67.0
 20
66.5
  0
LWPOLYLINE
  5
3EB
330
12
100
AcDbEntity
  8
0
100
AcDbPolyline
 90
     2
 10
69.0
 20
67.5
 10
69.0
 20
66.5
  0
LWPOLYLINE
  5
3EC
330
12
100
AcDbEntity
  8
0
100
AcDbPolyline
 90
     2
 10
79.0
 20
65.11
 10
78.0
 20
67.07
  0
LWPOLYLINE
  5
3ED
330
12
100
AcDbEntity
  8
0
100
AcDbPolyline
 90
     2
 10
78.0
 20
67.07
 10
77.0
 20
69.03
  0
LWPOLYLINE
  5
3EE
330
12
100
AcDbEntity
  8
0
100
AcDbPolyline
 90
     2
 10
77.0
 20
69.03
 10
76.0
 20
71.0
  0
LWPOLYLINE
  5
3EF
330
12
100
AcDbEntity
  8
0
100
AcDbPolyline
 90
     4
 70
     1
 10
80.0
 20
63.14
 10
78.57
 20
64.82
 10
79.43
 20
65.39
 10
80.0
 20
63.14
  0
LWPOLYLINE
  5
3F0
330
12
100
AcDbEntity
  8
0
100
AcDbPolyline
 90
     2
 10
82.0
 20
65.0
 10
82.42
 20
67.0
  0
LWPOLYLINE
  5
3F1
330
12
100
AcDbEntity
  8
0
100
AcDbPolyline
 90
     2
 10
84.08
 20
67.0
 10
84.92
 20
63.0
  0
LWPOLYLINE
  5
3F2
330
12
100
AcDbEntity
  8
0
100
AcDbPolyline
 90
     2
 10
83.25
 20
63.0
 10
84.08
 20
67.0
  0
LWPOLYLINE
  5
3F3
330
12
100
AcDbEntity
  8
0
100
AcDbPolyline
 90
     2
 10
82.42
 20
67.0
 10
83.25
 20
63.0
  0
LWPOLYLINE
  5
3F4
330
12
100
AcDbEntity
  8
0
100
AcDbPolyline
 90
     2
 10
86.58
 20
63.0
 10
87.0
 20
65.0
  0
LWPOLYLINE
  5
3F5
330
12
100
AcDbEntity
  8
0
100
AcDbPolyline
 90
     2
 10
85.75
 20
67.0
 10
86.58
 20
63.0
  0
LWPOLYLINE
  5
3F6
330
12
100
AcDbEntity
  8
0
100
AcDbPolyline
 90
     2
 10
84.92
 20
63.0
 10
85.75
 20
67.0
  0
LWPOLYLINE
  5
3F7
330
12
100
AcDbEntity
  8
0
100
AcDbPolyline
 90
     2
 10
79.0
 20
63.0
 10
81.0
 20
63.0
  0
LWPOLYLINE
  5
3F8
330
12
100
AcDbEntity
  8
0
100
AcDbPolyline
 90
     2
 10
81.0
 20
63.0
 10
80.0
 20
61.67
  0
LWPOLYLINE
  5
3F9
330
12
100
AcDbEntity
  8
0
100
AcDbPolyline
 90
     2
 10
80.0
 20
61.67
 10
79.0
 20
63.0
  0
LWPOLYLINE
  5
3FA
330
12
100
AcDbEntity
  8
0
100
AcDbPolyline
 90
     2
 10
79.0
 20
61.0
 10
81.0
 20
61.0
  0
LWPOLYLINE
  5
3FB
330
12
100
AcDbEntity
  8
0
100
AcDbPolyline
 90
     2
 10
60.0
 20
64.0
 10
66.0
 20
64.0
  0
LWPOLYLINE
  5
3FC
330
12
100
AcDbEntity
  8
0
100
AcDbPolyline
 90
     2
 10
60.0
 20
63.0
 10
60.0
 20
67.0
  0
LWPOLYLINE
  5
3FD
330
12
100
AcDbEntity
  8
0
100
AcDbPolyline
 90
     2
 10
66.0
 20
66.0
 10
60.0
 20
66.0
  0
LWPOLYLINE
  5
3FE
330
12
100
AcDbEntity
  8
0
100
AcDbPolyline
 90
     2
 10
60.0
 20
63.0
 10
61.33
 20
63.0
  0
LWPOLYLINE
  5
3FF
330
12
100
AcDbEntity
  8
0
100
AcDbPolyline
 90
     2
 10
62.0
 20
64.0
 10
62.0
 20
62.0
  0
LWPOLYLINE
  5
400
330
12
100
AcDbEntity
  8
0
100
AcDbPolyline
 90
     2
 10
60.0
 20
67.0
 10
61.33
 20
67.0
  0
LWPOLYLINE
  5
401
330
12
100
AcDbEntity
  8
0
100
AcDbPolyline
 90
     2
 10
62.0
 20
68.0
 10
62.0
 20
66.0
  0
LWPOLYLINE
  5
402
330
12
100
AcDbEntity
  8
0
100
AcDbPolyline
 90
     2
 10
66.0
 20
67.0
 10
66.0
 20
63.0
  0
LWPOLYLINE
  5
403
330
12
100
AcDbEntity
  8
0
100
AcDbPolyline
 90
     2
 10
28.0
 20
102.0
 10
36.0
 20
102.0
  0
LWPOLYLINE
  5
404
330
12
100
AcDbEntity
  8
0
100
AcDbPolyline
 90
     2
 10
32.0
 20
102.0
 10
32.0
 20
98.0
  0
CIRCLE
  5
405
330
12
100
AcDbEntity
  8
0
100
AcDbCircle
 10
32.0
 20
102.0
 30
0.0
 40
0.5
  0
LWPOLYLINE
  5
406
330
12
100
AcDbEntity
  8
3-links
100
AcDbPolyline
 90
     3
 10
32.0
 20
98.0
 10
32.0
 20
59.0
 10
76.0
 20
59.0
  0
LWPOLYLINE
  5
407
330
12
100
AcDbEntity
  8
0
100
AcDbPolyline
 90
     2
 10
148.0
 20
108.0
 10
156.0
 20
108.0
  0
LWPOLYLINE
  5
408
330
12
100
AcDbEntity
  8
0
100
AcDbPolyline
 90
     2
 10
152.0
 20
108.0
 10
152.0
 20
104.0
  0
CIRCLE
  5
409
330
12
100
AcDbEntity
  8
0
100
AcDbCircle
 10
152.0
 20
108.0
 30
0.0
 40
0.5
  0
LWPOLYLINE
  5
40A
330
12
100
AcDbEntity
  8
3-links
100
AcDbPolyline
 90
     2
 10
156.0
 20
108.0
 10
162.0
 20
108.0
  0
LWPOLYLINE
  5
40B
330
12
100
AcDbEntity
  8
3-links
100
AcDbPolyline
 90
     3
 10
152.0
 20
104.0
 10
152.0
 20
71.0
 10
130.0
 20
71.0
  0
LWPOLYLINE
  5
40C
330
12
100
AcDbEntity
  8
3-links
100
AcDbPolyline
 90
     2
 10
28.0
 20
102.0
 10
24.0
 20
102.0
  0
MTEXT
  5
40D
330
12
100
AcDbEntity
  8
1-texts
100
AcDbMText
 10
78.84
 20
93.6
 30
0.0
 40
2.118
 41
0.0
 71
     5
 72
     1
  1
L1
 50
0.0
  0
MTEXT
  5
40E
330
12
100
AcDbEntity
  8
1-texts
100
AcDbMText
 10
126.84
 20
93.6
 30
0.0
 40
2.118
 41
0.0
 71
     5
 72
     1
  1
L2
 50
0.0
  0
MTEXT
  5
40F
330
12
100
AcDbEntity
  8
1-texts
100
AcDbMText
 10
60.84
 20
85.71
 30
0.0
 40
2.118
 41
0.0
 71
     5
 72
     1
  1
a1
 50
0.0
  0
MTEXT
  5
410
330
12
100
AcDbEntity
  8
1-texts
100
AcDbMText
 10
116.84
 20
81.71
 30
0.0
 40
2.118
 41
0.0
 71
     5
 72
     1
  1
c1
 50
0.0
  0
LWPOLYLINE
  5
411
330
12
100
AcDbEntity
  8
0
100
AcDbPolyline
 90
     2
 10
104.72
 20
83.57
 10
104.72
 20
80.71
  0
LWPOLYLINE
  5
412
330
12
100
AcDbEntity
  8
0
100
AcDbPolyline
 90
     2
 10
104.72
 20
83.57
 10
103.29
 20
83.57
  0
LWPOLYLINE
  5
413
330
12
100
AcDbEntity
  8
0
100
AcDbPolyline
 90
     2
 10
104.72
 20
80.71
 10
103.29
 20
80.71
  0
LWPOLYLINE
  5
414
330
12
100
AcDbEntity
  8
0
100
AcDbPolyline
 90
     2
 10
103.29
 20
83.57
 10
103.29
 20
80.71
  0
LWPOLYLINE
  5
415
330
12
100
AcDbEntity
  8
0
100
AcDbPolyline
 90
     2
 10
103.65
 20
80.71
 10
104.36
 20
80.71
  0
LWPOLYLINE
  5
416
330
12
100
AcDbEntity
  8
0
100
AcDbPolyline
 90
     2
 10
104.36
 20
80.71
 10
104.0
 20
80.24
  0
LWPOLYLINE
  5
417
330
12
100
AcDbEntity
  8
0
100
AcDbPolyline
 90
     2
 10
104.0
 20
80.24
 10
103.65
 20
80.71
  0
LWPOLYLINE
  5
418
330
12
100
AcDbEntity
  8
0
100
AcDbPolyline
 90
     2
 10
103.65
 20
80.0
 10
104.36
 20
80.0
  0
LWPOLYLINE
  5
419
330
12
100
AcDbEntity
  8
0
100
AcDbPolyline
 90
     2
 10
103.29
 20
82.86
 10
104.0
 20
82.86
  0
LWPOLYLINE
  5
41A
330
12
100
AcDbEntity
  8
0
100
AcDbPolyline
 90
     2
 10
104.0
 20
82.14
 10
104.72
 20
82.14
  0
LWPOLYLINE
  5
41B
330
12
100
AcDbEntity
  8
0
100
AcDbPolyline
 90
     2
 10
103.29
 20
81.43
 10
104.0
 20
81.43
  0
LWPOLYLINE
  5
41C
330
12
100
AcDbEntity
  8
0
100
AcDbPolyline
 90
     2
 10
104.0
 20
83.57
 10
104.0
 20
85.0
  0
LWPOLYLINE
  5
41D
330
12
100
AcDbEntity
  8
0
100
AcDbPolyline
 90
     2
 10
126.72
 20
134.57
 10
126.72
 20
131.71
  0
LWPOLYLINE
  5
41E
330
12
100
AcDbEntity
  8
0
100
AcDbPolyline
 90
     2
 10
126.72
 20
134.57
 10
125.29
 20
134.57
  0
LWPOLYLINE
  5
41F
330
12
100
AcDbEntity
  8
0
100
AcDbPolyline
 90
     2
 10
126.72
 20
131.71
 10
125.29
 20
131.71
  0
LWPOLYLINE
  5
420
330
12
100
AcDbEntity
  8
0
100
AcDbPolyline
 90
     2
 10
125.29
 20
134.57
 10
125.29
 20
131.71
  0
LWPOLYLINE
  5
421
330
12
100
AcDbEntity
  8
0
100
AcDbPolyline
 90
     2
 10
125.65
 20
131.71
 10
126.36
 20
131.71
  0
LWPOLYLINE
  5
422
330
12
100
AcDbEntity
  8
0
100
AcDbPolyline
 90
     2
 10
126.36
 20
131.71
 10
126.0
 20
131.24
  0
LWPOLYLINE
  5
423
330
12
100
AcDbEntity
  8
0
100
AcDbPolyline
 90
     2
 10
126.0
 20
131.24
 10
125.65
 20
131.71
  0
LWPOLYLINE
  5
424
330
12
100
AcDbEntity
  8
0
100
AcDbPolyline
 90
     2
 10
125.65
 20
131.0
 10
126.36
 20
131.0
  0
LWPOLYLINE
  5
425
330
12
100
AcDbEntity
  8
0
100
AcDbPolyline
 90
     2
 10
125.29
 20
133.86
 10
126.0
 20
133.86
  0
LWPOLYLINE
  5
426
330
12
100
AcDbEntity
  8
0
100
AcDbPolyline
 90
     2
 10
126.0
 20
133.14
 10
126.72
 20
133.14
  0
LWPOLYLINE
  5
427
330
12
100
AcDbEntity
  8
0
100
AcDbPolyline
 90
     2
 10
125.29
 20
132.43
 10
126.0
 20
132.43
  0
LWPOLYLINE
  5
428
330
12
100
AcDbEntity
  8
0
100
AcDbPolyline
 90
     2
 10
126.0
 20
134.57
 10
126.0
 20
136.0
  0
LWPOLYLINE
  5
429
330
12
100
AcDbEntity
  8
0
100
AcDbPolyline
 90
     2
 10
112.72
 20
83.57
 10
112.72
 20
80.71
  0
LWPOLYLINE
  5
42A
330
12
100
AcDbEntity
  8
0
100
AcDbPolyline
 90
     2
 10
112.72
 20
83.57
 10
111.29
 20
83.57
  0
LWPOLYLINE
  5
42B
330
12
100
AcDbEntity
  8
0
100
AcDbPolyline
 90
     2
 10
112.72
 20
80.71
 10
111.29
 20
80.71
  0
LWPOLYLINE
  5
42C
330
12
100
AcDbEntity
  8
0
100
AcDbPolyline
 90
     2
 10
111.29
 20
83.57
 10
111.29
 20
80.71
  0
LWPOLYLINE
  5
42D
330
12
100
AcDbEntity
  8
0
100
AcDbPolyline
 90
     2
 10
111.65
 20
80.71
 10
112.36
 20
80.71
  0
LWPOLYLINE
  5
42E
330
12
100
AcDbEntity
  8
0
100
AcDbPolyline
 90
     2
 10
112.36
 20
80.71
 10
112.0
 20
80.24
  0
LWPOLYLINE
  5
42F
330
12
100
AcDbEntity
  8
0
100
AcDbPolyline
 90
     2
 10
112.0
 20
80.24
 10
111.65
 20
80.71
  0
LWPOLYLINE
  5
430
330
12
100
AcDbEntity
  8
0
100
AcDbPolyline
 90
     2
 10
111.65
 20
80.0
 10
112.36
 20
80.0
  0
LWPOLYLINE
  5
431
330
12
100
AcDbEntity
  8
0
100
AcDbPolyline
 90
     2
 10
111.29
 20
82.86
 10
112.0
 20
82.86
  0
LWPOLYLINE
  5
432
330
12
100
AcDbEntity
  8
0
100
AcDbPolyline
 90
     2
 10
112.0
 20
82.14
 10
112.72
 20
82.14
  0
LWPOLYLINE
  5
433
330
12
100
AcDbEntity
  8
0
100
AcDbPolyline
 90
     2
 10
111.29
 20
81.43
 10
112.0
 20
81.43
  0
LWPOLYLINE
  5
434
330
12
100
AcDbEntity
  8
0
100
AcDbPolyline
 90
     2
 10
112.0
 20
83.57
 10
112.0
 20
85.0
  0
LWPOLYLINE
  5
435
330
12
100
AcDbEntity
  8
0
100
AcDbPolyline
 90
     2
 10
134.72
 20
134.57
 10
134.72
 20
131.71
  0
LWPOLYLINE
  5
436
330
12
100
AcDbEntity
  8
0
100
AcDbPolyline
 90
     2
 10
134.72
 20
134.57
 10
133.29
 20
134.57
  0
LWPOLYLINE
  5
437
330
12
100
AcDbEntity
  8
0
100
AcDbPolyline
 90
     2
 10
134.72
 20
131.71
 10
133.29
 20
131.71
  0
LWPOLYLINE
  5
438
330
12
100
AcDbEntity
  8
0
100
AcDbPolyline
 90
     2
 10
133.29
 20
134.57
 10
133.29
 20
131.71
  0
LWPOLYLINE
  5
439
330
12
100
AcDbEntity
  8
0
100
AcDbPolyline
 90
     2
 10
133.65
 20
131.71
 10
134.36
 20
131.71
  0
LWPOLYLINE
  5
43A
330
12
100
AcDbEntity
  8
0
100
AcDbPolyline
 90
     2
 10
134.36
 20
131.71
 10
134.0
 20
131.24
  0
LWPOLYLINE
  5
43B
330
12
100
AcDbEntity
  8
0
100
AcDbPolyline
 90
     2
 10
134.0
 20
131.24
 10
133.65
 20
131.71
  0
LWPOLYLINE
  5
43C
330
12
100
AcDbEntity
  8
0
100
AcDbPolyline
 90
     2
 10
133.65
 20
131.0
 10
134.36
 20
131.0
  0
LWPOLYLINE
  5
43D
330
12
100
AcDbEntity
  8
0
100
AcDbPolyline
 90
     2
 10
133.29
 20
133.86
 10
134.0
 20
133.86
  0
LWPOLYLINE
  5
43E
330
12
100
AcDbEntity
  8
0
100
AcDbPolyline
 90
     2
 10
134.0
 20
133.14
 10
134.72
 20
133.14
  0
LWPOLYLINE
  5
43F
330
12
100
AcDbEntity
  8
0
100
AcDbPolyline
 90
     2
 10
133.29
 20
132.43
 10
134.0
 20
132.43
  0
LWPOLYLINE
  5
440
330
12
100
AcDbEntity
  8
0
100
AcDbPolyline
 90
     2
 10
134.0
 20
134.57
 10
134.0
 20
136.0
  0
LWPOLYLINE
  5
441
330
12
100
AcDbEntity
  8
0
100
AcDbPolyline
 90
     2
 10
74.72
 20
134.57
 10
74.72
 20
131.71
  0
LWPOLYLINE
  5
442
330
12
100
AcDbEntity
  8
0
100
AcDbPolyline
 90
     2
 10
74.72
 20
134.57
 10
73.29
 20
134.57
  0
LWPOLYLINE
  5
443
330
12
100
AcDbEntity
  8
0
100
AcDbPolyline
 90
     2
 10
74.72
 20
131.71
 10
73.29
 20
131.71
  0
LWPOLYLINE
  5
444
330
12
100
AcDbEntity
  8
0
100
AcDbPolyline
 90
     2
 10
73.29
 20
134.57
 10
73.29
 20
131.71
  0
LWPOLYLINE
  5
445
330
12
100
AcDbEntity
  8
0
100
AcDbPolyline
 90
     2
 10
73.65
 20
131.71
 10
74.36
 20
131.71
  0
LWPOLYLINE
  5
446
330
12
100
AcDbEntity
  8
0
100
AcDbPolyline
 90
     2
 10
74.36
 20
131.71
 10
74.0
 20
131.24
  0
LWPOLYLINE
  5
447
330
12
100
AcDbEntity
  8
0
100
AcDbPolyline
 90
     2
 10
74.0
 20
131.24
 10
73.65
 20
131.71
  0
LWPOLYLINE
  5
448
330
12
100
AcDbEntity
  8
0
100
AcDbPolyline
 90
     2
 10
73.65
 20
131.0
 10
74.36
 20
131.0
  0
LWPOLYLINE
  5
449
330
12
100
AcDbEntity
  8
0
100
AcDbPolyline
 90
     2
 10
73.29
 20
133.86
 10
74.0
 20
133.86
  0
LWPOLYLINE
  5
44A
330
12
100
AcDbEntity
  8
0
100
AcDbPolyline
 90
     2
 10
74.0
 20
133.14
 10
74.72
 20
133.14
  0
LWPOLYLINE
  5
44B
330
12
100
AcDbEntity
  8
0
100
AcDbPolyline
 90
     2
 10
73.29
 20
132.43
 10
74.0
 20
132.43
  0
LWPOLYLINE
  5
44C
330
12
100
AcDbEntity
  8
0
100
AcDbPolyline
 90
     2
 10
74.0
 20
134.57
 10
74.0
 20
136.0
  0
LWPOLYLINE
  5
44D
330
12
100
AcDbEntity
  8
0
100
AcDbPolyline
 90
     2
 10
66.72
 20
134.57
 10
66.72
 20
131.71
  0
LWPOLYLINE
  5
44E
330
12
100
AcDbEntity
  8
0
100
AcDbPolyline
 90
     2
 10
66.72
 20
134.57
 10
65.29
 20
134.57
  0
LWPOLYLINE
  5
44F
330
12
100
AcDbEntity
  8
0
100
AcDbPolyline
 90
     2
 10
66.72
 20
131.71
 10
65.29
 20
131.71
  0
LWPOLYLINE
  5
450
330
12
100
AcDbEntity
  8
0
100
AcDbPolyline
 90
     2
 10
65.29
 20
134.57
 10
65.29
 20
131.71
  0
LWPOLYLINE
  5
451
330
12
100
AcDbEntity
  8
0
100
AcDbPolyline
 90
     2
 10
65.65
 20
131.71
 10
66.36
 20
131.71
  0
LWPOLYLINE
  5
452
330
12
100
AcDbEntity
  8
0
100
AcDbPolyline
 90
     2
 10
66.36
 20
131.71
 10
66.0
 20
131.24
  0
LWPOLYLINE
  5
453
330
12
100
AcDbEntity
  8
0
100
AcDbPolyline
 90
     2
 10
66.0
 20
131.24
 10
65.65
 20
131.71
  0
LWPOLYLINE
  5
454
330
12
100
AcDbEntity
  8
0
100
AcDbPolyline
 90
     2
 10
65.65
 20
131.0
 10
66.36
 20
131.0
  0
LWPOLYLINE
  5
455
330
12
100
AcDbEntity
  8
0
100
AcDbPolyline
 90
     2
 10
65.29
 20
133.86
 10
66.0
 20
133.86
  0
LWPOLYLINE
  5
456
330
12
100
AcDbEntity
  8
0
100
AcDbPolyline
 90
     2
 10
66.0
 20
133.14
 10
66.72
 20
133.14
  0
LWPOLYLINE
  5
457
330
12
100
AcDbEntity
  8
0
100
AcDbPolyline
 90
     2
 10
65.29
 20
132.43
 10
66.0
 20
132.43
  0
LWPOLYLINE
  5
458
330
12
100
AcDbEntity
  8
0
100
AcDbPolyline
 90
     2
 10
66.0
 20
134.57
 10
66.0
 20
136.0
  0
LWPOLYLINE
  5
459
330
12
100
AcDbEntity
  8
0
100
AcDbPolyline
 90
     2
 10
192.72
 20
134.57
 10
192.72
 20
131.71
  0
LWPOLYLINE
  5
45A
330
12
100
AcDbEntity
  8
0
100
AcDbPolyline
 90
     2
 10
192.72
 20
134.57
 10
191.29
 20
134.57
  0
LWPOLYLINE
  5
45B
330
12
100
AcDbEntity
  8
0
100
AcDbPolyline
 90
     2
 10
192.72
 20
131.71
 10
191.29
 20
131.71
  0
LWPOLYLINE
  5
45C
330
12
100
AcDbEntity
  8
0
100
AcDbPolyline
 90
     2
 10
191.29
 20
134.57
 10
191.29
 20
131.71
  0
LWPOLYLINE
  5
45D
330
12
100
AcDbEntity
  8
0
100
AcDbPolyline
 90
     2
 10
191.65
 20
131.71
 10
192.36
 20
131.71
  0
LWPOLYLINE
  5
45E
330
12
100
AcDbEntity
  8
0
100
AcDbPolyline
 90
     2
 10
192.36
 20
131.71
 10
192.0
 20
131.24
  0
LWPOLYLINE
  5
45F
330
12
100
AcDbEntity
  8
0
100
AcDbPolyline
 90
     2
 10
192.0
 20
131.24
 10
191.65
 20
131.71
  0
LWPOLYLINE
  5
460
330
12
100
AcDbEntity
  8
0
100
AcDbPolyline
 90
     2
 10
191.65
 20
131.0
 10
192.36
 20
131.0
  0
LWPOLYLINE
  5
461
330
12
100
AcDbEntity
  8
0
100
AcDbPolyline
 90
     2
 10
191.29
 20
133.86
 10
192.0
 20
133.86
  0
LWPOLYLINE
  5
462
330
12
100
AcDbEntity
  8
0
100
AcDbPolyline
 90
     2
 10
192.0
 20
133.14
 10
192.72
 20
133.14
  0
LWPOLYLINE
  5
463
330
12
100
AcDbEntity
  8
0
100
AcDbPolyline
 90
     2
 10
191.29
 20
132.43
 10
192.0
 20
132.43
  0
LWPOLYLINE
  5
464
330
12
100
AcDbEntity
  8
0
100
AcDbPolyline
 90
     2
 10
192.0
 20
134.57
 10
192.0
 20
136.0
  0
LWPOLYLINE
  5
465
330
12
100
AcDbEntity
  8
0
100
AcDbPolyline
 90
     2
 10
200.72
 20
134.57
 10
200.72
 20
131.71
  0
LWPOLYLINE
  5
466
330
12
100
AcDbEntity
  8
0
100
AcDbPolyline
 90
     2
 10
200.72
 20
134.57
 10
199.29
 20
134.57
  0
LWPOLYLINE
  5
467
330
12
100
AcDbEntity
  8
0
100
AcDbPolyline
 90
     2
 10
200.72
 20
131.71
 10
199.29
 20
131.71
  0
LWPOLYLINE
  5
468
330
12
100
AcDbEntity
  8
0
100
AcDbPolyline
 90
     2
 10
199.29
 20
134.57
 10
199.29
 20
131.71
  0
LWPOLYLINE
  5
469
330
12
100
AcDbEntity
  8
0
100
AcDbPolyline
 90
     2
 10
199.65
 20
131.71
 10
200.36
 20
131.71
  0
LWPOLYLINE
  5
46A
330
12
100
AcDbEntity
  8
0
100
AcDbPolyline
 90
     2
 10
200.36
 20
131.71
 10
200.0
 20
131.24
  0
LWPOLYLINE
  5
46B
330
12
100
AcDbEntity
  8
0
100
AcDbPolyline
 90
     2
 10
200.0
 20
131.24
 10
199.65
 20
131.71
  0
LWPOLYLINE
  5
46C
330
12
100
AcDbEntity
  8
0
100
AcDbPolyline
 90
     2
 10
199.65
 20
131.0
 10
200.36
 20
131.0
  0
LWPOLYLINE
  5
46D
330
12
100
AcDbEntity
  8
0
100
AcDbPolyline
 90
     2
 10
199.29
 20
133.86
 10
200.0
 20
133.86
  0
LWPOLYLINE
  5
46E
330
12
100
AcDbEntity
  8
0
100
AcDbPolyline
 90
     2
 10
200.0
 20
133.14
 10
200.72
 20
133.14
  0
LWPOLYLINE
  5
46F
330
12
100
AcDbEntity
  8
0
100
AcDbPolyline
 90
     2
 10
199.29
 20
132.43
 10
200.0
 20
132.43
  0
LWPOLYLINE
  5
470
330
12
100
AcDbEntity
  8
0
100
AcDbPolyline
 90
     2
 10
200.0
 20
134.57
 10
200.0
 20
136.0
  0
MTEXT
  5
471
330
12
100
AcDbEntity
  8
1-texts
100
AcDbMText
 10
50.52
 20
65.71
 30
0.0
 40
2.118
 41
0.0
 71
     5
 72
     1
  1
START
 50
0.0
  0
MTEXT
  5
472
330
12
100
AcDbEntity
  8
1-texts
100
AcDbMText
 10
144.84
 20
191.71
 30
0.0
 40
2.118
 41
0.0
 71
     5
 72
     1
  1
b0
 50
0.0
  0
MTEXT
  5
473
330
12
100
AcDbEntity
  8
1-texts
100
AcDbMText
 10
156.92
 20
191.6
 30
0.0
 40
2.118
 41
0.0
 71
     5
 72
     1
  1
b1
 50
0.0
  0
MTEXT
  5
474
330
12
100
AcDbEntity
  8
1-texts
100
AcDbMText
 10
210.84
 20
191.71
 30
0.0
 40
2.118
 41
0.0
 71
     5
 72
     1
  1
c0
 50
0.0
  0
MTEXT
  5
475
330
12
100
AcDbEntity
  8
1-texts
100
AcDbMText
 10
222.92
 20
191.6
 30
0.0
 40
2.118
 41
0.0
 71
     5
 72
     1
  1
c1
 50
0.0
  0
ENDSEC
  0
SECTION
  2
OBJECTS
  0
DICTIONARY
  5
18
330
0
100
AcDbDictionary
  3
ACAD_GROUP
350
19
  3
ACAD_LAYOUT
350
1A
  3
ACAD_MLINESTYLE
350
1B
  3
ACAD_PLOTSETTINGS
350
1D
  3
ACDBHEADERROUNDTRIPXREC
350
1E
  3
ACDBVARIABLEDICTIONARY
350
1F
  0
DICTIONARY
  5
19
330
18
100
AcDbDictionary
  0
DICTIONARY
  5
1A
330
18
100
AcDbDictionary
  0
DICTIONARY
  5
1B
330
18
100
AcDbDictionary
  0
DICTIONARY
  5
1C
330
18
100
AcDbDictionary
  0
DICTIONARY
  5
1D
330
18
100
AcDbDictionary
  0
DICTIONARY
  5
1E
330
18
100
AcDbDictionary
  0
DICTIONARY
  5
1F
330
18
100
AcDbDictionary
  0
ENDSEC
  0
EOF
